<?xml version="1.0" encoding="UTF-8"?>
<svg width="28px" height="22px" viewBox="0 0 28 22" version="1.1" xmlns="http://www.w3.org/2000/svg" xmlns:xlink="http://www.w3.org/1999/xlink">
    <!-- Generator: Sketch 48.2 (47327) - http://www.bohemiancoding.com/sketch -->
    <title>Group 6</title>
    <desc>Created with Sketch.</desc>
    <defs></defs>
    <g id="iPhone-7b" stroke="none" stroke-width="1" fill="none" fill-rule="evenodd" transform="translate(-52.000000, -72.000000)">
        <g id="Group-6" transform="translate(52.000000, 65.000000)" fill="#000000">
            <g id="Fill-394-+-Fill-395" transform="translate(0.000000, 7.000000)">
                <path d="M15.5912847,0.419888421 C15.3763101,0.154518939 15.0515852,0 14.7087572,0 L1.1314107,0 C0.788582703,0 0.462726387,0.154518939 0.247751734,0.419888421 C0.0339085269,0.684138201 -0.0475555522,1.03124596 0.0271198536,1.36267789 L2.29001094,11.44 L4.49859264,10.9551688 L2.54119185,2.23940491 L5.88348198,2.23940491 L6.78863841,6.71821474 L9.0515295,6.71821474 L9.95668593,2.23940491 L13.2978446,2.23940491 L11.3415753,10.9551688 L13.550157,11.44 L15.8130481,1.36267789 C15.8877235,1.03124596 15.8051279,0.684138201 15.5912847,0.419888421" id="Fill-394"></path>
                <path d="M7.48,17.6525599 C7.64829153,17.6525599 7.817683,17.6906 7.97167525,17.767767 L10.2320615,18.8839723 L9.7128876,16.8298068 C9.63699142,16.5320072 9.6930886,16.2179046 9.86467996,15.9624925 L10.9239266,14.3919798 L9.67988926,14.3919798 C9.26301025,14.3919798 8.8824294,14.1593917 8.69543882,13.7909462 L7.48,11.3878986 L6.26456118,13.7909462 C6.0775706,14.1593917 5.69698975,14.3919798 5.28011074,14.3919798 L4.03607336,14.3919798 L5.09532004,15.9624925 C5.2669114,16.2179046 5.32300858,16.5320072 5.2471124,16.8298068 L4.72793853,18.8839723 L6.98832475,17.767767 C7.142317,17.6906 7.31170847,17.6525599 7.48,17.6525599 M11.8797785,22 C11.7125869,22 11.5431955,21.9619599 11.3881033,21.8858797 L7.48,19.9556163 L3.57189673,21.8858797 C3.18801605,22.0749933 2.72713925,22.0260846 2.39275608,21.7608908 C2.05727297,21.4956969 1.90878044,21.0609529 2.01327518,20.6501198 L2.9944258,16.7689427 L1.06512291,13.9083271 C0.839634264,13.574661 0.818735316,13.1464382 1.01012568,12.7921218 C1.20261599,12.4388923 1.57439728,12.2182597 1.98027685,12.2182597 L4.60034496,12.2182597 L6.49554956,8.47185318 C6.86843079,7.73604894 8.09156921,7.73604894 8.46445044,8.47185318 L10.359655,12.2182597 L12.9797232,12.2182597 C13.3856027,12.2182597 13.757384,12.4388923 13.9498743,12.7921218 C14.1412647,13.1464382 14.1203657,13.574661 13.8948771,13.9083271 L11.9655742,16.7689427 L12.9467248,20.6501198 C13.0512196,21.0609529 12.902727,21.4956969 12.5672439,21.7608908 C12.3692539,21.9184855 12.1250662,22 11.8797785,22" id="Fill-395"></path>
            </g>
            <polygon id="1" points="27.134 7.7 27.134 28 25.046 28 25.046 9.556 20.261 9.556 20.261 7.7"></polygon>
        </g>
    </g>
</svg>