<?xml version="1.0" encoding="UTF-8"?>
<svg width="18px" height="25px" viewBox="0 0 18 25" version="1.1" xmlns="http://www.w3.org/2000/svg" xmlns:xlink="http://www.w3.org/1999/xlink">
    <!-- Generator: Sketch 48.2 (47327) - http://www.bohemiancoding.com/sketch -->
    <title>Fill 394 + Fill 395</title>
    <desc>Created with Sketch.</desc>
    <defs></defs>
    <g id="iPhone-7" stroke="none" stroke-width="1" fill="none" fill-rule="evenodd" transform="translate(-170.000000, -104.000000)">
        <g id="Group" transform="translate(170.000000, 104.000000)" fill="#F4F4F4">
            <g id="Fill-394-+-Fill-395">
                <path d="M17.717369,0.477145933 C17.4730796,0.175589703 17.1040741,0 16.7144968,0 L1.28569398,0 C0.896116708,0 0.52582544,0.175589703 0.281536062,0.477145933 C0.0385324169,0.777429774 -0.0540404002,1.17187041 0.0308180155,1.5484976 L2.60228516,13 L5.11203709,12.4490555 L2.88771801,2.54477831 L6.68577498,2.54477831 L7.71436183,7.63433493 L10.285829,7.63433493 L11.3144158,2.54477831 L15.1111871,2.54477831 L12.8881537,12.4490555 L15.3979056,13 L17.9693728,1.5484976 C18.0542312,1.17187041 17.9603727,0.777429774 17.717369,0.477145933" id="Fill-394"></path>
                <path d="M8.5,20.0597271 C8.69124037,20.0597271 8.88373068,20.1029545 9.05872187,20.1906444 L11.6273426,21.4590594 L11.0373723,19.1247805 C10.9511266,18.7863718 11.0148734,18.4294371 11.2098636,18.139196 L12.413553,16.3545225 L10.9998742,16.3545225 C10.526148,16.3545225 10.0936698,16.0902179 9.88118047,15.6715297 L8.5,12.9407939 L7.11881953,15.6715297 C6.90633022,16.0902179 6.47385199,16.3545225 6.00012584,16.3545225 L4.586447,16.3545225 L5.79013641,18.139196 C5.98512659,18.4294371 6.04887339,18.7863718 5.96262773,19.1247805 L5.37265742,21.4590594 L7.94127813,20.1906444 C8.11626932,20.1029545 8.30875963,20.0597271 8.5,20.0597271 M13.4997483,25 C13.3097579,25 13.1172676,24.9567726 12.9410264,24.8703178 L8.5,22.6768367 L4.05897355,24.8703178 C3.62274551,25.0852197 3.09902188,25.0296416 2.719041,24.728285 C2.33781019,24.4269283 2.16906869,23.9329011 2.28781271,23.4660453 L3.40275659,19.0556167 L1.21036695,15.8049171 C0.954129845,15.4257512 0.930381041,14.9391343 1.14787009,14.5365021 C1.36660908,14.1351049 1.78908781,13.884386 2.2503146,13.884386 L5.22766472,13.884386 L7.38130631,9.62710589 C7.80503498,8.7909647 9.19496502,8.7909647 9.61869369,9.62710589 L11.7723353,13.884386 L14.7496854,13.884386 C15.2109122,13.884386 15.6333909,14.1351049 15.8521299,14.5365021 C16.069619,14.9391343 16.0458702,15.4257512 15.7896331,15.8049171 L13.5972434,19.0556167 L14.7121873,23.4660453 C14.8309313,23.9329011 14.6621898,24.4269283 14.280959,24.728285 C14.0559703,24.9073699 13.7784843,25 13.4997483,25" id="Fill-395"></path>
            </g>
        </g>
    </g>
</svg>