<?xml version="1.0" encoding="UTF-8"?>
<svg width="17px" height="13px" viewBox="0 0 17 13" version="1.1" xmlns="http://www.w3.org/2000/svg" xmlns:xlink="http://www.w3.org/1999/xlink">
    <!-- Generator: Sketch 48.2 (47327) - http://www.bohemiancoding.com/sketch -->
    <title>grafiekkie</title>
    <desc>Created with Sketch.</desc>
    <defs></defs>
    <g id="iPhone-7" stroke="none" stroke-width="1" fill="none" fill-rule="evenodd" transform="translate(-313.000000, -616.000000)">
        <path d="M329.479812,616.98699 C329.228508,616.286929 328.438696,615.927923 327.738634,616.179227 C327.038573,616.430531 326.679567,617.220344 326.930871,617.920405 C327.002672,618.135809 327.146275,618.315312 327.307827,618.458914 L325.387146,622.192575 C325.189693,622.174625 325.01019,622.210525 324.812737,622.264376 C324.633234,622.336177 324.471681,622.443879 324.328079,622.569531 L320.020009,620.810402 C320.055909,620.577049 320.037959,620.343695 319.948207,620.110341 C319.696903,619.41028 318.907091,619.051274 318.207029,619.302578 C317.506968,619.553882 317.147962,620.343695 317.399266,621.043756 C317.453117,621.187358 317.524918,621.313011 317.61467,621.420712 L315.083678,625.692882 C314.868275,625.674931 314.652871,625.692882 314.455418,625.764683 C313.755357,626.015987 313.396351,626.8058 313.647655,627.505861 C313.898959,628.205923 314.688772,628.564928 315.388833,628.313624 C316.088895,628.06232 316.447901,627.272507 316.196596,626.572446 C316.124795,626.392943 316.035044,626.23139 315.909392,626.105738 L318.422433,621.92332 C318.673737,621.977171 318.925041,621.959221 319.176345,621.86947 C319.337898,621.815619 319.4815,621.725867 319.607152,621.618165 L323.951123,623.395244 C323.933172,623.592698 323.951123,623.808101 324.022924,624.023505 C324.274228,624.723566 325.064041,625.082572 325.764102,624.831268 C326.464163,624.579964 326.823169,623.790151 326.571865,623.090089 C326.500064,622.892636 326.374412,622.713133 326.23081,622.569531 L328.169441,618.81792 C328.348944,618.81792 328.528447,618.79997 328.70795,618.728168 C329.372111,618.476864 329.749067,617.687052 329.479812,616.98699 Z" id="grafiekkie" fill="#FFFFFF" fill-rule="nonzero"></path>
    </g>
</svg>