<?xml version="1.0" encoding="UTF-8"?>
<svg width="17px" height="13px" viewBox="0 0 17 13" version="1.1" xmlns="http://www.w3.org/2000/svg" xmlns:xlink="http://www.w3.org/1999/xlink">
    <!-- Generator: Sketch 48.2 (47327) - http://www.bohemiancoding.com/sketch -->
    <title>grafiekkie</title>
    <desc>Created with Sketch.</desc>
    <defs></defs>
    <g id="Leaderboard" stroke="none" stroke-width="1" fill="none" fill-rule="evenodd" transform="translate(-304.000000, -628.000000)">
        <g id="menu" transform="translate(44.000000, 606.000000)" fill="#000000" fill-rule="nonzero">
            <g id="menurechts" transform="translate(251.000000, 10.000000)">
                <path d="M25.4798125,12.9869901 C25.2285084,12.2869288 24.4386956,11.9279229 23.7386342,12.179227 C23.0385728,12.4305311 22.679567,13.2203439 22.930871,13.9204053 C23.0026722,14.1358088 23.1462745,14.3153118 23.3078272,14.4589141 L21.3871459,18.1925748 C21.1896927,18.1746245 21.0101898,18.2105251 20.8127366,18.264376 C20.6332337,18.3361771 20.471681,18.4438789 20.3280787,18.5695309 L16.0200086,16.8104023 C16.0559092,16.5770485 16.0379589,16.3436947 15.9482075,16.1103409 C15.6969034,15.4102796 14.9070905,15.0512737 14.2070292,15.3025778 C13.5069678,15.5538819 13.1479619,16.3436947 13.399266,17.0437561 C13.4531169,17.1873585 13.5249181,17.3130105 13.6146695,17.4207123 L11.0836784,21.6928817 C10.8682749,21.6749314 10.6528714,21.6928817 10.4554181,21.7646829 C9.75535676,22.015987 9.39635092,22.8057998 9.64765501,23.5058612 C9.8989591,24.2059226 10.6887719,24.5649284 11.3888333,24.3136244 C12.0888947,24.0623203 12.4479005,23.2725074 12.1965965,22.572446 C12.1247953,22.3929431 12.0350438,22.2313905 11.9093918,22.1057385 L14.4224327,17.9233204 C14.6737367,17.9771713 14.9250408,17.959221 15.1763449,17.8694696 C15.3378976,17.8156187 15.4814999,17.7258672 15.6071519,17.6181655 L19.9511226,19.3952444 C19.9331723,19.5926976 19.9511226,19.8081011 20.0229237,20.0235046 C20.2742278,20.723566 21.0640407,21.0825718 21.7641021,20.8312677 C22.4641634,20.5799636 22.8231693,19.7901508 22.5718652,19.0900894 C22.500064,18.8926362 22.374412,18.7131333 22.2308097,18.5695309 L24.1694412,14.8179199 C24.3489441,14.8179199 24.528447,14.7999696 24.7079499,14.7281685 C25.3721107,14.4768644 25.7490669,13.6870515 25.4798125,12.9869901 Z" id="grafiekkie"></path>
            </g>
        </g>
    </g>
</svg>