<?xml version="1.0" encoding="UTF-8"?>
<svg width="20px" height="19px" viewBox="0 0 20 19" version="1.1" xmlns="http://www.w3.org/2000/svg" xmlns:xlink="http://www.w3.org/1999/xlink">
    <!-- Generator: Sketch 48.2 (47327) - http://www.bohemiancoding.com/sketch -->
    <title>menurakning</title>
    <desc>Created with Sketch.</desc>
    <defs></defs>
    <g id="iPhone-7" stroke="none" stroke-width="1" fill="none" fill-rule="evenodd" transform="translate(-177.000000, -613.000000)">
        <path d="M183.118075,617.541556 C183.118075,617.859908 182.803375,618.11459 182.41,618.11459 L178.574596,618.11459 C178.181222,618.11459 177.866522,617.859908 177.866522,617.541556 L177.866522,614.437623 C177.866522,614.119271 178.181222,613.86459 178.574596,613.86459 L182.390331,613.86459 C182.783706,613.86459 183.098406,614.119271 183.098406,614.437623 L183.098406,617.541556 L183.118075,617.541556 Z M182.41,627.613037 L178.574596,627.613037 C178.181222,627.613037 177.866522,627.867473 177.866522,628.185518 L177.866522,631.270556 C177.866522,631.588601 178.181222,631.843037 178.574596,631.843037 L182.390331,631.843037 C182.783706,631.843037 183.098406,631.588601 183.098406,631.270556 L183.098406,628.185518 C183.118075,627.867473 182.803375,627.613037 182.41,627.613037 Z M183.118075,621.321129 C183.118075,621.003084 182.803375,620.748648 182.41,620.748648 L178.574596,620.748648 C178.181222,620.748648 177.866522,621.003084 177.866522,621.321129 L177.866522,624.406166 C177.866522,624.724212 178.181222,624.978648 178.574596,624.978648 L182.390331,624.978648 C182.783706,624.978648 183.098406,624.724212 183.098406,624.406166 L183.098406,621.321129 L183.118075,621.321129 Z M196.256791,614.162726 L186.048716,614.162726 C185.714348,614.162726 185.438986,614.334638 185.438986,614.543388 L185.438986,615.452064 C185.438986,615.660814 185.714348,615.832726 186.048716,615.832726 L196.256791,615.832726 C196.59116,615.832726 196.866522,615.660814 196.866522,615.452064 L196.866522,614.543388 C196.866522,614.322359 196.59116,614.162726 196.256791,614.162726 Z M196.256791,621.987778 L186.048716,621.987778 C185.714348,621.987778 185.438986,622.15969 185.438986,622.36844 L185.438986,623.277116 C185.438986,623.485866 185.714348,623.657778 186.048716,623.657778 L196.256791,623.657778 C196.59116,623.657778 196.866522,623.485866 196.866522,623.277116 L196.866522,622.36844 C196.866522,622.15969 196.59116,621.987778 196.256791,621.987778 Z M196.256791,628.911173 L186.048716,628.911173 C185.714348,628.911173 185.438986,629.083085 185.438986,629.291835 L185.438986,630.200512 C185.438986,630.409262 185.714348,630.581173 186.048716,630.581173 L196.256791,630.581173 C196.59116,630.581173 196.866522,630.409262 196.866522,630.200512 L196.866522,629.291835 C196.866522,629.070806 196.59116,628.911173 196.256791,628.911173 Z" id="menurakning" fill="#FFFFFF" fill-rule="nonzero"></path>
    </g>
</svg>