<?xml version="1.0" encoding="UTF-8"?>
<svg width="22px" height="22px" viewBox="0 0 22 22" version="1.1" xmlns="http://www.w3.org/2000/svg" xmlns:xlink="http://www.w3.org/1999/xlink">
    <!-- Generator: Sketch 48.2 (47327) - http://www.bohemiancoding.com/sketch -->
    <title>gear</title>
    <desc>Created with Sketch.</desc>
    <defs></defs>
    <g id="iPhone-7" stroke="none" stroke-width="1" fill="none" fill-rule="evenodd" transform="translate(-337.000000, -18.000000)">
        <path d="M347.125869,38.3450925 C347.344943,38.3592963 347.602296,38.3703704 347.868555,38.3703704 L347.999759,38.3703704 C348.268186,38.3703704 348.52602,38.3592963 348.744853,38.3450925 L348.969946,36.757645 C349.019539,36.4085702 349.279299,36.12594 349.623077,36.0469769 C350.370097,35.8758099 351.08221,35.5874019 351.739433,35.1904196 C351.93323,35.0734194 352.165545,35.0387527 352.385101,35.0929194 C352.511009,35.1242158 352.626324,35.1831974 352.724306,35.2645679 L353.990364,36.2256069 C354.155031,36.0809214 354.344735,35.9068655 354.532994,35.7186059 L354.62568,35.6259205 C354.814902,35.4366979 354.98968,35.2462716 355.134847,35.0808824 L354.175253,33.8025465 C353.963641,33.5203978 353.947512,33.1368971 354.135049,32.8381372 C354.533717,32.2033026 354.828865,31.515505 355.012792,30.7927998 C355.075144,30.4314473 355.36307,30.1447245 355.734775,30.0939281 L357.345093,29.8734091 C357.359056,29.6545754 357.37037,29.3974637 357.37037,29.1314447 L357.37037,29.0002407 C357.37037,28.7325365 357.359056,28.4742212 357.344852,28.2544245 L355.762701,28.0290907 C355.413626,27.979498 355.131477,27.719979 355.052514,27.376682 C354.882791,26.6380879 354.598476,25.9339199 354.207512,25.2834371 C354.17116,25.2273444 354.141068,25.1666776 354.118438,25.102159 C354.023345,24.8320473 354.069568,24.5323245 354.242901,24.3043426 L355.225607,23.0096363 C355.080681,22.8447286 354.906866,22.6552652 354.718606,22.4670056 L354.625921,22.3743202 C354.436216,22.1843754 354.24579,22.0100788 354.081123,21.8651526 L352.799417,22.8283582 C352.496564,23.0560994 352.083934,23.0546549 351.784693,22.8350989 C351.147691,22.4436537 350.458209,22.1547642 349.7343,21.9770972 C349.395095,21.89356 349.141113,21.6114113 349.093687,21.2652255 L348.873409,19.6549075 C348.654335,19.6407037 348.397464,19.6296296 348.131204,19.6296296 L348.000241,19.6296296 C347.732777,19.6296296 347.474462,19.6409445 347.254906,19.6551482 L347.029813,21.242355 C346.976609,21.6179113 346.683146,21.9082452 346.316256,21.9648194 C345.591384,22.1374309 344.899735,22.4207833 344.260085,22.8078952 C344.062918,22.9273028 343.826029,22.9614881 343.603343,22.902988 C343.478639,22.8704879 343.364769,22.8105433 343.268472,22.7289321 L342.009636,21.7741524 C341.844969,21.9190786 341.655265,22.0928938 341.467006,22.2813941 L341.37432,22.3740795 C341.184375,22.5637836 341.009838,22.7539691 340.865153,22.9188769 L341.828358,24.2005831 C342.037322,24.4783985 342.05634,24.8551585 341.876747,25.1524739 C341.86158,25.1777517 341.84521,25.2018258 341.827877,25.224937 C341.438839,25.8585679 341.151635,26.5446803 340.973968,27.2654595 C340.89043,27.6044232 340.608522,27.8581644 340.262577,27.9055904 L338.654907,28.1263501 C338.640704,28.3454246 338.62963,28.6025363 338.62963,28.868796 L338.62963,28.9997593 C338.62963,29.2672228 338.640944,29.5252973 338.654907,29.7450941 L340.242114,29.9701871 C340.618152,30.0233909 340.913542,30.3190211 340.966264,30.6950589 C340.967708,30.7056515 340.969153,30.7160034 340.970116,30.726596 C341.143449,31.4372641 341.423672,32.1151913 341.803562,32.7430444 C341.933081,32.9573041 341.96197,33.2173046 341.882525,33.4544347 C341.847617,33.5586757 341.793451,33.6535277 341.724117,33.7353797 L340.773912,34.9898822 C340.918838,35.1547899 341.092894,35.344494 341.281153,35.5329944 L341.373839,35.6256798 C341.563784,35.8156246 341.753969,35.9899212 341.918636,36.1348474 L343.200342,35.1716418 C343.523658,34.9284932 343.963492,34.9501599 344.260326,35.2000493 C344.884086,35.5775315 345.55768,35.8567913 346.264256,36.0306065 C346.602979,36.1139029 346.85672,36.3955702 346.904387,36.7412746 L347.125869,38.3450925 Z M347.999761,40 L347.869435,40 C347.038696,40 346.30863,39.9076957 346.278022,39.9038696 C345.899,39.8553261 345.59937,39.5588043 345.547239,39.1802609 L345.311217,37.4692826 C344.786087,37.3028478 344.278652,37.0876304 343.793217,36.8260217 L342.440696,37.8423261 C342.136043,38.0711739 341.71613,38.0683043 341.414826,37.8353913 C341.390435,37.8165 340.809109,37.3655 340.221565,36.7779565 L340.1295,36.6858913 C339.541957,36.098587 339.091196,35.5172609 339.072065,35.4926304 C338.838435,35.1903696 338.836283,34.7690217 339.067043,34.4641304 L340.111565,33.0853043 C339.858087,32.5965217 339.651478,32.0859783 339.493413,31.559413 L337.81663,31.3217174 C337.439522,31.2681522 337.144674,30.9692391 337.09613,30.591413 C337.092304,30.5608043 337,29.8305 337,28.9997609 L337,28.8696739 C337,28.0386957 337.092304,27.3086304 337.09613,27.2780217 C337.144913,26.8987609 337.441674,26.5991304 337.820457,26.5472391 L339.535739,26.3116957 C339.701935,25.788 339.916674,25.282 340.177565,24.7977609 L339.157674,23.4409348 C338.928587,23.1362826 338.931457,22.7163696 339.164609,22.4148261 C339.1835,22.3904348 339.6345,21.8091087 340.221804,21.2215652 L340.31387,21.1295 C340.901413,20.5421957 341.482739,20.0911957 341.50737,20.0723043 C341.80963,19.8384348 342.231457,19.8362826 342.536109,20.0675217 L343.918283,21.1156304 C344.40563,20.8628696 344.9145,20.6567391 345.43987,20.498913 L345.678283,18.8168696 C345.731848,18.4395217 346.030761,18.1446739 346.408587,18.0961304 C346.439196,18.0923043 347.169261,18 348.000239,18 L348.130326,18 C348.961304,18 349.69137,18.0923043 349.721978,18.0961304 C350.101239,18.144913 350.40087,18.441913 350.452761,18.8206957 L350.688065,20.5383696 C351.210804,20.7043261 351.716804,20.9183478 352.200804,21.1787609 L353.559065,20.1576739 C353.863717,19.928587 354.283391,19.9314565 354.584935,20.1646087 C354.609565,20.1835 355.190891,20.6345 355.778435,21.2220435 L355.8705,21.3141087 C356.458043,21.9016522 356.908804,22.4832174 356.927696,22.5076087 C357.161565,22.8101087 357.163478,23.2319348 356.932239,23.536587 L355.884848,24.9161304 C356.138565,25.4039565 356.345413,25.9133043 356.503717,26.4391522 L358.183609,26.6785217 C358.560717,26.732087 358.855326,27.031 358.90363,27.408587 C358.907696,27.4394348 359,28.1695 359,29.0002391 L359,29.1305652 C359,29.9613043 358.907696,30.6913696 358.90363,30.7219783 C358.855087,31.1012391 358.558087,31.4008696 358.179065,31.453 L356.466413,31.6873478 C356.300217,32.2112826 356.085478,32.7182391 355.824109,33.2029565 L356.842326,34.5595435 C357.071174,34.8639565 357.068065,35.2838696 356.835152,35.5851739 C356.816261,35.6095652 356.3655,36.1908913 355.777957,36.7784348 L355.685891,36.8705 C355.098348,37.4578043 354.517022,37.9090435 354.492391,37.9279348 C354.19013,38.1618043 353.768065,38.1637174 353.463413,37.9322391 L352.080522,36.8826957 C351.593413,37.1349783 351.085261,37.3408696 350.56037,37.4984565 L350.321478,39.1833696 C350.267913,39.5604783 349.969,39.8553261 349.591174,39.9038696 C349.560565,39.9076957 348.8305,40 347.999761,40 L347.999761,40 Z M348.000351,26.1481481 C346.427584,26.1481481 345.148148,27.4275316 345.148148,29.0002337 C345.148148,30.5727021 346.427584,31.8518519 348.000351,31.8518519 C349.57265,31.8518519 350.851852,30.5727021 350.851852,29.0002337 C350.851852,27.4275316 349.57265,26.1481481 348.000351,26.1481481 L348.000351,26.1481481 Z M348.000349,33.4814815 C345.529066,33.4814815 343.518519,31.4712189 343.518519,29.0002325 C343.518519,26.5290135 345.529066,24.5185185 348.000349,24.5185185 C350.471167,24.5185185 352.481481,26.5290135 352.481481,29.0002325 C352.481481,31.4712189 350.471167,33.4814815 348.000349,33.4814815 L348.000349,33.4814815 Z" id="gear" fill="#000000"></path>
    </g>
</svg>