<?xml version="1.0" encoding="UTF-8"?>
<svg width="72px" height="72px" viewBox="0 0 72 72" version="1.1" xmlns="http://www.w3.org/2000/svg" xmlns:xlink="http://www.w3.org/1999/xlink">
    <!-- Generator: Sketch 48.2 (47327) - http://www.bohemiancoding.com/sketch -->
    <title>Group 2</title>
    <desc>Created with Sketch.</desc>
    <defs></defs>
    <g id="uitleg-4" stroke="none" stroke-width="1" fill="none" fill-rule="evenodd" transform="translate(-163.000000, -202.000000)">
        <g id="Afbeelding" transform="translate(92.000000, 142.000000)" fill="#FFFFFF" fill-rule="nonzero">
            <g id="Group" transform="translate(71.000000, 60.000000)">
                <g id="Group-2">
                    <path d="M13.2834286,32 L40.7165714,32 C41.9782857,32 43,30.8825 43,29.5 C43,28.1175 41.9782857,27 40.7165714,27 L13.288,27 C12.024,27 11,28.12 11,29.5 C11,30.8825 12.0217143,32 13.2834286,32 Z" id="Shape"></path>
                    <path d="M13.2834286,41 L40.7165714,41 C41.9782857,41 43,39.8825 43,38.5 C43,37.1175 41.9782857,36 40.7165714,36 L13.2834286,36 C12.0217143,36 11,37.1175 11,38.5 C11,39.8825 12.0217143,41 13.2834286,41 Z" id="Shape"></path>
                    <path d="M54,35.991 L54,15.75 C54,12.02175 50.97825,9 47.25,9 L38.25,9 L38.25,4.5 C38.25,2.016 36.23625,0 33.75225,0 L20.25225,0 C17.766,0 15.75,2.016 15.75,4.5 L15.75,9 L6.75,9 C3.02175,9 0,12.02175 0,15.75 L0,60.75 C0,64.47825 3.02175,67.5 6.75,67.5 L42.11775,67.5 C45.29025,70.29225 49.43925,72 53.99775,72 C63.93825,72 72,63.93825 72,53.99325 C72,44.05275 63.9405,35.99325 54,35.991 Z M20.25,4.5 L33.75,4.5 L33.75,9 L20.25,9 L20.25,4.5 Z M4.5,60.75 L4.5,15.75 C4.5,14.508 5.508,13.5 6.75,13.5 L13.5,13.5 L13.5,15.75 C13.5,18.234 15.516,20.25 18.00225,20.25 L36.00225,20.25 C38.48625,20.25 40.5,18.234 40.5,15.75 L40.5,13.5 L47.25,13.5 C48.492,13.5 49.5,14.508 49.5,15.75 L49.5,36.5805 C44.7705,37.79775 40.80375,40.87575 38.41425,45 L13.49775,45 C12.25575,45 11.25,46.00575 11.25,47.25 C11.25,48.49425 12.25575,49.5 13.49775,49.5 L36.5805,49.5 C36.20925,50.94 35.991,52.44075 35.991,53.99325 C35.991,57.27825 36.88425,60.34725 38.421,63 L6.75,63 C5.508,63 4.5,61.992 4.5,60.75 Z M53.99775,67.99725 C46.27575,67.99725 39.99375,61.71525 39.99375,53.99325 C39.99375,46.2735 46.27575,39.99375 53.99775,39.99375 C61.7175,39.99375 67.99725,46.2735 67.99725,53.99325 C67.99725,61.71525 61.7175,67.99725 53.99775,67.99725 Z" id="Shape"></path>
                </g>
            </g>
        </g>
    </g>
</svg>