<?xml version="1.0" encoding="UTF-8"?>
<svg width="295px" height="295px" viewBox="0 0 295 295" version="1.1" xmlns="http://www.w3.org/2000/svg" xmlns:xlink="http://www.w3.org/1999/xlink">
    <!-- Generator: Sketch 48.2 (47327) - http://www.bohemiancoding.com/sketch -->
    <title>Group</title>
    <desc>Created with Sketch.</desc>
    <defs></defs>
    <g id="statistieken" stroke="none" stroke-width="1" fill="none" fill-rule="evenodd" transform="translate(-47.000000, -261.000000)">
        <g id="Group" transform="translate(47.000000, 261.000000)">
            <path d="M5.412,4.392 C5.83600212,4.592001 6.16199886,4.87799814 6.39,5.25 C6.61800114,5.62200186 6.732,6.05599752 6.732,6.552 C6.732,7.04800248 6.61600116,7.48399812 6.384,7.86 C6.15199884,8.23600188 5.82800208,8.52799896 5.412,8.736 C4.99599792,8.94400104 4.5280026,9.048 4.008,9.048 C2.9279946,9.048 2.10400284,8.67600372 1.536,7.932 C0.96799716,7.18799628 0.684,6.15200664 0.684,4.824 C0.684,3.89599536 0.83599848,3.11400318 1.14,2.478 C1.44400152,1.84199682 1.86799728,1.36200162 2.412,1.038 C2.95600272,0.71399838 3.59599632,0.552 4.332,0.552 C5.10000384,0.552 5.71199772,0.6919986 6.168,0.972 L5.988,1.296 C5.59599804,1.04799876 5.04400356,0.924 4.332,0.924 C3.331995,0.924 2.5420029,1.25199672 1.962,1.908 C1.3819971,2.56400328 1.092,3.51599376 1.092,4.764 C1.092,5.21200224 1.1319996,5.635998 1.212,6.036 C1.35600072,5.42799696 1.67599752,4.95200172 2.172,4.608 C2.66800248,4.26399828 3.25999656,4.092 3.948,4.092 C4.50000276,4.092 4.98799788,4.191999 5.412,4.392 Z M5.688,8.106 C6.12000216,7.71799806 6.336,7.2040032 6.336,6.564 C6.336,5.91599676 6.11800218,5.40000192 5.682,5.016 C5.24599782,4.63199808 4.65600372,4.44 3.912,4.44 C3.4319976,4.44 3.00600186,4.53399906 2.634,4.722 C2.26199814,4.91000094 1.97200104,5.16799836 1.764,5.496 C1.55599896,5.82400164 1.452,6.187998 1.452,6.588 C1.452,6.94000176 1.54999902,7.27799838 1.746,7.602 C1.94200098,7.92600162 2.23199808,8.187999 2.616,8.388 C3.00000192,8.588001 3.45999732,8.688 3.996,8.688 C4.69200348,8.688 5.25599784,8.49400194 5.688,8.106 Z M13.26,3.402 C13.7080022,3.85400226 13.932,4.4999958 13.932,5.34 L13.932,9 L13.536,9 L13.536,5.364 C13.536,4.62799632 13.3500019,4.06600194 12.978,3.678 C12.6059981,3.28999806 12.0760034,3.096 11.388,3.096 C10.6119961,3.096 10.0000022,3.3259977 9.552,3.786 C9.10399776,4.2460023 8.88,4.86399612 8.88,5.64 L8.88,9 L8.484,9 L8.484,0.096 L8.88,0.096 L8.88,4.26 C9.08800104,3.7799976 9.4119978,3.40400136 9.852,3.132 C10.2920022,2.85999864 10.815997,2.724 11.424,2.724 C12.2000039,2.724 12.8119978,2.94999774 13.26,3.402 Z M5.286,49.818 C5.83400274,50.2380021 6.108,50.8399961 6.108,51.624 C6.108,52.0880023 6.00000108,52.5039982 5.784,52.872 C5.56799892,53.2400018 5.24600214,53.527999 4.818,53.736 C4.38999786,53.944001 3.86800308,54.048 3.252,54.048 C2.64399696,54.048 2.07600264,53.9400011 1.548,53.724 C1.01999736,53.5079989 0.62000136,53.2280017 0.348,52.884 L0.576,52.596 C0.82400124,52.9160016 1.1879976,53.175999 1.668,53.376 C2.1480024,53.576001 2.67599712,53.676 3.252,53.676 C4.04400396,53.676 4.6499979,53.4880019 5.07,53.112 C5.4900021,52.7359981 5.7,52.2400031 5.7,51.624 C5.7,50.9439966 5.4600024,50.4300017 4.98,50.082 C4.4999976,49.7339983 3.68400576,49.56 2.532,49.56 L0.9,49.56 L1.344,45.6 L5.676,45.6 L5.676,45.972 L1.68,45.972 L1.32,49.188 L2.616,49.188 C3.84800616,49.188 4.73799726,49.3979979 5.286,49.818 Z M12.732,48.402 C13.1800022,48.8540023 13.404,49.4999958 13.404,50.34 L13.404,54 L13.008,54 L13.008,50.364 C13.008,49.6279963 12.8220019,49.0660019 12.45,48.678 C12.0779981,48.2899981 11.5480034,48.096 10.86,48.096 C10.0839961,48.096 9.47200224,48.3259977 9.024,48.786 C8.57599776,49.2460023 8.352,49.8639961 8.352,50.64 L8.352,54 L7.956,54 L7.956,45.096 L8.352,45.096 L8.352,49.26 C8.56000104,48.7799976 8.8839978,48.4040014 9.324,48.132 C9.7640022,47.8599986 10.287997,47.724 10.896,47.724 C11.6720039,47.724 12.2839978,47.9499977 12.732,48.402 Z M7.584,96.576 L5.76,96.576 L5.76,99 L5.364,99 L5.364,96.576 L0.54,96.576 L0.54,96.288 L5.184,90.6 L5.652,90.6 L1.068,96.216 L5.364,96.216 L5.364,94.08 L5.76,94.08 L5.76,96.216 L7.584,96.216 L7.584,96.576 Z M13.884,93.402 C14.3320022,93.8540023 14.556,94.4999958 14.556,95.34 L14.556,99 L14.16,99 L14.16,95.364 C14.16,94.6279963 13.9740019,94.0660019 13.602,93.678 C13.2299981,93.2899981 12.7000034,93.096 12.012,93.096 C11.2359961,93.096 10.6240022,93.3259977 10.176,93.786 C9.72799776,94.2460023 9.504,94.8639961 9.504,95.64 L9.504,99 L9.108,99 L9.108,90.096 L9.504,90.096 L9.504,94.26 C9.71200104,93.7799976 10.0359978,93.4040014 10.476,93.132 C10.9160022,92.8599986 11.439997,92.724 12.048,92.724 C12.8240039,92.724 13.4359978,92.9499977 13.884,93.402 Z M5.202,139.944 C5.7020025,140.368002 5.952,140.943996 5.952,141.672 C5.952,142.384004 5.70600246,142.957998 5.214,143.394 C4.72199754,143.830002 4.02400452,144.048 3.12,144.048 C2.50399692,144.048 1.93200264,143.942001 1.404,143.73 C0.87599736,143.517999 0.47600136,143.236002 0.204,142.884 L0.42,142.596 C0.67600128,142.916002 1.04199762,143.175999 1.518,143.376 C1.99400238,143.576001 2.52399708,143.676 3.108,143.676 C3.90000396,143.676 4.5059979,143.496002 4.926,143.136 C5.3460021,142.775998 5.556,142.288003 5.556,141.672 C5.556,141.039997 5.34000216,140.548002 4.908,140.196 C4.47599784,139.843998 3.82800432,139.668 2.964,139.668 L2.496,139.668 L2.496,139.38 L5.112,135.972 L0.48,135.972 L0.48,135.6 L5.64,135.6 L5.64,135.888 L3.012,139.308 C3.9720048,139.308 4.7019975,139.519998 5.202,139.944 Z M12.732,138.402 C13.1800022,138.854002 13.404,139.499996 13.404,140.34 L13.404,144 L13.008,144 L13.008,140.364 C13.008,139.627996 12.8220019,139.066002 12.45,138.678 C12.0779981,138.289998 11.5480034,138.096 10.86,138.096 C10.0839961,138.096 9.47200224,138.325998 9.024,138.786 C8.57599776,139.246002 8.352,139.863996 8.352,140.64 L8.352,144 L7.956,144 L7.956,135.096 L8.352,135.096 L8.352,139.26 C8.56000104,138.779998 8.8839978,138.404001 9.324,138.132 C9.7640022,137.859999 10.287997,137.724 10.896,137.724 C11.6720039,137.724 12.2839978,137.949998 12.732,138.402 Z M6.192,188.628 L6.192,189 L0.504,189 L0.504,188.712 L4.104,185.088 C4.59200244,184.599998 4.92199914,184.182002 5.094,183.834 C5.26600086,183.485998 5.352,183.128002 5.352,182.76 C5.352,182.191997 5.15800194,181.744002 4.77,181.416 C4.38199806,181.087998 3.8280036,180.924 3.108,180.924 C2.5479972,180.924 2.06200206,181.005999 1.65,181.17 C1.23799794,181.334001 0.88400148,181.587998 0.588,181.932 L0.312,181.668 C0.96000324,180.923996 1.89599388,180.552 3.12,180.552 C3.92800404,180.552 4.56799764,180.747998 5.04,181.14 C5.51200236,181.532002 5.748,182.063997 5.748,182.736 C5.748,183.160002 5.65200096,183.567998 5.46,183.96 C5.26799904,184.352002 4.9120026,184.807997 4.392,185.328 L1.116,188.628 L6.192,188.628 Z M12.804,183.402 C13.2520022,183.854002 13.476,184.499996 13.476,185.34 L13.476,189 L13.08,189 L13.08,185.364 C13.08,184.627996 12.8940019,184.066002 12.522,183.678 C12.1499981,183.289998 11.6200034,183.096 10.932,183.096 C10.1559961,183.096 9.54400224,183.325998 9.096,183.786 C8.64799776,184.246002 8.424,184.863996 8.424,185.64 L8.424,189 L8.028,189 L8.028,180.096 L8.424,180.096 L8.424,184.26 C8.63200104,183.779998 8.9559978,183.404001 9.396,183.132 C9.8360022,182.859999 10.359997,182.724 10.968,182.724 C11.7440039,182.724 12.3559978,182.949998 12.804,183.402 Z M2.628,225.6 L2.628,234 L2.232,234 L2.232,225.972 L0.12,225.972 L0.12,225.6 L2.628,225.6 Z M10.272,228.402 C10.7200022,228.854002 10.944,229.499996 10.944,230.34 L10.944,234 L10.548,234 L10.548,230.364 C10.548,229.627996 10.3620019,229.066002 9.99,228.678 C9.61799814,228.289998 9.08800344,228.096 8.4,228.096 C7.62399612,228.096 7.01200224,228.325998 6.564,228.786 C6.11599776,229.246002 5.892,229.863996 5.892,230.64 L5.892,234 L5.496,234 L5.496,225.096 L5.892,225.096 L5.892,229.26 C6.10000104,228.779998 6.4239978,228.404001 6.864,228.132 C7.3040022,227.859999 7.82799696,227.724 8.436,227.724 C9.21200388,227.724 9.82399776,227.949998 10.272,228.402 Z M2.238,278.526 C1.74599754,278.177998 1.36400136,277.682003 1.092,277.038 C0.81999864,276.393997 0.684,275.648004 0.684,274.8 C0.684,273.951996 0.81999864,273.206003 1.092,272.562 C1.36400136,271.917997 1.74599754,271.422002 2.238,271.074 C2.73000246,270.725998 3.29199684,270.552 3.924,270.552 C4.5640032,270.552 5.12799756,270.725998 5.616,271.074 C6.10400244,271.422002 6.48399864,271.917997 6.756,272.562 C7.02800136,273.206003 7.164,273.951996 7.164,274.8 C7.164,275.648004 7.02800136,276.393997 6.756,277.038 C6.48399864,277.682003 6.10400244,278.177998 5.616,278.526 C5.12799756,278.874002 4.5640032,279.048 3.924,279.048 C3.29199684,279.048 2.73000246,278.874002 2.238,278.526 Z M5.412,278.208 C5.84400216,277.895998 6.17799882,277.448003 6.414,276.864 C6.65000118,276.279997 6.768,275.592004 6.768,274.8 C6.768,274.007996 6.65000118,273.320003 6.414,272.736 C6.17799882,272.151997 5.84400216,271.704002 5.412,271.392 C4.97999784,271.079998 4.4840028,270.924 3.924,270.924 C3.3639972,270.924 2.87000214,271.079998 2.442,271.392 C2.01399786,271.704002 1.68200118,272.151997 1.446,272.736 C1.20999882,273.320003 1.092,274.007996 1.092,274.8 C1.092,275.592004 1.20999882,276.279997 1.446,276.864 C1.68200118,277.448003 2.01399786,277.895998 2.442,278.208 C2.87000214,278.520002 3.3639972,278.676 3.924,278.676 C4.4840028,278.676 4.97999784,278.520002 5.412,278.208 Z M13.968,273.402 C14.4160022,273.854002 14.64,274.499996 14.64,275.34 L14.64,279 L14.244,279 L14.244,275.364 C14.244,274.627996 14.0580019,274.066002 13.686,273.678 C13.3139981,273.289998 12.7840034,273.096 12.096,273.096 C11.3199961,273.096 10.7080022,273.325998 10.26,273.786 C9.81199776,274.246002 9.588,274.863996 9.588,275.64 L9.588,279 L9.192,279 L9.192,270.096 L9.588,270.096 L9.588,274.26 C9.79600104,273.779998 10.1199978,273.404001 10.56,273.132 C11.0000022,272.859999 11.523997,272.724 12.132,272.724 C12.9080039,272.724 13.5199978,272.949998 13.968,273.402 Z M24.408,293.628 L24.408,294 L18.72,294 L18.72,293.712 L22.32,290.088 C22.8080024,289.599998 23.1379991,289.182002 23.31,288.834 C23.4820009,288.485998 23.568,288.128002 23.568,287.76 C23.568,287.191997 23.3740019,286.744002 22.986,286.416 C22.5979981,286.087998 22.0440036,285.924 21.324,285.924 C20.7639972,285.924 20.2780021,286.005999 19.866,286.17 C19.4539979,286.334001 19.1000015,286.587998 18.804,286.932 L18.528,286.668 C19.1760032,285.923996 20.1119939,285.552 21.336,285.552 C22.144004,285.552 22.7839976,285.747998 23.256,286.14 C23.7280024,286.532002 23.964,287.063997 23.964,287.736 C23.964,288.160002 23.868001,288.567998 23.676,288.96 C23.483999,289.352002 23.1280026,289.807997 22.608,290.328 L19.332,293.628 L24.408,293.628 Z M30.198,289.818 C30.7460027,290.238002 31.02,290.839996 31.02,291.624 C31.02,292.088002 30.9120011,292.503998 30.696,292.872 C30.4799989,293.240002 30.1580021,293.527999 29.73,293.736 C29.3019979,293.944001 28.7800031,294.048 28.164,294.048 C27.555997,294.048 26.9880026,293.940001 26.46,293.724 C25.9319974,293.507999 25.5320014,293.228002 25.26,292.884 L25.488,292.596 C25.7360012,292.916002 26.0999976,293.175999 26.58,293.376 C27.0600024,293.576001 27.5879971,293.676 28.164,293.676 C28.956004,293.676 29.5619979,293.488002 29.982,293.112 C30.4020021,292.735998 30.612,292.240003 30.612,291.624 C30.612,290.943997 30.3720024,290.430002 29.892,290.082 C29.4119976,289.733998 28.5960058,289.56 27.444,289.56 L25.812,289.56 L26.256,285.6 L30.588,285.6 L30.588,285.972 L26.592,285.972 L26.232,289.188 L27.528,289.188 C28.7600062,289.188 29.6499973,289.397998 30.198,289.818 Z M37.156,286.58 L37.156,294 L36.836,294 L36.836,292.58 C36.6426657,293.033336 36.3476686,293.388332 35.951,293.645 C35.5543314,293.901668 35.1026692,294.03 34.596,294.03 C34.1226643,294.03 33.6926686,293.918334 33.306,293.695 C32.9193314,293.471666 32.6143345,293.160002 32.391,292.76 C32.1676656,292.359998 32.056,291.906669 32.056,291.4 C32.056,290.893331 32.1676656,290.440002 32.391,290.04 C32.6143345,289.639998 32.9193314,289.328334 33.306,289.105 C33.6926686,288.881666 34.1226643,288.77 34.596,288.77 C35.0960025,288.77 35.5443314,288.896665 35.941,289.15 C36.3376687,289.403335 36.6326657,289.753331 36.826,290.2 L36.826,286.58 L37.156,286.58 Z M35.741,293.435 C36.0776684,293.238332 36.3426657,292.963335 36.536,292.61 C36.7293343,292.256665 36.826,291.853336 36.826,291.4 C36.826,290.946664 36.7293343,290.545002 36.536,290.195 C36.3426657,289.844998 36.0776684,289.571668 35.741,289.375 C35.4043317,289.178332 35.0260021,289.08 34.606,289.08 C34.1859979,289.08 33.8076684,289.178332 33.471,289.375 C33.1343317,289.571668 32.8693343,289.844998 32.676,290.195 C32.4826657,290.545002 32.386,290.946664 32.386,291.4 C32.386,291.853336 32.4826657,292.256665 32.676,292.61 C32.8693343,292.963335 33.1343317,293.238332 33.471,293.435 C33.8076684,293.631668 34.1859979,293.73 34.606,293.73 C35.0260021,293.73 35.4043317,293.631668 35.741,293.435 Z M43.656,291.45 L39.106,291.45 C39.1126667,291.890002 39.215999,292.283332 39.416,292.63 C39.616001,292.976668 39.8909983,293.246666 40.241,293.44 C40.5910018,293.633334 40.9826645,293.73 41.416,293.73 C41.7693351,293.73 42.0959985,293.665001 42.396,293.535 C42.6960015,293.404999 42.9426657,293.213335 43.136,292.96 L43.346,293.18 C43.1126655,293.453335 42.829335,293.663333 42.496,293.81 C42.162665,293.956667 41.8026686,294.03 41.416,294.03 C40.9093308,294.03 40.4576687,293.918334 40.061,293.695 C39.6643314,293.471666 39.3526678,293.160002 39.126,292.76 C38.8993322,292.359998 38.786,291.906669 38.786,291.4 C38.786,290.893331 38.890999,290.440002 39.101,290.04 C39.3110011,289.639998 39.6026648,289.328334 39.976,289.105 C40.3493352,288.881666 40.7659977,288.77 41.226,288.77 C41.6793356,288.77 42.0909982,288.879999 42.461,289.1 C42.8310019,289.320001 43.1226656,289.626665 43.336,290.02 C43.5493344,290.413335 43.656,290.859998 43.656,291.36 L43.656,291.45 Z M40.176,289.34 C39.8626651,289.520001 39.6126676,289.771665 39.426,290.095 C39.2393324,290.418335 39.1360001,290.779998 39.116,291.18 L43.346,291.18 C43.3193332,290.779998 43.211001,290.418335 43.021,290.095 C42.8309991,289.771665 42.5810016,289.520001 42.271,289.34 C41.9609985,289.159999 41.6126686,289.07 41.226,289.07 C40.8393314,289.07 40.4893349,289.159999 40.176,289.34 Z M45.951,293.695 C45.5609981,293.471666 45.2543345,293.160002 45.031,292.76 C44.8076656,292.359998 44.696,291.906669 44.696,291.4 C44.696,290.893331 44.8076656,290.440002 45.031,290.04 C45.2543345,289.639998 45.5609981,289.328334 45.951,289.105 C46.3410019,288.881666 46.7826642,288.77 47.276,288.77 C47.6693353,288.77 48.0343316,288.844999 48.371,288.995 C48.7076684,289.145001 48.9826656,289.366665 49.196,289.66 L48.946,289.87 C48.7593324,289.609999 48.5210014,289.413334 48.231,289.28 C47.9409986,289.146666 47.6226684,289.08 47.276,289.08 C46.8493312,289.08 46.4643351,289.178332 46.121,289.375 C45.777665,289.571668 45.5093343,289.844998 45.316,290.195 C45.1226657,290.545002 45.026,290.946664 45.026,291.4 C45.026,291.853336 45.1226657,292.256665 45.316,292.61 C45.5093343,292.963335 45.777665,293.238332 46.121,293.435 C46.4643351,293.631668 46.8493312,293.73 47.276,293.73 C47.6226684,293.73 47.9409986,293.663334 48.231,293.53 C48.5210014,293.396666 48.7593324,293.200001 48.946,292.94 L49.196,293.14 C48.9826656,293.433335 48.7076684,293.654999 48.371,293.805 C48.0343316,293.955001 47.6693353,294.03 47.276,294.03 C46.7826642,294.03 46.3410019,293.918334 45.951,293.695 Z M67.496,293.628 L67.496,294 L61.808,294 L61.808,293.712 L65.408,290.088 C65.8960024,289.599998 66.2259991,289.182002 66.398,288.834 C66.5700009,288.485998 66.656,288.128002 66.656,287.76 C66.656,287.191997 66.4620019,286.744002 66.074,286.416 C65.6859981,286.087998 65.1320036,285.924 64.412,285.924 C63.8519972,285.924 63.3660021,286.005999 62.954,286.17 C62.5419979,286.334001 62.1880015,286.587998 61.892,286.932 L61.616,286.668 C62.2640032,285.923996 63.1999939,285.552 64.424,285.552 C65.232004,285.552 65.8719976,285.747998 66.344,286.14 C66.8160024,286.532002 67.052,287.063997 67.052,287.736 C67.052,288.160002 66.956001,288.567998 66.764,288.96 C66.571999,289.352002 66.2160026,289.807997 65.696,290.328 L62.42,293.628 L67.496,293.628 Z M73.412,289.392 C73.8360021,289.592001 74.1619989,289.877998 74.39,290.25 C74.6180011,290.622002 74.732,291.055998 74.732,291.552 C74.732,292.048002 74.6160012,292.483998 74.384,292.86 C74.1519988,293.236002 73.8280021,293.527999 73.412,293.736 C72.9959979,293.944001 72.5280026,294.048 72.008,294.048 C70.9279946,294.048 70.1040028,293.676004 69.536,292.932 C68.9679972,292.187996 68.684,291.152007 68.684,289.824 C68.684,288.895995 68.8359985,288.114003 69.14,287.478 C69.4440015,286.841997 69.8679973,286.362002 70.412,286.038 C70.9560027,285.713998 71.5959963,285.552 72.332,285.552 C73.1000038,285.552 73.7119977,285.691999 74.168,285.972 L73.988,286.296 C73.595998,286.047999 73.0440036,285.924 72.332,285.924 C71.331995,285.924 70.5420029,286.251997 69.962,286.908 C69.3819971,287.564003 69.092,288.515994 69.092,289.764 C69.092,290.212002 69.1319996,290.635998 69.212,291.036 C69.3560007,290.427997 69.6759975,289.952002 70.172,289.608 C70.6680025,289.263998 71.2599966,289.092 71.948,289.092 C72.5000028,289.092 72.9879979,289.191999 73.412,289.392 Z M73.688,293.106 C74.1200022,292.717998 74.336,292.204003 74.336,291.564 C74.336,290.915997 74.1180022,290.400002 73.682,290.016 C73.2459978,289.631998 72.6560037,289.44 71.912,289.44 C71.4319976,289.44 71.0060019,289.533999 70.634,289.722 C70.2619981,289.910001 69.972001,290.167998 69.764,290.496 C69.555999,290.824002 69.452,291.187998 69.452,291.588 C69.452,291.940002 69.549999,292.277998 69.746,292.602 C69.942001,292.926002 70.2319981,293.187999 70.616,293.388 C71.0000019,293.588001 71.4599973,293.688 71.996,293.688 C72.6920035,293.688 73.2559978,293.494002 73.688,293.106 Z M80.772,286.58 L80.772,294 L80.452,294 L80.452,292.58 C80.2586657,293.033336 79.9636687,293.388332 79.567,293.645 C79.1703313,293.901668 78.7186692,294.03 78.212,294.03 C77.7386643,294.03 77.3086686,293.918334 76.922,293.695 C76.5353314,293.471666 76.2303345,293.160002 76.007,292.76 C75.7836656,292.359998 75.672,291.906669 75.672,291.4 C75.672,290.893331 75.7836656,290.440002 76.007,290.04 C76.2303345,289.639998 76.5353314,289.328334 76.922,289.105 C77.3086686,288.881666 77.7386643,288.77 78.212,288.77 C78.7120025,288.77 79.1603313,288.896665 79.557,289.15 C79.9536686,289.403335 80.2486657,289.753331 80.442,290.2 L80.442,286.58 L80.772,286.58 Z M79.357,293.435 C79.6936684,293.238332 79.9586657,292.963335 80.152,292.61 C80.3453343,292.256665 80.442,291.853336 80.442,291.4 C80.442,290.946664 80.3453343,290.545002 80.152,290.195 C79.9586657,289.844998 79.6936684,289.571668 79.357,289.375 C79.0203317,289.178332 78.6420021,289.08 78.222,289.08 C77.8019979,289.08 77.4236684,289.178332 77.087,289.375 C76.7503317,289.571668 76.4853343,289.844998 76.292,290.195 C76.0986657,290.545002 76.002,290.946664 76.002,291.4 C76.002,291.853336 76.0986657,292.256665 76.292,292.61 C76.4853343,292.963335 76.7503317,293.238332 77.087,293.435 C77.4236684,293.631668 77.8019979,293.73 78.222,293.73 C78.6420021,293.73 79.0203317,293.631668 79.357,293.435 Z M87.272,291.45 L82.722,291.45 C82.7286667,291.890002 82.831999,292.283332 83.032,292.63 C83.232001,292.976668 83.5069983,293.246666 83.857,293.44 C84.2070018,293.633334 84.5986645,293.73 85.032,293.73 C85.3853351,293.73 85.7119985,293.665001 86.012,293.535 C86.3120015,293.404999 86.5586657,293.213335 86.752,292.96 L86.962,293.18 C86.7286655,293.453335 86.445335,293.663333 86.112,293.81 C85.778665,293.956667 85.4186686,294.03 85.032,294.03 C84.5253308,294.03 84.0736687,293.918334 83.677,293.695 C83.2803314,293.471666 82.9686678,293.160002 82.742,292.76 C82.5153322,292.359998 82.402,291.906669 82.402,291.4 C82.402,290.893331 82.506999,290.440002 82.717,290.04 C82.9270011,289.639998 83.2186648,289.328334 83.592,289.105 C83.9653352,288.881666 84.3819977,288.77 84.842,288.77 C85.2953356,288.77 85.7069982,288.879999 86.077,289.1 C86.4470019,289.320001 86.7386656,289.626665 86.952,290.02 C87.1653344,290.413335 87.272,290.859998 87.272,291.36 L87.272,291.45 Z M83.792,289.34 C83.4786651,289.520001 83.2286676,289.771665 83.042,290.095 C82.8553324,290.418335 82.7520001,290.779998 82.732,291.18 L86.962,291.18 C86.9353332,290.779998 86.8270009,290.418335 86.637,290.095 C86.4469991,289.771665 86.1970015,289.520001 85.887,289.34 C85.5769985,289.159999 85.2286686,289.07 84.842,289.07 C84.4553314,289.07 84.1053349,289.159999 83.792,289.34 Z M89.567,293.695 C89.1769981,293.471666 88.8703345,293.160002 88.647,292.76 C88.4236656,292.359998 88.312,291.906669 88.312,291.4 C88.312,290.893331 88.4236656,290.440002 88.647,290.04 C88.8703345,289.639998 89.1769981,289.328334 89.567,289.105 C89.957002,288.881666 90.3986642,288.77 90.892,288.77 C91.2853353,288.77 91.6503317,288.844999 91.987,288.995 C92.3236684,289.145001 92.5986656,289.366665 92.812,289.66 L92.562,289.87 C92.3753324,289.609999 92.1370015,289.413334 91.847,289.28 C91.5569986,289.146666 91.2386684,289.08 90.892,289.08 C90.4653312,289.08 90.0803351,289.178332 89.737,289.375 C89.393665,289.571668 89.1253343,289.844998 88.932,290.195 C88.7386657,290.545002 88.642,290.946664 88.642,291.4 C88.642,291.853336 88.7386657,292.256665 88.932,292.61 C89.1253343,292.963335 89.393665,293.238332 89.737,293.435 C90.0803351,293.631668 90.4653312,293.73 90.892,293.73 C91.2386684,293.73 91.5569986,293.663334 91.847,293.53 C92.1370015,293.396666 92.3753324,293.200001 92.562,292.94 L92.812,293.14 C92.5986656,293.433335 92.3236684,293.654999 91.987,293.805 C91.6503317,293.955001 91.2853353,294.03 90.892,294.03 C90.3986642,294.03 89.957002,293.918334 89.567,293.695 Z M108.582,293.628 L108.582,294 L102.894,294 L102.894,293.712 L106.494,290.088 C106.982002,289.599998 107.311999,289.182002 107.484,288.834 C107.656001,288.485998 107.742,288.128002 107.742,287.76 C107.742,287.191997 107.548002,286.744002 107.16,286.416 C106.771998,286.087998 106.218004,285.924 105.498,285.924 C104.937997,285.924 104.452002,286.005999 104.04,286.17 C103.627998,286.334001 103.274001,286.587998 102.978,286.932 L102.702,286.668 C103.350003,285.923996 104.285994,285.552 105.51,285.552 C106.318004,285.552 106.957998,285.747998 107.43,286.14 C107.902002,286.532002 108.138,287.063997 108.138,287.736 C108.138,288.160002 108.042001,288.567998 107.85,288.96 C107.657999,289.352002 107.302003,289.807997 106.782,290.328 L103.506,293.628 L108.582,293.628 Z M115.422,285.6 L115.422,285.888 L111.726,294 L111.282,294 L114.954,285.972 L109.902,285.972 L109.902,287.628 L109.506,287.628 L109.506,285.6 L115.422,285.6 Z M121.606,286.58 L121.606,294 L121.286,294 L121.286,292.58 C121.092666,293.033336 120.797669,293.388332 120.401,293.645 C120.004331,293.901668 119.552669,294.03 119.046,294.03 C118.572664,294.03 118.142669,293.918334 117.756,293.695 C117.369331,293.471666 117.064334,293.160002 116.841,292.76 C116.617666,292.359998 116.506,291.906669 116.506,291.4 C116.506,290.893331 116.617666,290.440002 116.841,290.04 C117.064334,289.639998 117.369331,289.328334 117.756,289.105 C118.142669,288.881666 118.572664,288.77 119.046,288.77 C119.546003,288.77 119.994331,288.896665 120.391,289.15 C120.787669,289.403335 121.082666,289.753331 121.276,290.2 L121.276,286.58 L121.606,286.58 Z M120.191,293.435 C120.527668,293.238332 120.792666,292.963335 120.986,292.61 C121.179334,292.256665 121.276,291.853336 121.276,291.4 C121.276,290.946664 121.179334,290.545002 120.986,290.195 C120.792666,289.844998 120.527668,289.571668 120.191,289.375 C119.854332,289.178332 119.476002,289.08 119.056,289.08 C118.635998,289.08 118.257668,289.178332 117.921,289.375 C117.584332,289.571668 117.319334,289.844998 117.126,290.195 C116.932666,290.545002 116.836,290.946664 116.836,291.4 C116.836,291.853336 116.932666,292.256665 117.126,292.61 C117.319334,292.963335 117.584332,293.238332 117.921,293.435 C118.257668,293.631668 118.635998,293.73 119.056,293.73 C119.476002,293.73 119.854332,293.631668 120.191,293.435 Z M128.106,291.45 L123.556,291.45 C123.562667,291.890002 123.665999,292.283332 123.866,292.63 C124.066001,292.976668 124.340998,293.246666 124.691,293.44 C125.041002,293.633334 125.432665,293.73 125.866,293.73 C126.219335,293.73 126.545999,293.665001 126.846,293.535 C127.146002,293.404999 127.392666,293.213335 127.586,292.96 L127.796,293.18 C127.562666,293.453335 127.279335,293.663333 126.946,293.81 C126.612665,293.956667 126.252669,294.03 125.866,294.03 C125.359331,294.03 124.907669,293.918334 124.511,293.695 C124.114331,293.471666 123.802668,293.160002 123.576,292.76 C123.349332,292.359998 123.236,291.906669 123.236,291.4 C123.236,290.893331 123.340999,290.440002 123.551,290.04 C123.761001,289.639998 124.052665,289.328334 124.426,289.105 C124.799335,288.881666 125.215998,288.77 125.676,288.77 C126.129336,288.77 126.540998,288.879999 126.911,289.1 C127.281002,289.320001 127.572666,289.626665 127.786,290.02 C127.999334,290.413335 128.106,290.859998 128.106,291.36 L128.106,291.45 Z M124.626,289.34 C124.312665,289.520001 124.062668,289.771665 123.876,290.095 C123.689332,290.418335 123.586,290.779998 123.566,291.18 L127.796,291.18 C127.769333,290.779998 127.661001,290.418335 127.471,290.095 C127.280999,289.771665 127.031002,289.520001 126.721,289.34 C126.410998,289.159999 126.062669,289.07 125.676,289.07 C125.289331,289.07 124.939335,289.159999 124.626,289.34 Z M130.401,293.695 C130.010998,293.471666 129.704334,293.160002 129.481,292.76 C129.257666,292.359998 129.146,291.906669 129.146,291.4 C129.146,290.893331 129.257666,290.440002 129.481,290.04 C129.704334,289.639998 130.010998,289.328334 130.401,289.105 C130.791002,288.881666 131.232664,288.77 131.726,288.77 C132.119335,288.77 132.484332,288.844999 132.821,288.995 C133.157668,289.145001 133.432666,289.366665 133.646,289.66 L133.396,289.87 C133.209332,289.609999 132.971001,289.413334 132.681,289.28 C132.390999,289.146666 132.072668,289.08 131.726,289.08 C131.299331,289.08 130.914335,289.178332 130.571,289.375 C130.227665,289.571668 129.959334,289.844998 129.766,290.195 C129.572666,290.545002 129.476,290.946664 129.476,291.4 C129.476,291.853336 129.572666,292.256665 129.766,292.61 C129.959334,292.963335 130.227665,293.238332 130.571,293.435 C130.914335,293.631668 131.299331,293.73 131.726,293.73 C132.072668,293.73 132.390999,293.663334 132.681,293.53 C132.971001,293.396666 133.209332,293.200001 133.396,292.94 L133.646,293.14 C133.432666,293.433335 133.157668,293.654999 132.821,293.805 C132.484332,293.955001 132.119335,294.03 131.726,294.03 C131.232664,294.03 130.791002,293.918334 130.401,293.695 Z M149.416,293.628 L149.416,294 L143.728,294 L143.728,293.712 L147.328,290.088 C147.816002,289.599998 148.145999,289.182002 148.318,288.834 C148.490001,288.485998 148.576,288.128002 148.576,287.76 C148.576,287.191997 148.382002,286.744002 147.994,286.416 C147.605998,286.087998 147.052004,285.924 146.332,285.924 C145.771997,285.924 145.286002,286.005999 144.874,286.17 C144.461998,286.334001 144.108001,286.587998 143.812,286.932 L143.536,286.668 C144.184003,285.923996 145.119994,285.552 146.344,285.552 C147.152004,285.552 147.791998,285.747998 148.264,286.14 C148.736002,286.532002 148.972,287.063997 148.972,287.736 C148.972,288.160002 148.876001,288.567998 148.684,288.96 C148.491999,289.352002 148.136003,289.807997 147.616,290.328 L144.34,293.628 L149.416,293.628 Z M156.286,290.364 C156.634002,290.732002 156.808,291.183997 156.808,291.72 C156.808,292.440004 156.530003,293.007998 155.974,293.424 C155.417997,293.840002 154.652005,294.048 153.676,294.048 C152.699995,294.048 151.936003,293.840002 151.384,293.424 C150.831997,293.007998 150.556,292.440004 150.556,291.72 C150.556,291.175997 150.725998,290.722002 151.066,290.358 C151.406002,289.993998 151.895997,289.744001 152.536,289.608 C151.999997,289.479999 151.586001,289.248002 151.294,288.912 C151.001999,288.575998 150.856,288.168002 150.856,287.688 C150.856,287.031997 151.109997,286.512002 151.618,286.128 C152.126003,285.743998 152.811996,285.552 153.676,285.552 C154.540004,285.552 155.227997,285.743998 155.74,286.128 C156.252003,286.512002 156.508,287.031997 156.508,287.688 C156.508,288.168002 156.362001,288.575998 156.07,288.912 C155.777999,289.248002 155.360003,289.479999 154.816,289.608 C155.448003,289.744001 155.937998,289.995998 156.286,290.364 Z M151.9,288.966 C152.324002,289.282002 152.915996,289.44 153.676,289.44 C154.436004,289.44 155.031998,289.282002 155.464,288.966 C155.896002,288.649998 156.112,288.224003 156.112,287.688 C156.112,287.143997 155.892002,286.712002 155.452,286.392 C155.011998,286.071998 154.420004,285.912 153.676,285.912 C152.931996,285.912 152.344002,286.071998 151.912,286.392 C151.479998,286.712002 151.264,287.143997 151.264,287.688 C151.264,288.224003 151.475998,288.649998 151.9,288.966 Z M155.686,293.16 C156.170002,292.807998 156.412,292.332003 156.412,291.732 C156.412,291.131997 156.170002,290.658002 155.686,290.31 C155.201998,289.961998 154.532004,289.788 153.676,289.788 C152.819996,289.788 152.154002,289.961998 151.678,290.31 C151.201998,290.658002 150.964,291.131997 150.964,291.732 C150.964,292.340003 151.201998,292.817998 151.678,293.166 C152.154002,293.514002 152.819996,293.688 153.676,293.688 C154.532004,293.688 155.201998,293.512002 155.686,293.16 Z M163.064,286.58 L163.064,294 L162.744,294 L162.744,292.58 C162.550666,293.033336 162.255669,293.388332 161.859,293.645 C161.462331,293.901668 161.010669,294.03 160.504,294.03 C160.030664,294.03 159.600669,293.918334 159.214,293.695 C158.827331,293.471666 158.522334,293.160002 158.299,292.76 C158.075666,292.359998 157.964,291.906669 157.964,291.4 C157.964,290.893331 158.075666,290.440002 158.299,290.04 C158.522334,289.639998 158.827331,289.328334 159.214,289.105 C159.600669,288.881666 160.030664,288.77 160.504,288.77 C161.004002,288.77 161.452331,288.896665 161.849,289.15 C162.245669,289.403335 162.540666,289.753331 162.734,290.2 L162.734,286.58 L163.064,286.58 Z M161.649,293.435 C161.985668,293.238332 162.250666,292.963335 162.444,292.61 C162.637334,292.256665 162.734,291.853336 162.734,291.4 C162.734,290.946664 162.637334,290.545002 162.444,290.195 C162.250666,289.844998 161.985668,289.571668 161.649,289.375 C161.312332,289.178332 160.934002,289.08 160.514,289.08 C160.093998,289.08 159.715668,289.178332 159.379,289.375 C159.042332,289.571668 158.777334,289.844998 158.584,290.195 C158.390666,290.545002 158.294,290.946664 158.294,291.4 C158.294,291.853336 158.390666,292.256665 158.584,292.61 C158.777334,292.963335 159.042332,293.238332 159.379,293.435 C159.715668,293.631668 160.093998,293.73 160.514,293.73 C160.934002,293.73 161.312332,293.631668 161.649,293.435 Z M169.564,291.45 L165.014,291.45 C165.020667,291.890002 165.123999,292.283332 165.324,292.63 C165.524001,292.976668 165.798998,293.246666 166.149,293.44 C166.499002,293.633334 166.890665,293.73 167.324,293.73 C167.677335,293.73 168.003998,293.665001 168.304,293.535 C168.604002,293.404999 168.850666,293.213335 169.044,292.96 L169.254,293.18 C169.020666,293.453335 168.737335,293.663333 168.404,293.81 C168.070665,293.956667 167.710669,294.03 167.324,294.03 C166.817331,294.03 166.365669,293.918334 165.969,293.695 C165.572331,293.471666 165.260668,293.160002 165.034,292.76 C164.807332,292.359998 164.694,291.906669 164.694,291.4 C164.694,290.893331 164.798999,290.440002 165.009,290.04 C165.219001,289.639998 165.510665,289.328334 165.884,289.105 C166.257335,288.881666 166.673998,288.77 167.134,288.77 C167.587336,288.77 167.998998,288.879999 168.369,289.1 C168.739002,289.320001 169.030666,289.626665 169.244,290.02 C169.457334,290.413335 169.564,290.859998 169.564,291.36 L169.564,291.45 Z M166.084,289.34 C165.770665,289.520001 165.520668,289.771665 165.334,290.095 C165.147332,290.418335 165.044,290.779998 165.024,291.18 L169.254,291.18 C169.227333,290.779998 169.119001,290.418335 168.929,290.095 C168.738999,289.771665 168.489002,289.520001 168.179,289.34 C167.868998,289.159999 167.520669,289.07 167.134,289.07 C166.747331,289.07 166.397335,289.159999 166.084,289.34 Z M171.859,293.695 C171.468998,293.471666 171.162334,293.160002 170.939,292.76 C170.715666,292.359998 170.604,291.906669 170.604,291.4 C170.604,290.893331 170.715666,290.440002 170.939,290.04 C171.162334,289.639998 171.468998,289.328334 171.859,289.105 C172.249002,288.881666 172.690664,288.77 173.184,288.77 C173.577335,288.77 173.942332,288.844999 174.279,288.995 C174.615668,289.145001 174.890666,289.366665 175.104,289.66 L174.854,289.87 C174.667332,289.609999 174.429001,289.413334 174.139,289.28 C173.848999,289.146666 173.530668,289.08 173.184,289.08 C172.757331,289.08 172.372335,289.178332 172.029,289.375 C171.685665,289.571668 171.417334,289.844998 171.224,290.195 C171.030666,290.545002 170.934,290.946664 170.934,291.4 C170.934,291.853336 171.030666,292.256665 171.224,292.61 C171.417334,292.963335 171.685665,293.238332 172.029,293.435 C172.372335,293.631668 172.757331,293.73 173.184,293.73 C173.530668,293.73 173.848999,293.663334 174.139,293.53 C174.429001,293.396666 174.667332,293.200001 174.854,292.94 L175.104,293.14 C174.890666,293.433335 174.615668,293.654999 174.279,293.805 C173.942332,293.955001 173.577335,294.03 173.184,294.03 C172.690664,294.03 172.249002,293.918334 171.859,293.695 Z M189.862,293.628 L189.862,294 L184.174,294 L184.174,293.712 L187.774,290.088 C188.262002,289.599998 188.591999,289.182002 188.764,288.834 C188.936001,288.485998 189.022,288.128002 189.022,287.76 C189.022,287.191997 188.828002,286.744002 188.44,286.416 C188.051998,286.087998 187.498004,285.924 186.778,285.924 C186.217997,285.924 185.732002,286.005999 185.32,286.17 C184.907998,286.334001 184.554001,286.587998 184.258,286.932 L183.982,286.668 C184.630003,285.923996 185.565994,285.552 186.79,285.552 C187.598004,285.552 188.237998,285.747998 188.71,286.14 C189.182002,286.532002 189.418,287.063997 189.418,287.736 C189.418,288.160002 189.322001,288.567998 189.13,288.96 C188.937999,289.352002 188.582003,289.807997 188.062,290.328 L184.786,293.628 L189.862,293.628 Z M195.988,286.668 C196.552003,287.412004 196.834,288.447993 196.834,289.776 C196.834,290.704005 196.684002,291.485997 196.384,292.122 C196.083999,292.758003 195.662003,293.237998 195.118,293.562 C194.573997,293.886002 193.934004,294.048 193.198,294.048 C192.421996,294.048 191.806002,293.908001 191.35,293.628 L191.53,293.304 C191.922002,293.552001 192.473996,293.676 193.186,293.676 C194.194005,293.676 194.985997,293.348003 195.562,292.692 C196.138003,292.035997 196.426,291.084006 196.426,289.836 C196.426,289.339998 196.386,288.908002 196.306,288.54 C196.169999,289.156003 195.852003,289.637998 195.352,289.986 C194.851998,290.334002 194.258003,290.508 193.57,290.508 C193.017997,290.508 192.530002,290.408001 192.106,290.208 C191.681998,290.007999 191.356001,289.722002 191.128,289.35 C190.899999,288.977998 190.786,288.544002 190.786,288.048 C190.786,287.551998 190.903999,287.116002 191.14,286.74 C191.376001,286.363998 191.699998,286.072001 192.112,285.864 C192.524002,285.655999 192.993997,285.552 193.522,285.552 C194.602005,285.552 195.423997,285.923996 195.988,286.668 Z M194.89,289.878 C195.266002,289.689999 195.557999,289.432002 195.766,289.104 C195.974001,288.775998 196.078,288.412002 196.078,288.012 C196.078,287.659998 195.980001,287.322002 195.784,286.998 C195.587999,286.673998 195.296002,286.412001 194.908,286.212 C194.519998,286.011999 194.058003,285.912 193.522,285.912 C192.825997,285.912 192.264002,286.105998 191.836,286.494 C191.407998,286.882002 191.194,287.395997 191.194,288.036 C191.194,288.684003 191.409998,289.199998 191.842,289.584 C192.274002,289.968002 192.861996,290.16 193.606,290.16 C194.086002,290.16 194.513998,290.066001 194.89,289.878 Z M203.138,286.58 L203.138,294 L202.818,294 L202.818,292.58 C202.624666,293.033336 202.329669,293.388332 201.933,293.645 C201.536331,293.901668 201.084669,294.03 200.578,294.03 C200.104664,294.03 199.674669,293.918334 199.288,293.695 C198.901331,293.471666 198.596334,293.160002 198.373,292.76 C198.149666,292.359998 198.038,291.906669 198.038,291.4 C198.038,290.893331 198.149666,290.440002 198.373,290.04 C198.596334,289.639998 198.901331,289.328334 199.288,289.105 C199.674669,288.881666 200.104664,288.77 200.578,288.77 C201.078002,288.77 201.526331,288.896665 201.923,289.15 C202.319669,289.403335 202.614666,289.753331 202.808,290.2 L202.808,286.58 L203.138,286.58 Z M201.723,293.435 C202.059668,293.238332 202.324666,292.963335 202.518,292.61 C202.711334,292.256665 202.808,291.853336 202.808,291.4 C202.808,290.946664 202.711334,290.545002 202.518,290.195 C202.324666,289.844998 202.059668,289.571668 201.723,289.375 C201.386332,289.178332 201.008002,289.08 200.588,289.08 C200.167998,289.08 199.789668,289.178332 199.453,289.375 C199.116332,289.571668 198.851334,289.844998 198.658,290.195 C198.464666,290.545002 198.368,290.946664 198.368,291.4 C198.368,291.853336 198.464666,292.256665 198.658,292.61 C198.851334,292.963335 199.116332,293.238332 199.453,293.435 C199.789668,293.631668 200.167998,293.73 200.588,293.73 C201.008002,293.73 201.386332,293.631668 201.723,293.435 Z M209.638,291.45 L205.088,291.45 C205.094667,291.890002 205.197999,292.283332 205.398,292.63 C205.598001,292.976668 205.872998,293.246666 206.223,293.44 C206.573002,293.633334 206.964665,293.73 207.398,293.73 C207.751335,293.73 208.077999,293.665001 208.378,293.535 C208.678002,293.404999 208.924666,293.213335 209.118,292.96 L209.328,293.18 C209.094666,293.453335 208.811335,293.663333 208.478,293.81 C208.144665,293.956667 207.784669,294.03 207.398,294.03 C206.891331,294.03 206.439669,293.918334 206.043,293.695 C205.646331,293.471666 205.334668,293.160002 205.108,292.76 C204.881332,292.359998 204.768,291.906669 204.768,291.4 C204.768,290.893331 204.872999,290.440002 205.083,290.04 C205.293001,289.639998 205.584665,289.328334 205.958,289.105 C206.331335,288.881666 206.747998,288.77 207.208,288.77 C207.661336,288.77 208.072998,288.879999 208.443,289.1 C208.813002,289.320001 209.104666,289.626665 209.318,290.02 C209.531334,290.413335 209.638,290.859998 209.638,291.36 L209.638,291.45 Z M206.158,289.34 C205.844665,289.520001 205.594668,289.771665 205.408,290.095 C205.221332,290.418335 205.118,290.779998 205.098,291.18 L209.328,291.18 C209.301333,290.779998 209.193001,290.418335 209.003,290.095 C208.812999,289.771665 208.563002,289.520001 208.253,289.34 C207.942998,289.159999 207.594669,289.07 207.208,289.07 C206.821331,289.07 206.471335,289.159999 206.158,289.34 Z M211.933,293.695 C211.542998,293.471666 211.236334,293.160002 211.013,292.76 C210.789666,292.359998 210.678,291.906669 210.678,291.4 C210.678,290.893331 210.789666,290.440002 211.013,290.04 C211.236334,289.639998 211.542998,289.328334 211.933,289.105 C212.323002,288.881666 212.764664,288.77 213.258,288.77 C213.651335,288.77 214.016332,288.844999 214.353,288.995 C214.689668,289.145001 214.964666,289.366665 215.178,289.66 L214.928,289.87 C214.741332,289.609999 214.503001,289.413334 214.213,289.28 C213.922999,289.146666 213.604668,289.08 213.258,289.08 C212.831331,289.08 212.446335,289.178332 212.103,289.375 C211.759665,289.571668 211.491334,289.844998 211.298,290.195 C211.104666,290.545002 211.008,290.946664 211.008,291.4 C211.008,291.853336 211.104666,292.256665 211.298,292.61 C211.491334,292.963335 211.759665,293.238332 212.103,293.435 C212.446335,293.631668 212.831331,293.73 213.258,293.73 C213.604668,293.73 213.922999,293.663334 214.213,293.53 C214.503001,293.396666 214.741332,293.200001 214.928,292.94 L215.178,293.14 C214.964666,293.433335 214.689668,293.654999 214.353,293.805 C214.016332,293.955001 213.651335,294.03 213.258,294.03 C212.764664,294.03 212.323002,293.918334 211.933,293.695 Z M229.958,289.944 C230.458003,290.368002 230.708,290.943996 230.708,291.672 C230.708,292.384004 230.462002,292.957998 229.97,293.394 C229.477998,293.830002 228.780005,294.048 227.876,294.048 C227.259997,294.048 226.688003,293.942001 226.16,293.73 C225.631997,293.517999 225.232001,293.236002 224.96,292.884 L225.176,292.596 C225.432001,292.916002 225.797998,293.175999 226.274,293.376 C226.750002,293.576001 227.279997,293.676 227.864,293.676 C228.656004,293.676 229.261998,293.496002 229.682,293.136 C230.102002,292.775998 230.312,292.288003 230.312,291.672 C230.312,291.039997 230.096002,290.548002 229.664,290.196 C229.231998,289.843998 228.584004,289.668 227.72,289.668 L227.252,289.668 L227.252,289.38 L229.868,285.972 L225.236,285.972 L225.236,285.6 L230.396,285.6 L230.396,285.888 L227.768,289.308 C228.728005,289.308 229.457998,289.519998 229.958,289.944 Z M233.618,293.526 C233.125998,293.177998 232.744001,292.682003 232.472,292.038 C232.199999,291.393997 232.064,290.648004 232.064,289.8 C232.064,288.951996 232.199999,288.206003 232.472,287.562 C232.744001,286.917997 233.125998,286.422002 233.618,286.074 C234.110002,285.725998 234.671997,285.552 235.304,285.552 C235.944003,285.552 236.507998,285.725998 236.996,286.074 C237.484002,286.422002 237.863999,286.917997 238.136,287.562 C238.408001,288.206003 238.544,288.951996 238.544,289.8 C238.544,290.648004 238.408001,291.393997 238.136,292.038 C237.863999,292.682003 237.484002,293.177998 236.996,293.526 C236.507998,293.874002 235.944003,294.048 235.304,294.048 C234.671997,294.048 234.110002,293.874002 233.618,293.526 Z M236.792,293.208 C237.224002,292.895998 237.557999,292.448003 237.794,291.864 C238.030001,291.279997 238.148,290.592004 238.148,289.8 C238.148,289.007996 238.030001,288.320003 237.794,287.736 C237.557999,287.151997 237.224002,286.704002 236.792,286.392 C236.359998,286.079998 235.864003,285.924 235.304,285.924 C234.743997,285.924 234.250002,286.079998 233.822,286.392 C233.393998,286.704002 233.062001,287.151997 232.826,287.736 C232.589999,288.320003 232.472,289.007996 232.472,289.8 C232.472,290.592004 232.589999,291.279997 232.826,291.864 C233.062001,292.448003 233.393998,292.895998 233.822,293.208 C234.250002,293.520002 234.743997,293.676 235.304,293.676 C235.864003,293.676 236.359998,293.520002 236.792,293.208 Z M244.86,286.58 L244.86,294 L244.54,294 L244.54,292.58 C244.346666,293.033336 244.051669,293.388332 243.655,293.645 C243.258331,293.901668 242.806669,294.03 242.3,294.03 C241.826664,294.03 241.396669,293.918334 241.01,293.695 C240.623331,293.471666 240.318334,293.160002 240.095,292.76 C239.871666,292.359998 239.76,291.906669 239.76,291.4 C239.76,290.893331 239.871666,290.440002 240.095,290.04 C240.318334,289.639998 240.623331,289.328334 241.01,289.105 C241.396669,288.881666 241.826664,288.77 242.3,288.77 C242.800003,288.77 243.248331,288.896665 243.645,289.15 C244.041669,289.403335 244.336666,289.753331 244.53,290.2 L244.53,286.58 L244.86,286.58 Z M243.445,293.435 C243.781668,293.238332 244.046666,292.963335 244.24,292.61 C244.433334,292.256665 244.53,291.853336 244.53,291.4 C244.53,290.946664 244.433334,290.545002 244.24,290.195 C244.046666,289.844998 243.781668,289.571668 243.445,289.375 C243.108332,289.178332 242.730002,289.08 242.31,289.08 C241.889998,289.08 241.511668,289.178332 241.175,289.375 C240.838332,289.571668 240.573334,289.844998 240.38,290.195 C240.186666,290.545002 240.09,290.946664 240.09,291.4 C240.09,291.853336 240.186666,292.256665 240.38,292.61 C240.573334,292.963335 240.838332,293.238332 241.175,293.435 C241.511668,293.631668 241.889998,293.73 242.31,293.73 C242.730002,293.73 243.108332,293.631668 243.445,293.435 Z M251.36,291.45 L246.81,291.45 C246.816667,291.890002 246.919999,292.283332 247.12,292.63 C247.320001,292.976668 247.594998,293.246666 247.945,293.44 C248.295002,293.633334 248.686665,293.73 249.12,293.73 C249.473335,293.73 249.799998,293.665001 250.1,293.535 C250.400002,293.404999 250.646666,293.213335 250.84,292.96 L251.05,293.18 C250.816665,293.453335 250.533335,293.663333 250.2,293.81 C249.866665,293.956667 249.506669,294.03 249.12,294.03 C248.613331,294.03 248.161669,293.918334 247.765,293.695 C247.368331,293.471666 247.056668,293.160002 246.83,292.76 C246.603332,292.359998 246.49,291.906669 246.49,291.4 C246.49,290.893331 246.594999,290.440002 246.805,290.04 C247.015001,289.639998 247.306665,289.328334 247.68,289.105 C248.053335,288.881666 248.469998,288.77 248.93,288.77 C249.383336,288.77 249.794998,288.879999 250.165,289.1 C250.535002,289.320001 250.826666,289.626665 251.04,290.02 C251.253334,290.413335 251.36,290.859998 251.36,291.36 L251.36,291.45 Z M247.88,289.34 C247.566665,289.520001 247.316668,289.771665 247.13,290.095 C246.943332,290.418335 246.84,290.779998 246.82,291.18 L251.05,291.18 C251.023333,290.779998 250.915001,290.418335 250.725,290.095 C250.534999,289.771665 250.285002,289.520001 249.975,289.34 C249.664998,289.159999 249.316669,289.07 248.93,289.07 C248.543331,289.07 248.193335,289.159999 247.88,289.34 Z M253.655,293.695 C253.264998,293.471666 252.958334,293.160002 252.735,292.76 C252.511666,292.359998 252.4,291.906669 252.4,291.4 C252.4,290.893331 252.511666,290.440002 252.735,290.04 C252.958334,289.639998 253.264998,289.328334 253.655,289.105 C254.045002,288.881666 254.486664,288.77 254.98,288.77 C255.373335,288.77 255.738332,288.844999 256.075,288.995 C256.411668,289.145001 256.686666,289.366665 256.9,289.66 L256.65,289.87 C256.463332,289.609999 256.225001,289.413334 255.935,289.28 C255.644999,289.146666 255.326668,289.08 254.98,289.08 C254.553331,289.08 254.168335,289.178332 253.825,289.375 C253.481665,289.571668 253.213334,289.844998 253.02,290.195 C252.826666,290.545002 252.73,290.946664 252.73,291.4 C252.73,291.853336 252.826666,292.256665 253.02,292.61 C253.213334,292.963335 253.481665,293.238332 253.825,293.435 C254.168335,293.631668 254.553331,293.73 254.98,293.73 C255.326668,293.73 255.644999,293.663334 255.935,293.53 C256.225001,293.396666 256.463332,293.200001 256.65,292.94 L256.9,293.14 C256.686666,293.433335 256.411668,293.654999 256.075,293.805 C255.738332,293.955001 255.373335,294.03 254.98,294.03 C254.486664,294.03 254.045002,293.918334 253.655,293.695 Z M271.68,289.944 C272.180003,290.368002 272.43,290.943996 272.43,291.672 C272.43,292.384004 272.184002,292.957998 271.692,293.394 C271.199998,293.830002 270.502005,294.048 269.598,294.048 C268.981997,294.048 268.410003,293.942001 267.882,293.73 C267.353997,293.517999 266.954001,293.236002 266.682,292.884 L266.898,292.596 C267.154001,292.916002 267.519998,293.175999 267.996,293.376 C268.472002,293.576001 269.001997,293.676 269.586,293.676 C270.378004,293.676 270.983998,293.496002 271.404,293.136 C271.824002,292.775998 272.034,292.288003 272.034,291.672 C272.034,291.039997 271.818002,290.548002 271.386,290.196 C270.953998,289.843998 270.306004,289.668 269.442,289.668 L268.974,289.668 L268.974,289.38 L271.59,285.972 L266.958,285.972 L266.958,285.6 L272.118,285.6 L272.118,285.888 L269.49,289.308 C270.450005,289.308 271.179998,289.519998 271.68,289.944 Z M275.73,285.6 L275.73,294 L275.334,294 L275.334,285.972 L273.222,285.972 L273.222,285.6 L275.73,285.6 Z M282.886,286.58 L282.886,294 L282.566,294 L282.566,292.58 C282.372666,293.033336 282.077669,293.388332 281.681,293.645 C281.284331,293.901668 280.832669,294.03 280.326,294.03 C279.852664,294.03 279.422669,293.918334 279.036,293.695 C278.649331,293.471666 278.344334,293.160002 278.121,292.76 C277.897666,292.359998 277.786,291.906669 277.786,291.4 C277.786,290.893331 277.897666,290.440002 278.121,290.04 C278.344334,289.639998 278.649331,289.328334 279.036,289.105 C279.422669,288.881666 279.852664,288.77 280.326,288.77 C280.826003,288.77 281.274331,288.896665 281.671,289.15 C282.067669,289.403335 282.362666,289.753331 282.556,290.2 L282.556,286.58 L282.886,286.58 Z M281.471,293.435 C281.807668,293.238332 282.072666,292.963335 282.266,292.61 C282.459334,292.256665 282.556,291.853336 282.556,291.4 C282.556,290.946664 282.459334,290.545002 282.266,290.195 C282.072666,289.844998 281.807668,289.571668 281.471,289.375 C281.134332,289.178332 280.756002,289.08 280.336,289.08 C279.915998,289.08 279.537668,289.178332 279.201,289.375 C278.864332,289.571668 278.599334,289.844998 278.406,290.195 C278.212666,290.545002 278.116,290.946664 278.116,291.4 C278.116,291.853336 278.212666,292.256665 278.406,292.61 C278.599334,292.963335 278.864332,293.238332 279.201,293.435 C279.537668,293.631668 279.915998,293.73 280.336,293.73 C280.756002,293.73 281.134332,293.631668 281.471,293.435 Z M289.386,291.45 L284.836,291.45 C284.842667,291.890002 284.945999,292.283332 285.146,292.63 C285.346001,292.976668 285.620998,293.246666 285.971,293.44 C286.321002,293.633334 286.712665,293.73 287.146,293.73 C287.499335,293.73 287.825999,293.665001 288.126,293.535 C288.426002,293.404999 288.672666,293.213335 288.866,292.96 L289.076,293.18 C288.842666,293.453335 288.559335,293.663333 288.226,293.81 C287.892665,293.956667 287.532669,294.03 287.146,294.03 C286.639331,294.03 286.187669,293.918334 285.791,293.695 C285.394331,293.471666 285.082668,293.160002 284.856,292.76 C284.629332,292.359998 284.516,291.906669 284.516,291.4 C284.516,290.893331 284.620999,290.440002 284.831,290.04 C285.041001,289.639998 285.332665,289.328334 285.706,289.105 C286.079335,288.881666 286.495998,288.77 286.956,288.77 C287.409336,288.77 287.820998,288.879999 288.191,289.1 C288.561002,289.320001 288.852666,289.626665 289.066,290.02 C289.279334,290.413335 289.386,290.859998 289.386,291.36 L289.386,291.45 Z M285.906,289.34 C285.592665,289.520001 285.342668,289.771665 285.156,290.095 C284.969332,290.418335 284.866,290.779998 284.846,291.18 L289.076,291.18 C289.049333,290.779998 288.941001,290.418335 288.751,290.095 C288.560999,289.771665 288.311002,289.520001 288.001,289.34 C287.690998,289.159999 287.342669,289.07 286.956,289.07 C286.569331,289.07 286.219335,289.159999 285.906,289.34 Z M291.681,293.695 C291.290998,293.471666 290.984334,293.160002 290.761,292.76 C290.537666,292.359998 290.426,291.906669 290.426,291.4 C290.426,290.893331 290.537666,290.440002 290.761,290.04 C290.984334,289.639998 291.290998,289.328334 291.681,289.105 C292.071002,288.881666 292.512664,288.77 293.006,288.77 C293.399335,288.77 293.764332,288.844999 294.101,288.995 C294.437668,289.145001 294.712666,289.366665 294.926,289.66 L294.676,289.87 C294.489332,289.609999 294.251001,289.413334 293.961,289.28 C293.670999,289.146666 293.352668,289.08 293.006,289.08 C292.579331,289.08 292.194335,289.178332 291.851,289.375 C291.507665,289.571668 291.239334,289.844998 291.046,290.195 C290.852666,290.545002 290.756,290.946664 290.756,291.4 C290.756,291.853336 290.852666,292.256665 291.046,292.61 C291.239334,292.963335 291.507665,293.238332 291.851,293.435 C292.194335,293.631668 292.579331,293.73 293.006,293.73 C293.352668,293.73 293.670999,293.663334 293.961,293.53 C294.251001,293.396666 294.489332,293.200001 294.676,292.94 L294.926,293.14 C294.712666,293.433335 294.437668,293.654999 294.101,293.805 C293.764332,293.955001 293.399335,294.03 293.006,294.03 C292.512664,294.03 292.071002,293.918334 291.681,293.695 Z" id="6h-5h-4h-3h-2h-1h-0h" fill="#000000"></path>
            <path d="M24.5,229.5 L276.5,229.5" id="Line-3" stroke="#EAEAEA" stroke-linecap="square"></path>
            <path d="M24.5,184.5 L276.5,184.5" id="Line-3" stroke="#EAEAEA" stroke-linecap="square"></path>
            <path d="M24.5,94.5 L276.5,94.5" id="Line-3" stroke="#EAEAEA" stroke-linecap="square"></path>
            <path d="M24.5,49.5 L276.5,49.5" id="Line-3" stroke="#EAEAEA" stroke-linecap="square"></path>
            <path d="M24.5,139.5 L276.5,139.5" id="Line-3" stroke="#EAEAEA" stroke-linecap="square"></path>
            <path d="M24.5,4.5 L276.5,4.5" id="Line-3" stroke="#EAEAEA" stroke-linecap="square"></path>
            <path d="M24.5,274.5 L276.5,274.5" id="Line-3" stroke="#EAEAEA" stroke-linecap="square"></path>
            <polyline id="Line-2" stroke="#44A1D5" stroke-width="3" stroke-linecap="square" points="23 100.155187 60.7226562 145.675781 101.132812 104.507813 140.5 34.125 175.878906 158.75 227.460938 158.75 276 178.807531"></polyline>
        </g>
    </g>
</svg>