<?xml version="1.0" encoding="UTF-8"?>
<svg width="285px" height="294px" viewBox="0 0 285 294" version="1.1" xmlns="http://www.w3.org/2000/svg" xmlns:xlink="http://www.w3.org/1999/xlink">
    <!-- Generator: Sketch 48.2 (47327) - http://www.bohemiancoding.com/sketch -->
    <title>Group</title>
    <desc>Created with Sketch.</desc>
    <defs></defs>
    <g id="statistieken" stroke="none" stroke-width="1" fill="none" fill-rule="evenodd" transform="translate(-47.000000, -261.000000)">
        <g id="Group" transform="translate(47.000000, 261.000000)">
            <path d="M5.412,4.392 C5.83600212,4.592001 6.16199886,4.87799814 6.39,5.25 C6.61800114,5.62200186 6.732,6.05599752 6.732,6.552 C6.732,7.04800248 6.61600116,7.48399812 6.384,7.86 C6.15199884,8.23600188 5.82800208,8.52799896 5.412,8.736 C4.99599792,8.94400104 4.5280026,9.048 4.008,9.048 C2.9279946,9.048 2.10400284,8.67600372 1.536,7.932 C0.96799716,7.18799628 0.684,6.15200664 0.684,4.824 C0.684,3.89599536 0.83599848,3.11400318 1.14,2.478 C1.44400152,1.84199682 1.86799728,1.36200162 2.412,1.038 C2.95600272,0.71399838 3.59599632,0.552 4.332,0.552 C5.10000384,0.552 5.71199772,0.6919986 6.168,0.972 L5.988,1.296 C5.59599804,1.04799876 5.04400356,0.924 4.332,0.924 C3.331995,0.924 2.5420029,1.25199672 1.962,1.908 C1.3819971,2.56400328 1.092,3.51599376 1.092,4.764 C1.092,5.21200224 1.1319996,5.635998 1.212,6.036 C1.35600072,5.42799696 1.67599752,4.95200172 2.172,4.608 C2.66800248,4.26399828 3.25999656,4.092 3.948,4.092 C4.50000276,4.092 4.98799788,4.191999 5.412,4.392 Z M5.688,8.106 C6.12000216,7.71799806 6.336,7.2040032 6.336,6.564 C6.336,5.91599676 6.11800218,5.40000192 5.682,5.016 C5.24599782,4.63199808 4.65600372,4.44 3.912,4.44 C3.4319976,4.44 3.00600186,4.53399906 2.634,4.722 C2.26199814,4.91000094 1.97200104,5.16799836 1.764,5.496 C1.55599896,5.82400164 1.452,6.187998 1.452,6.588 C1.452,6.94000176 1.54999902,7.27799838 1.746,7.602 C1.94200098,7.92600162 2.23199808,8.187999 2.616,8.388 C3.00000192,8.588001 3.45999732,8.688 3.996,8.688 C4.69200348,8.688 5.25599784,8.49400194 5.688,8.106 Z M13.26,3.402 C13.7080022,3.85400226 13.932,4.4999958 13.932,5.34 L13.932,9 L13.536,9 L13.536,5.364 C13.536,4.62799632 13.3500019,4.06600194 12.978,3.678 C12.6059981,3.28999806 12.0760034,3.096 11.388,3.096 C10.6119961,3.096 10.0000022,3.3259977 9.552,3.786 C9.10399776,4.2460023 8.88,4.86399612 8.88,5.64 L8.88,9 L8.484,9 L8.484,0.096 L8.88,0.096 L8.88,4.26 C9.08800104,3.7799976 9.4119978,3.40400136 9.852,3.132 C10.2920022,2.85999864 10.815997,2.724 11.424,2.724 C12.2000039,2.724 12.8119978,2.94999774 13.26,3.402 Z M5.286,49.818 C5.83400274,50.2380021 6.108,50.8399961 6.108,51.624 C6.108,52.0880023 6.00000108,52.5039982 5.784,52.872 C5.56799892,53.2400018 5.24600214,53.527999 4.818,53.736 C4.38999786,53.944001 3.86800308,54.048 3.252,54.048 C2.64399696,54.048 2.07600264,53.9400011 1.548,53.724 C1.01999736,53.5079989 0.62000136,53.2280017 0.348,52.884 L0.576,52.596 C0.82400124,52.9160016 1.1879976,53.175999 1.668,53.376 C2.1480024,53.576001 2.67599712,53.676 3.252,53.676 C4.04400396,53.676 4.6499979,53.4880019 5.07,53.112 C5.4900021,52.7359981 5.7,52.2400031 5.7,51.624 C5.7,50.9439966 5.4600024,50.4300017 4.98,50.082 C4.4999976,49.7339983 3.68400576,49.56 2.532,49.56 L0.9,49.56 L1.344,45.6 L5.676,45.6 L5.676,45.972 L1.68,45.972 L1.32,49.188 L2.616,49.188 C3.84800616,49.188 4.73799726,49.3979979 5.286,49.818 Z M12.732,48.402 C13.1800022,48.8540023 13.404,49.4999958 13.404,50.34 L13.404,54 L13.008,54 L13.008,50.364 C13.008,49.6279963 12.8220019,49.0660019 12.45,48.678 C12.0779981,48.2899981 11.5480034,48.096 10.86,48.096 C10.0839961,48.096 9.47200224,48.3259977 9.024,48.786 C8.57599776,49.2460023 8.352,49.8639961 8.352,50.64 L8.352,54 L7.956,54 L7.956,45.096 L8.352,45.096 L8.352,49.26 C8.56000104,48.7799976 8.8839978,48.4040014 9.324,48.132 C9.7640022,47.8599986 10.287997,47.724 10.896,47.724 C11.6720039,47.724 12.2839978,47.9499977 12.732,48.402 Z M7.584,96.576 L5.76,96.576 L5.76,99 L5.364,99 L5.364,96.576 L0.54,96.576 L0.54,96.288 L5.184,90.6 L5.652,90.6 L1.068,96.216 L5.364,96.216 L5.364,94.08 L5.76,94.08 L5.76,96.216 L7.584,96.216 L7.584,96.576 Z M13.884,93.402 C14.3320022,93.8540023 14.556,94.4999958 14.556,95.34 L14.556,99 L14.16,99 L14.16,95.364 C14.16,94.6279963 13.9740019,94.0660019 13.602,93.678 C13.2299981,93.2899981 12.7000034,93.096 12.012,93.096 C11.2359961,93.096 10.6240022,93.3259977 10.176,93.786 C9.72799776,94.2460023 9.504,94.8639961 9.504,95.64 L9.504,99 L9.108,99 L9.108,90.096 L9.504,90.096 L9.504,94.26 C9.71200104,93.7799976 10.0359978,93.4040014 10.476,93.132 C10.9160022,92.8599986 11.439997,92.724 12.048,92.724 C12.8240039,92.724 13.4359978,92.9499977 13.884,93.402 Z M5.202,139.944 C5.7020025,140.368002 5.952,140.943996 5.952,141.672 C5.952,142.384004 5.70600246,142.957998 5.214,143.394 C4.72199754,143.830002 4.02400452,144.048 3.12,144.048 C2.50399692,144.048 1.93200264,143.942001 1.404,143.73 C0.87599736,143.517999 0.47600136,143.236002 0.204,142.884 L0.42,142.596 C0.67600128,142.916002 1.04199762,143.175999 1.518,143.376 C1.99400238,143.576001 2.52399708,143.676 3.108,143.676 C3.90000396,143.676 4.5059979,143.496002 4.926,143.136 C5.3460021,142.775998 5.556,142.288003 5.556,141.672 C5.556,141.039997 5.34000216,140.548002 4.908,140.196 C4.47599784,139.843998 3.82800432,139.668 2.964,139.668 L2.496,139.668 L2.496,139.38 L5.112,135.972 L0.48,135.972 L0.48,135.6 L5.64,135.6 L5.64,135.888 L3.012,139.308 C3.9720048,139.308 4.7019975,139.519998 5.202,139.944 Z M12.732,138.402 C13.1800022,138.854002 13.404,139.499996 13.404,140.34 L13.404,144 L13.008,144 L13.008,140.364 C13.008,139.627996 12.8220019,139.066002 12.45,138.678 C12.0779981,138.289998 11.5480034,138.096 10.86,138.096 C10.0839961,138.096 9.47200224,138.325998 9.024,138.786 C8.57599776,139.246002 8.352,139.863996 8.352,140.64 L8.352,144 L7.956,144 L7.956,135.096 L8.352,135.096 L8.352,139.26 C8.56000104,138.779998 8.8839978,138.404001 9.324,138.132 C9.7640022,137.859999 10.287997,137.724 10.896,137.724 C11.6720039,137.724 12.2839978,137.949998 12.732,138.402 Z M6.192,188.628 L6.192,189 L0.504,189 L0.504,188.712 L4.104,185.088 C4.59200244,184.599998 4.92199914,184.182002 5.094,183.834 C5.26600086,183.485998 5.352,183.128002 5.352,182.76 C5.352,182.191997 5.15800194,181.744002 4.77,181.416 C4.38199806,181.087998 3.8280036,180.924 3.108,180.924 C2.5479972,180.924 2.06200206,181.005999 1.65,181.17 C1.23799794,181.334001 0.88400148,181.587998 0.588,181.932 L0.312,181.668 C0.96000324,180.923996 1.89599388,180.552 3.12,180.552 C3.92800404,180.552 4.56799764,180.747998 5.04,181.14 C5.51200236,181.532002 5.748,182.063997 5.748,182.736 C5.748,183.160002 5.65200096,183.567998 5.46,183.96 C5.26799904,184.352002 4.9120026,184.807997 4.392,185.328 L1.116,188.628 L6.192,188.628 Z M12.804,183.402 C13.2520022,183.854002 13.476,184.499996 13.476,185.34 L13.476,189 L13.08,189 L13.08,185.364 C13.08,184.627996 12.8940019,184.066002 12.522,183.678 C12.1499981,183.289998 11.6200034,183.096 10.932,183.096 C10.1559961,183.096 9.54400224,183.325998 9.096,183.786 C8.64799776,184.246002 8.424,184.863996 8.424,185.64 L8.424,189 L8.028,189 L8.028,180.096 L8.424,180.096 L8.424,184.26 C8.63200104,183.779998 8.9559978,183.404001 9.396,183.132 C9.8360022,182.859999 10.359997,182.724 10.968,182.724 C11.7440039,182.724 12.3559978,182.949998 12.804,183.402 Z M2.628,225.6 L2.628,234 L2.232,234 L2.232,225.972 L0.12,225.972 L0.12,225.6 L2.628,225.6 Z M10.272,228.402 C10.7200022,228.854002 10.944,229.499996 10.944,230.34 L10.944,234 L10.548,234 L10.548,230.364 C10.548,229.627996 10.3620019,229.066002 9.99,228.678 C9.61799814,228.289998 9.08800344,228.096 8.4,228.096 C7.62399612,228.096 7.01200224,228.325998 6.564,228.786 C6.11599776,229.246002 5.892,229.863996 5.892,230.64 L5.892,234 L5.496,234 L5.496,225.096 L5.892,225.096 L5.892,229.26 C6.10000104,228.779998 6.4239978,228.404001 6.864,228.132 C7.3040022,227.859999 7.82799696,227.724 8.436,227.724 C9.21200388,227.724 9.82399776,227.949998 10.272,228.402 Z M2.238,278.526 C1.74599754,278.177998 1.36400136,277.682003 1.092,277.038 C0.81999864,276.393997 0.684,275.648004 0.684,274.8 C0.684,273.951996 0.81999864,273.206003 1.092,272.562 C1.36400136,271.917997 1.74599754,271.422002 2.238,271.074 C2.73000246,270.725998 3.29199684,270.552 3.924,270.552 C4.5640032,270.552 5.12799756,270.725998 5.616,271.074 C6.10400244,271.422002 6.48399864,271.917997 6.756,272.562 C7.02800136,273.206003 7.164,273.951996 7.164,274.8 C7.164,275.648004 7.02800136,276.393997 6.756,277.038 C6.48399864,277.682003 6.10400244,278.177998 5.616,278.526 C5.12799756,278.874002 4.5640032,279.048 3.924,279.048 C3.29199684,279.048 2.73000246,278.874002 2.238,278.526 Z M5.412,278.208 C5.84400216,277.895998 6.17799882,277.448003 6.414,276.864 C6.65000118,276.279997 6.768,275.592004 6.768,274.8 C6.768,274.007996 6.65000118,273.320003 6.414,272.736 C6.17799882,272.151997 5.84400216,271.704002 5.412,271.392 C4.97999784,271.079998 4.4840028,270.924 3.924,270.924 C3.3639972,270.924 2.87000214,271.079998 2.442,271.392 C2.01399786,271.704002 1.68200118,272.151997 1.446,272.736 C1.20999882,273.320003 1.092,274.007996 1.092,274.8 C1.092,275.592004 1.20999882,276.279997 1.446,276.864 C1.68200118,277.448003 2.01399786,277.895998 2.442,278.208 C2.87000214,278.520002 3.3639972,278.676 3.924,278.676 C4.4840028,278.676 4.97999784,278.520002 5.412,278.208 Z M13.968,273.402 C14.4160022,273.854002 14.64,274.499996 14.64,275.34 L14.64,279 L14.244,279 L14.244,275.364 C14.244,274.627996 14.0580019,274.066002 13.686,273.678 C13.3139981,273.289998 12.7840034,273.096 12.096,273.096 C11.3199961,273.096 10.7080022,273.325998 10.26,273.786 C9.81199776,274.246002 9.588,274.863996 9.588,275.64 L9.588,279 L9.192,279 L9.192,270.096 L9.588,270.096 L9.588,274.26 C9.79600104,273.779998 10.1199978,273.404001 10.56,273.132 C11.0000022,272.859999 11.523997,272.724 12.132,272.724 C12.9080039,272.724 13.5199978,272.949998 13.968,273.402 Z M15.96,291.775 C15.6399984,291.598332 15.3866676,291.356668 15.2,291.05 L15.41,290.83 C15.6033343,291.123335 15.8349987,291.346666 16.105,291.5 C16.3750014,291.653334 16.6733317,291.73 17,291.73 C17.4933358,291.73 17.8583322,291.588335 18.095,291.305 C18.3316679,291.021665 18.45,290.58667 18.45,290 L18.45,285.31 L15.85,285.31 L15.85,285 L18.79,285 L18.79,290.01 C18.79,291.36334 18.190006,292.04 16.99,292.04 C16.6233315,292.04 16.2800016,291.951668 15.96,291.775 Z M24.245,287.25 C24.5750016,287.570002 24.74,288.03333 24.74,288.64 L24.74,292 L24.42,292 L24.42,290.96 C24.2533325,291.293335 24.0050017,291.554999 23.675,291.745 C23.3449983,291.935001 22.9500023,292.03 22.49,292.03 C21.9099971,292.03 21.4550016,291.896668 21.125,291.63 C20.7949984,291.363332 20.63,291.010002 20.63,290.57 C20.63,290.149998 20.7799985,289.808335 21.08,289.545 C21.3800015,289.281665 21.8599967,289.15 22.52,289.15 L24.41,289.15 L24.41,288.64 C24.41,288.126664 24.2750013,287.736668 24.005,287.47 C23.7349986,287.203332 23.3366693,287.07 22.81,287.07 C22.4433315,287.07 22.1000016,287.133333 21.78,287.26 C21.4599984,287.386667 21.1866678,287.556666 20.96,287.77 L20.78,287.53 C21.0333346,287.289999 21.3383315,287.103334 21.695,286.97 C22.0516684,286.836666 22.4266647,286.77 22.82,286.77 C23.4400031,286.77 23.9149983,286.929998 24.245,287.25 Z M24.41,290.5 L24.41,289.42 L22.52,289.42 C21.9799973,289.42 21.5850012,289.521666 21.335,289.725 C21.0849987,289.928334 20.96,290.203332 20.96,290.55 C20.96,290.923335 21.0983319,291.216666 21.375,291.43 C21.651668,291.643334 22.0299976,291.75 22.51,291.75 C23.443338,291.75 24.076665,291.333338 24.41,290.5 Z M30.88,287.335 C31.2533352,287.711669 31.44,288.249997 31.44,288.95 L31.44,292 L31.11,292 L31.11,288.97 C31.11,288.356664 30.9550015,287.888335 30.645,287.565 C30.3349985,287.241665 29.8933362,287.08 29.32,287.08 C28.6733301,287.08 28.1633352,287.271665 27.79,287.655 C27.4166648,288.038335 27.23,288.55333 27.23,289.2 L27.23,292 L26.9,292 L26.9,286.81 L27.22,286.81 L27.22,288.08 C27.3866675,287.673331 27.6549981,287.353335 28.025,287.12 C28.3950018,286.886665 28.8366641,286.77 29.35,286.77 C29.9966699,286.77 30.5066648,286.958331 30.88,287.335 Z M41.7,285.31 L41.7,288.51 L45.5,288.51 L45.5,288.81 L41.7,288.81 L41.7,292 L41.36,292 L41.36,285 L45.95,285 L45.95,285.31 L41.7,285.31 Z M51.77,289.45 L47.22,289.45 C47.2266667,289.890002 47.329999,290.283332 47.53,290.63 C47.730001,290.976668 48.0049982,291.246666 48.355,291.44 C48.7050017,291.633334 49.0966645,291.73 49.53,291.73 C49.8833351,291.73 50.2099985,291.665001 50.51,291.535 C50.8100015,291.404999 51.0566657,291.213335 51.25,290.96 L51.46,291.18 C51.2266655,291.453335 50.943335,291.663333 50.61,291.81 C50.276665,291.956667 49.9166686,292.03 49.53,292.03 C49.0233308,292.03 48.5716686,291.918334 48.175,291.695 C47.7783314,291.471666 47.4666678,291.160002 47.24,290.76 C47.0133322,290.359998 46.9,289.906669 46.9,289.4 C46.9,288.893331 47.004999,288.440002 47.215,288.04 C47.425001,287.639998 47.7166648,287.328334 48.09,287.105 C48.4633352,286.881666 48.8799977,286.77 49.34,286.77 C49.7933356,286.77 50.2049981,286.879999 50.575,287.1 C50.9450018,287.320001 51.2366656,287.626665 51.45,288.02 C51.6633344,288.413335 51.77,288.859998 51.77,289.36 L51.77,289.45 Z M48.29,287.34 C47.9766651,287.520001 47.7266676,287.771665 47.54,288.095 C47.3533324,288.418335 47.2500001,288.779998 47.23,289.18 L51.46,289.18 C51.4333332,288.779998 51.325001,288.418335 51.135,288.095 C50.9449991,287.771665 50.6950016,287.520001 50.385,287.34 C50.0749985,287.159999 49.7266686,287.07 49.34,287.07 C48.9533314,287.07 48.6033349,287.159999 48.29,287.34 Z M57.25,287.105 C57.6366686,287.328334 57.9416656,287.639998 58.165,288.04 C58.3883345,288.440002 58.5,288.893331 58.5,289.4 C58.5,289.906669 58.3883345,290.359998 58.165,290.76 C57.9416656,291.160002 57.6366686,291.471666 57.25,291.695 C56.8633314,291.918334 56.4333357,292.03 55.96,292.03 C55.4533308,292.03 55.0016687,291.901668 54.605,291.645 C54.2083314,291.388332 53.9133343,291.033336 53.72,290.58 L53.72,292 L53.4,292 L53.4,284.58 L53.73,284.58 L53.73,288.2 C53.9233343,287.753331 54.2183314,287.403335 54.615,287.15 C55.0116687,286.896665 55.4599975,286.77 55.96,286.77 C56.4333357,286.77 56.8633314,286.881666 57.25,287.105 Z M57.085,291.435 C57.4216684,291.238332 57.6866657,290.963335 57.88,290.61 C58.0733343,290.256665 58.17,289.853336 58.17,289.4 C58.17,288.946664 58.0733343,288.545002 57.88,288.195 C57.6866657,287.844998 57.4216684,287.571668 57.085,287.375 C56.7483317,287.178332 56.3700021,287.08 55.95,287.08 C55.5299979,287.08 55.1516684,287.178332 54.815,287.375 C54.4783317,287.571668 54.2133343,287.844998 54.02,288.195 C53.8266657,288.545002 53.73,288.946664 53.73,289.4 C53.73,289.853336 53.8266657,290.256665 54.02,290.61 C54.2133343,290.963335 54.4783317,291.238332 54.815,291.435 C55.1516684,291.631668 55.5299979,291.73 55.95,291.73 C56.3700021,291.73 56.7483317,291.631668 57.085,291.435 Z M74.56,292 L74.55,285.69 L71.48,291.03 L71.3,291.03 L68.22,285.71 L68.22,292 L67.89,292 L67.89,285 L68.17,285 L71.39,290.6 L74.6,285 L74.88,285 L74.89,292 L74.56,292 Z M80.405,287.25 C80.7350016,287.570002 80.9,288.03333 80.9,288.64 L80.9,292 L80.58,292 L80.58,290.96 C80.4133325,291.293335 80.1650016,291.554999 79.835,291.745 C79.5049983,291.935001 79.1100023,292.03 78.65,292.03 C78.0699971,292.03 77.6150016,291.896668 77.285,291.63 C76.9549983,291.363332 76.79,291.010002 76.79,290.57 C76.79,290.149998 76.9399985,289.808335 77.24,289.545 C77.5400015,289.281665 78.0199967,289.15 78.68,289.15 L80.57,289.15 L80.57,288.64 C80.57,288.126664 80.4350013,287.736668 80.165,287.47 C79.8949986,287.203332 79.4966693,287.07 78.97,287.07 C78.6033315,287.07 78.2600016,287.133333 77.94,287.26 C77.6199984,287.386667 77.3466678,287.556666 77.12,287.77 L76.94,287.53 C77.1933346,287.289999 77.4983315,287.103334 77.855,286.97 C78.2116684,286.836666 78.5866647,286.77 78.98,286.77 C79.6000031,286.77 80.0749983,286.929998 80.405,287.25 Z M80.57,290.5 L80.57,289.42 L78.68,289.42 C78.1399973,289.42 77.7450013,289.521666 77.495,289.725 C77.2449988,289.928334 77.12,290.203332 77.12,290.55 C77.12,290.923335 77.2583319,291.216666 77.535,291.43 C77.811668,291.643334 78.1899976,291.75 78.67,291.75 C79.603338,291.75 80.236665,291.333338 80.57,290.5 Z M84.125,287.105 C84.4683351,286.881666 84.8933308,286.77 85.4,286.77 L85.4,287.1 L85.31,287.1 C84.709997,287.1 84.2400017,287.289998 83.9,287.67 C83.5599983,288.050002 83.39,288.57333 83.39,289.24 L83.39,292 L83.06,292 L83.06,286.81 L83.38,286.81 L83.38,288.06 C83.5333341,287.646665 83.781665,287.328334 84.125,287.105 Z M98.84,292 L98.83,285.69 L95.76,291.03 L95.58,291.03 L92.5,285.71 L92.5,292 L92.17,292 L92.17,285 L92.45,285 L95.67,290.6 L98.88,285 L99.16,285 L99.17,292 L98.84,292 Z M104.685,287.25 C105.015002,287.570002 105.18,288.03333 105.18,288.64 L105.18,292 L104.86,292 L104.86,290.96 C104.693332,291.293335 104.445002,291.554999 104.115,291.745 C103.784998,291.935001 103.390002,292.03 102.93,292.03 C102.349997,292.03 101.895002,291.896668 101.565,291.63 C101.234998,291.363332 101.07,291.010002 101.07,290.57 C101.07,290.149998 101.219999,289.808335 101.52,289.545 C101.820001,289.281665 102.299997,289.15 102.96,289.15 L104.85,289.15 L104.85,288.64 C104.85,288.126664 104.715001,287.736668 104.445,287.47 C104.174999,287.203332 103.776669,287.07 103.25,287.07 C102.883331,287.07 102.540002,287.133333 102.22,287.26 C101.899998,287.386667 101.626668,287.556666 101.4,287.77 L101.22,287.53 C101.473335,287.289999 101.778332,287.103334 102.135,286.97 C102.491668,286.836666 102.866665,286.77 103.26,286.77 C103.880003,286.77 104.354998,286.929998 104.685,287.25 Z M104.85,290.5 L104.85,289.42 L102.96,289.42 C102.419997,289.42 102.025001,289.521666 101.775,289.725 C101.524999,289.928334 101.4,290.203332 101.4,290.55 C101.4,290.923335 101.538332,291.216666 101.815,291.43 C102.091668,291.643334 102.469998,291.75 102.95,291.75 C103.883338,291.75 104.516665,291.333338 104.85,290.5 Z M111.35,286.81 L108.63,292.78 C108.436666,293.213335 108.216668,293.519999 107.97,293.7 C107.723332,293.880001 107.433335,293.97 107.1,293.97 C106.866665,293.97 106.650001,293.931667 106.45,293.855 C106.249999,293.778333 106.080001,293.663334 105.94,293.51 L106.13,293.25 C106.270001,293.403334 106.416666,293.513333 106.57,293.58 C106.723334,293.646667 106.899999,293.68 107.1,293.68 C107.360001,293.68 107.584999,293.606667 107.775,293.46 C107.965001,293.313333 108.143332,293.060002 108.31,292.7 L108.64,291.99 L106.28,286.81 L106.64,286.81 L108.82,291.62 L111,286.81 L111.35,286.81 Z M119.77,291.775 C119.449998,291.598332 119.196668,291.356668 119.01,291.05 L119.22,290.83 C119.413334,291.123335 119.644999,291.346666 119.915,291.5 C120.185001,291.653334 120.483332,291.73 120.81,291.73 C121.303336,291.73 121.668332,291.588335 121.905,291.305 C122.141668,291.021665 122.26,290.58667 122.26,290 L122.26,285.31 L119.66,285.31 L119.66,285 L122.6,285 L122.6,290.01 C122.6,291.36334 122.000006,292.04 120.8,292.04 C120.433332,292.04 120.090002,291.951668 119.77,291.775 Z M129.37,286.81 L129.37,292 L129.05,292 L129.05,290.74 C128.889999,291.146669 128.633335,291.463332 128.28,291.69 C127.926665,291.916668 127.506669,292.03 127.02,292.03 C126.346663,292.03 125.820002,291.843335 125.44,291.47 C125.059998,291.096665 124.87,290.560003 124.87,289.86 L124.87,286.81 L125.2,286.81 L125.2,289.84 C125.2,290.453336 125.358332,290.921665 125.675,291.245 C125.991668,291.568335 126.44333,291.73 127.03,291.73 C127.650003,291.73 128.139998,291.538335 128.5,291.155 C128.860002,290.771665 129.04,290.25667 129.04,289.61 L129.04,286.81 L129.37,286.81 Z M135.57,287.335 C135.943335,287.711669 136.13,288.249997 136.13,288.95 L136.13,292 L135.8,292 L135.8,288.97 C135.8,288.356664 135.645002,287.888335 135.335,287.565 C135.024998,287.241665 134.583336,287.08 134.01,287.08 C133.36333,287.08 132.853335,287.271665 132.48,287.655 C132.106665,288.038335 131.92,288.55333 131.92,289.2 L131.92,292 L131.59,292 L131.59,286.81 L131.91,286.81 L131.91,288.08 C132.076668,287.673331 132.344998,287.353335 132.715,287.12 C133.085002,286.886665 133.526664,286.77 134.04,286.77 C134.68667,286.77 135.196665,286.958331 135.57,287.335 Z M145.55,291.775 C145.229998,291.598332 144.976668,291.356668 144.79,291.05 L145,290.83 C145.193334,291.123335 145.424999,291.346666 145.695,291.5 C145.965001,291.653334 146.263332,291.73 146.59,291.73 C147.083336,291.73 147.448332,291.588335 147.685,291.305 C147.921668,291.021665 148.04,290.58667 148.04,290 L148.04,285.31 L145.44,285.31 L145.44,285 L148.38,285 L148.38,290.01 C148.38,291.36334 147.780006,292.04 146.58,292.04 C146.213332,292.04 145.870002,291.951668 145.55,291.775 Z M155.15,286.81 L155.15,292 L154.83,292 L154.83,290.74 C154.669999,291.146669 154.413335,291.463332 154.06,291.69 C153.706665,291.916668 153.286669,292.03 152.8,292.03 C152.126663,292.03 151.600002,291.843335 151.22,291.47 C150.839998,291.096665 150.65,290.560003 150.65,289.86 L150.65,286.81 L150.98,286.81 L150.98,289.84 C150.98,290.453336 151.138332,290.921665 151.455,291.245 C151.771668,291.568335 152.22333,291.73 152.81,291.73 C153.430003,291.73 153.919998,291.538335 154.28,291.155 C154.640002,290.771665 154.82,290.25667 154.82,289.61 L154.82,286.81 L155.15,286.81 Z M157.37,284.58 L157.7,284.58 L157.7,292 L157.37,292 L157.37,284.58 Z M171.97,289.95 L167.78,289.95 L166.84,292 L166.47,292 L169.71,285 L170.04,285 L173.28,292 L172.91,292 L171.97,289.95 Z M171.84,289.66 L169.88,285.39 L167.91,289.66 L171.84,289.66 Z M178.91,286.81 L178.91,292 L178.59,292 L178.59,290.74 C178.429999,291.146669 178.173335,291.463332 177.82,291.69 C177.466665,291.916668 177.046669,292.03 176.56,292.03 C175.886663,292.03 175.360002,291.843335 174.98,291.47 C174.599998,291.096665 174.41,290.560003 174.41,289.86 L174.41,286.81 L174.74,286.81 L174.74,289.84 C174.74,290.453336 174.898332,290.921665 175.215,291.245 C175.531668,291.568335 175.98333,291.73 176.57,291.73 C177.190003,291.73 177.679998,291.538335 178.04,291.155 C178.400002,290.771665 178.58,290.25667 178.58,289.61 L178.58,286.81 L178.91,286.81 Z M185.7,286.81 L185.7,291.5 C185.7,292.340004 185.496669,292.961665 185.09,293.365 C184.683331,293.768335 184.070004,293.97 183.25,293.97 C182.769998,293.97 182.323335,293.896667 181.91,293.75 C181.496665,293.603333 181.166668,293.396668 180.92,293.13 L181.11,292.88 C181.376668,293.133335 181.691665,293.328333 182.055,293.465 C182.418335,293.601667 182.813331,293.67 183.24,293.67 C183.96667,293.67 184.503332,293.498335 184.85,293.155 C185.196668,292.811665 185.37,292.273337 185.37,291.54 L185.37,290.44 C185.176666,290.866669 184.880002,291.203332 184.48,291.45 C184.079998,291.696668 183.623336,291.82 183.11,291.82 C182.623331,291.82 182.185002,291.711668 181.795,291.495 C181.404998,291.278332 181.098334,290.978335 180.875,290.595 C180.651666,290.211665 180.54,289.776669 180.54,289.29 C180.54,288.803331 180.651666,288.368335 180.875,287.985 C181.098334,287.601665 181.404998,287.303334 181.795,287.09 C182.185002,286.876666 182.623331,286.77 183.11,286.77 C183.623336,286.77 184.081665,286.893332 184.485,287.14 C184.888335,287.386668 185.186666,287.726665 185.38,288.16 L185.38,286.81 L185.7,286.81 Z M184.275,291.235 C184.618335,291.044999 184.888332,290.780002 185.085,290.44 C185.281668,290.099998 185.38,289.716669 185.38,289.29 C185.38,288.863331 185.281668,288.481668 185.085,288.145 C184.888332,287.808332 184.618335,287.546668 184.275,287.36 C183.931665,287.173332 183.546669,287.08 183.12,287.08 C182.693331,287.08 182.308335,287.173332 181.965,287.36 C181.621665,287.546668 181.353334,287.808332 181.16,288.145 C180.966666,288.481668 180.87,288.863331 180.87,289.29 C180.87,289.723335 180.966666,290.108332 181.16,290.445 C181.353334,290.781668 181.621665,291.044999 181.965,291.235 C182.308335,291.425001 182.693331,291.52 183.12,291.52 C183.546669,291.52 183.931665,291.425001 184.275,291.235 Z M196.005,291.77 C195.548331,291.589999 195.196668,291.356668 194.95,291.07 L195.13,290.83 C195.363335,291.096668 195.688331,291.314999 196.105,291.485 C196.521669,291.655001 196.966664,291.74 197.44,291.74 C198.140004,291.74 198.668332,291.601668 199.025,291.325 C199.381668,291.048332 199.56,290.693335 199.56,290.26 C199.56,289.926665 199.466668,289.658334 199.28,289.455 C199.093332,289.251666 198.863335,289.098334 198.59,288.995 C198.316665,288.891666 197.943336,288.783334 197.47,288.67 C196.963331,288.543333 196.556668,288.420001 196.25,288.3 C195.943332,288.179999 195.683334,287.996668 195.47,287.75 C195.256666,287.503332 195.15,287.173335 195.15,286.76 C195.15,286.433332 195.236666,286.133335 195.41,285.86 C195.583334,285.586665 195.848332,285.368334 196.205,285.205 C196.561668,285.041666 197.006664,284.96 197.54,284.96 C197.920002,284.96 198.294998,285.016666 198.665,285.13 C199.035002,285.243334 199.349999,285.399999 199.61,285.6 L199.46,285.87 C199.186665,285.669999 198.881668,285.518334 198.545,285.415 C198.208332,285.311666 197.876668,285.26 197.55,285.26 C196.869997,285.26 196.355002,285.401665 196.005,285.685 C195.654998,285.968335 195.48,286.326664 195.48,286.76 C195.48,287.100002 195.574999,287.371666 195.765,287.575 C195.955001,287.778334 196.188332,287.933333 196.465,288.04 C196.741668,288.146667 197.113331,288.256666 197.58,288.37 C198.086669,288.496667 198.493332,288.618333 198.8,288.735 C199.106668,288.851667 199.364999,289.031665 199.575,289.275 C199.785001,289.518335 199.89,289.843331 199.89,290.25 C199.89,290.576668 199.801668,290.876665 199.625,291.15 C199.448332,291.423335 199.176669,291.639999 198.81,291.8 C198.443332,291.960001 197.990003,292.04 197.45,292.04 C196.943331,292.04 196.461669,291.950001 196.005,291.77 Z M205.83,289.45 L201.28,289.45 C201.286667,289.890002 201.389999,290.283332 201.59,290.63 C201.790001,290.976668 202.064998,291.246666 202.415,291.44 C202.765002,291.633334 203.156665,291.73 203.59,291.73 C203.943335,291.73 204.269999,291.665001 204.57,291.535 C204.870002,291.404999 205.116666,291.213335 205.31,290.96 L205.52,291.18 C205.286666,291.453335 205.003335,291.663333 204.67,291.81 C204.336665,291.956667 203.976669,292.03 203.59,292.03 C203.083331,292.03 202.631669,291.918334 202.235,291.695 C201.838331,291.471666 201.526668,291.160002 201.3,290.76 C201.073332,290.359998 200.96,289.906669 200.96,289.4 C200.96,288.893331 201.064999,288.440002 201.275,288.04 C201.485001,287.639998 201.776665,287.328334 202.15,287.105 C202.523335,286.881666 202.939998,286.77 203.4,286.77 C203.853336,286.77 204.264998,286.879999 204.635,287.1 C205.005002,287.320001 205.296666,287.626665 205.51,288.02 C205.723334,288.413335 205.83,288.859998 205.83,289.36 L205.83,289.45 Z M202.35,287.34 C202.036665,287.520001 201.786668,287.771665 201.6,288.095 C201.413332,288.418335 201.31,288.779998 201.29,289.18 L205.52,289.18 C205.493333,288.779998 205.385001,288.418335 205.195,288.095 C205.004999,287.771665 204.755002,287.520001 204.445,287.34 C204.134998,287.159999 203.786669,287.07 203.4,287.07 C203.013331,287.07 202.663335,287.159999 202.35,287.34 Z M211.31,287.105 C211.696669,287.328334 212.001666,287.641665 212.225,288.045 C212.448334,288.448335 212.56,288.903331 212.56,289.41 C212.56,289.916669 212.448334,290.368331 212.225,290.765 C212.001666,291.161669 211.696669,291.471666 211.31,291.695 C210.923331,291.918334 210.493336,292.03 210.02,292.03 C209.519997,292.03 209.071669,291.903335 208.675,291.65 C208.278331,291.396665 207.983334,291.050002 207.79,290.61 L207.79,293.94 L207.46,293.94 L207.46,286.81 L207.78,286.81 L207.78,288.23 C207.973334,287.776664 208.268331,287.420001 208.665,287.16 C209.061669,286.899999 209.513331,286.77 210.02,286.77 C210.493336,286.77 210.923331,286.881666 211.31,287.105 Z M211.145,291.435 C211.481668,291.238332 211.746666,290.965002 211.94,290.615 C212.133334,290.264998 212.23,289.863336 212.23,289.41 C212.23,288.956664 212.133334,288.553335 211.94,288.2 C211.746666,287.846665 211.481668,287.571668 211.145,287.375 C210.808332,287.178332 210.430002,287.08 210.01,287.08 C209.589998,287.08 209.211668,287.178332 208.875,287.375 C208.538332,287.571668 208.273334,287.846665 208.08,288.2 C207.886666,288.553335 207.79,288.956664 207.79,289.41 C207.79,289.863336 207.886666,290.264998 208.08,290.615 C208.273334,290.965002 208.538332,291.238332 208.875,291.435 C209.211668,291.631668 209.589998,291.73 210.01,291.73 C210.430002,291.73 210.808332,291.631668 211.145,291.435 Z M220.475,291.58 C219.924997,291.273332 219.493335,290.850003 219.18,290.31 C218.866665,289.769997 218.71,289.16667 218.71,288.5 C218.71,287.83333 218.866665,287.230003 219.18,286.69 C219.493335,286.149997 219.924997,285.726668 220.475,285.42 C221.025003,285.113332 221.639997,284.96 222.32,284.96 C223.000003,284.96 223.616664,285.113332 224.17,285.42 C224.723336,285.726668 225.156665,286.149997 225.47,286.69 C225.783335,287.230003 225.94,287.83333 225.94,288.5 C225.94,289.16667 225.783335,289.769997 225.47,290.31 C225.156665,290.850003 224.723336,291.273332 224.17,291.58 C223.616664,291.886668 223.000003,292.04 222.32,292.04 C221.639997,292.04 221.025003,291.886668 220.475,291.58 Z M223.99,291.31 C224.490002,291.029999 224.883332,290.643336 225.17,290.15 C225.456668,289.656664 225.6,289.10667 225.6,288.5 C225.6,287.89333 225.456668,287.343336 225.17,286.85 C224.883332,286.356664 224.490002,285.970001 223.99,285.69 C223.489997,285.409999 222.933336,285.27 222.32,285.27 C221.706664,285.27 221.151669,285.409999 220.655,285.69 C220.158331,285.970001 219.766668,286.356664 219.48,286.85 C219.193332,287.343336 219.05,287.89333 219.05,288.5 C219.05,289.10667 219.193332,289.656664 219.48,290.15 C219.766668,290.643336 220.158331,291.029999 220.655,291.31 C221.151669,291.590001 221.706664,291.73 222.32,291.73 C222.933336,291.73 223.489997,291.590001 223.99,291.31 Z M229.4,289.09 L227.95,290.42 L227.95,292 L227.62,292 L227.62,284.58 L227.95,284.58 L227.95,290.02 L231.47,286.81 L231.91,286.81 L229.66,288.89 L232.14,292 L231.72,292 L229.4,289.09 Z M235.85,291.67 C235.729999,291.783334 235.576668,291.871666 235.39,291.935 C235.203332,291.998334 235.010001,292.03 234.81,292.03 C234.389998,292.03 234.065001,291.911668 233.835,291.675 C233.604999,291.438332 233.49,291.113335 233.49,290.7 L233.49,287.1 L232.51,287.1 L232.51,286.81 L233.49,286.81 L233.49,285.67 L233.82,285.67 L233.82,286.81 L235.53,286.81 L235.53,287.1 L233.82,287.1 L233.82,290.65 C233.82,291.003335 233.906666,291.273332 234.08,291.46 C234.253334,291.646668 234.506665,291.74 234.84,291.74 C235.173335,291.74 235.453332,291.636668 235.68,291.43 L235.85,291.67 Z M248.14,285 L248.14,292 L247.86,292 L242.89,285.62 L242.89,292 L242.55,292 L242.55,285 L242.83,285 L247.8,291.38 L247.8,285 L248.14,285 Z M251.185,291.695 C250.794998,291.471666 250.490001,291.160002 250.27,290.76 C250.049999,290.359998 249.94,289.906669 249.94,289.4 C249.94,288.893331 250.049999,288.440002 250.27,288.04 C250.490001,287.639998 250.794998,287.328334 251.185,287.105 C251.575002,286.881666 252.009998,286.77 252.49,286.77 C252.976669,286.77 253.413331,286.881666 253.8,287.105 C254.186669,287.328334 254.489999,287.639998 254.71,288.04 C254.930001,288.440002 255.04,288.893331 255.04,289.4 C255.04,289.906669 254.930001,290.359998 254.71,290.76 C254.489999,291.160002 254.186669,291.471666 253.8,291.695 C253.413331,291.918334 252.976669,292.03 252.49,292.03 C252.009998,292.03 251.575002,291.918334 251.185,291.695 Z M253.625,291.435 C253.961668,291.238332 254.226666,290.963335 254.42,290.61 C254.613334,290.256665 254.71,289.853336 254.71,289.4 C254.71,288.946664 254.613334,288.545002 254.42,288.195 C254.226666,287.844998 253.961668,287.571668 253.625,287.375 C253.288332,287.178332 252.910002,287.08 252.49,287.08 C252.069998,287.08 251.691668,287.178332 251.355,287.375 C251.018332,287.571668 250.753334,287.844998 250.56,288.195 C250.366666,288.545002 250.27,288.946664 250.27,289.4 C250.27,289.853336 250.366666,290.256665 250.56,290.61 C250.753334,290.963335 251.018332,291.238332 251.355,291.435 C251.691668,291.631668 252.069998,291.73 252.49,291.73 C252.910002,291.73 253.288332,291.631668 253.625,291.435 Z M260.68,286.81 L258.31,292 L257.98,292 L255.61,286.81 L255.97,286.81 L258.15,291.63 L260.33,286.81 L260.68,286.81 Z M267.07,285 L269.77,285 C270.49667,285 271.141664,285.149998 271.705,285.45 C272.268336,285.750001 272.704998,286.164997 273.015,286.695 C273.325002,287.225003 273.48,287.826663 273.48,288.5 C273.48,289.173337 273.325002,289.774997 273.015,290.305 C272.704998,290.835003 272.268336,291.249999 271.705,291.55 C271.141664,291.850002 270.49667,292 269.77,292 L267.07,292 L267.07,285 Z M269.75,291.69 C270.430003,291.69 271.024997,291.553335 271.535,291.28 C272.045003,291.006665 272.439999,290.628336 272.72,290.145 C273.000001,289.661664 273.14,289.113336 273.14,288.5 C273.14,287.886664 273.000001,287.338336 272.72,286.855 C272.439999,286.371664 272.045003,285.993335 271.535,285.72 C271.024997,285.446665 270.430003,285.31 269.75,285.31 L267.41,285.31 L267.41,291.69 L269.75,291.69 Z M279.44,289.45 L274.89,289.45 C274.896667,289.890002 274.999999,290.283332 275.2,290.63 C275.400001,290.976668 275.674998,291.246666 276.025,291.44 C276.375002,291.633334 276.766664,291.73 277.2,291.73 C277.553335,291.73 277.879998,291.665001 278.18,291.535 C278.480001,291.404999 278.726666,291.213335 278.92,290.96 L279.13,291.18 C278.896665,291.453335 278.613335,291.663333 278.28,291.81 C277.946665,291.956667 277.586669,292.03 277.2,292.03 C276.693331,292.03 276.241669,291.918334 275.845,291.695 C275.448331,291.471666 275.136668,291.160002 274.91,290.76 C274.683332,290.359998 274.57,289.906669 274.57,289.4 C274.57,288.893331 274.674999,288.440002 274.885,288.04 C275.095001,287.639998 275.386665,287.328334 275.76,287.105 C276.133335,286.881666 276.549998,286.77 277.01,286.77 C277.463336,286.77 277.874998,286.879999 278.245,287.1 C278.615002,287.320001 278.906666,287.626665 279.12,288.02 C279.333334,288.413335 279.44,288.859998 279.44,289.36 L279.44,289.45 Z M275.96,287.34 C275.646665,287.520001 275.396668,287.771665 275.21,288.095 C275.023332,288.418335 274.92,288.779998 274.9,289.18 L279.13,289.18 C279.103333,288.779998 278.995001,288.418335 278.805,288.095 C278.614999,287.771665 278.365002,287.520001 278.055,287.34 C277.744998,287.159999 277.396669,287.07 277.01,287.07 C276.623331,287.07 276.273335,287.159999 275.96,287.34 Z M281.735,291.695 C281.344998,291.471666 281.038334,291.160002 280.815,290.76 C280.591666,290.359998 280.48,289.906669 280.48,289.4 C280.48,288.893331 280.591666,288.440002 280.815,288.04 C281.038334,287.639998 281.344998,287.328334 281.735,287.105 C282.125002,286.881666 282.566664,286.77 283.06,286.77 C283.453335,286.77 283.818332,286.844999 284.155,286.995 C284.491668,287.145001 284.766666,287.366665 284.98,287.66 L284.73,287.87 C284.543332,287.609999 284.305001,287.413334 284.015,287.28 C283.724999,287.146666 283.406668,287.08 283.06,287.08 C282.633331,287.08 282.248335,287.178332 281.905,287.375 C281.561665,287.571668 281.293334,287.844998 281.1,288.195 C280.906666,288.545002 280.81,288.946664 280.81,289.4 C280.81,289.853336 280.906666,290.256665 281.1,290.61 C281.293334,290.963335 281.561665,291.238332 281.905,291.435 C282.248335,291.631668 282.633331,291.73 283.06,291.73 C283.406668,291.73 283.724999,291.663334 284.015,291.53 C284.305001,291.396666 284.543332,291.200001 284.73,290.94 L284.98,291.14 C284.766666,291.433335 284.491668,291.654999 284.155,291.805 C283.818332,291.955001 283.453335,292.03 283.06,292.03 C282.566664,292.03 282.125002,291.918334 281.735,291.695 Z" id="6h-5h-4h-3h-2h-1h-0h" fill="#000000"></path>
            <path d="M24.5,229.5 L276.5,229.5" id="Line-3" stroke="#EAEAEA" stroke-linecap="square"></path>
            <path d="M24.5,184.5 L276.5,184.5" id="Line-3" stroke="#EAEAEA" stroke-linecap="square"></path>
            <path d="M24.5,94.5 L276.5,94.5" id="Line-3" stroke="#EAEAEA" stroke-linecap="square"></path>
            <path d="M24.5,49.5 L276.5,49.5" id="Line-3" stroke="#EAEAEA" stroke-linecap="square"></path>
            <path d="M24.5,139.5 L276.5,139.5" id="Line-3" stroke="#EAEAEA" stroke-linecap="square"></path>
            <path d="M24.5,4.5 L276.5,4.5" id="Line-3" stroke="#EAEAEA" stroke-linecap="square"></path>
            <path d="M24.5,274.5 L276.5,274.5" id="Line-3" stroke="#EAEAEA" stroke-linecap="square"></path>
            <polyline id="Line-2" stroke="#44A1D5" stroke-width="3" stroke-linecap="square" points="23 100.155187 54.8245752 131.549718 101.132812 104.507812 140.979672 139.135656 181.389821 127.002843 212.972656 109.246094 276 178.807531"></polyline>
        </g>
    </g>
</svg>