<?xml version="1.0" encoding="UTF-8"?>
<svg width="283px" height="295px" viewBox="0 0 283 295" version="1.1" xmlns="http://www.w3.org/2000/svg" xmlns:xlink="http://www.w3.org/1999/xlink">
    <!-- Generator: Sketch 48.2 (47327) - http://www.bohemiancoding.com/sketch -->
    <title>Group</title>
    <desc>Created with Sketch.</desc>
    <defs></defs>
    <g id="statistieken" stroke="none" stroke-width="1" fill="none" fill-rule="evenodd" transform="translate(-47.000000, -261.000000)">
        <g id="Group" transform="translate(47.000000, 258.000000)">
            <path d="M5.412,7.392 C5.83600212,7.592001 6.16199886,7.87799814 6.39,8.25 C6.61800114,8.62200186 6.732,9.05599752 6.732,9.552 C6.732,10.0480025 6.61600116,10.4839981 6.384,10.86 C6.15199884,11.2360019 5.82800208,11.527999 5.412,11.736 C4.99599792,11.944001 4.5280026,12.048 4.008,12.048 C2.9279946,12.048 2.10400284,11.6760037 1.536,10.932 C0.96799716,10.1879963 0.684,9.15200664 0.684,7.824 C0.684,6.89599536 0.83599848,6.11400318 1.14,5.478 C1.44400152,4.84199682 1.86799728,4.36200162 2.412,4.038 C2.95600272,3.71399838 3.59599632,3.552 4.332,3.552 C5.10000384,3.552 5.71199772,3.6919986 6.168,3.972 L5.988,4.296 C5.59599804,4.04799876 5.04400356,3.924 4.332,3.924 C3.331995,3.924 2.5420029,4.25199672 1.962,4.908 C1.3819971,5.56400328 1.092,6.51599376 1.092,7.764 C1.092,8.21200224 1.1319996,8.635998 1.212,9.036 C1.35600072,8.42799696 1.67599752,7.95200172 2.172,7.608 C2.66800248,7.26399828 3.25999656,7.092 3.948,7.092 C4.50000276,7.092 4.98799788,7.191999 5.412,7.392 Z M5.688,11.106 C6.12000216,10.7179981 6.336,10.2040032 6.336,9.564 C6.336,8.91599676 6.11800218,8.40000192 5.682,8.016 C5.24599782,7.63199808 4.65600372,7.44 3.912,7.44 C3.4319976,7.44 3.00600186,7.53399906 2.634,7.722 C2.26199814,7.91000094 1.97200104,8.16799836 1.764,8.496 C1.55599896,8.82400164 1.452,9.187998 1.452,9.588 C1.452,9.94000176 1.54999902,10.2779984 1.746,10.602 C1.94200098,10.9260016 2.23199808,11.187999 2.616,11.388 C3.00000192,11.588001 3.45999732,11.688 3.996,11.688 C4.69200348,11.688 5.25599784,11.4940019 5.688,11.106 Z M13.26,6.402 C13.7080022,6.85400226 13.932,7.4999958 13.932,8.34 L13.932,12 L13.536,12 L13.536,8.364 C13.536,7.62799632 13.3500019,7.06600194 12.978,6.678 C12.6059981,6.28999806 12.0760034,6.096 11.388,6.096 C10.6119961,6.096 10.0000022,6.3259977 9.552,6.786 C9.10399776,7.2460023 8.88,7.86399612 8.88,8.64 L8.88,12 L8.484,12 L8.484,3.096 L8.88,3.096 L8.88,7.26 C9.08800104,6.7799976 9.4119978,6.40400136 9.852,6.132 C10.2920022,5.85999864 10.815997,5.724 11.424,5.724 C12.2000039,5.724 12.8119978,5.94999774 13.26,6.402 Z M5.286,52.818 C5.83400274,53.2380021 6.108,53.8399961 6.108,54.624 C6.108,55.0880023 6.00000108,55.5039982 5.784,55.872 C5.56799892,56.2400018 5.24600214,56.527999 4.818,56.736 C4.38999786,56.944001 3.86800308,57.048 3.252,57.048 C2.64399696,57.048 2.07600264,56.9400011 1.548,56.724 C1.01999736,56.5079989 0.62000136,56.2280017 0.348,55.884 L0.576,55.596 C0.82400124,55.9160016 1.1879976,56.175999 1.668,56.376 C2.1480024,56.576001 2.67599712,56.676 3.252,56.676 C4.04400396,56.676 4.6499979,56.4880019 5.07,56.112 C5.4900021,55.7359981 5.7,55.2400031 5.7,54.624 C5.7,53.9439966 5.4600024,53.4300017 4.98,53.082 C4.4999976,52.7339983 3.68400576,52.56 2.532,52.56 L0.9,52.56 L1.344,48.6 L5.676,48.6 L5.676,48.972 L1.68,48.972 L1.32,52.188 L2.616,52.188 C3.84800616,52.188 4.73799726,52.3979979 5.286,52.818 Z M12.732,51.402 C13.1800022,51.8540023 13.404,52.4999958 13.404,53.34 L13.404,57 L13.008,57 L13.008,53.364 C13.008,52.6279963 12.8220019,52.0660019 12.45,51.678 C12.0779981,51.2899981 11.5480034,51.096 10.86,51.096 C10.0839961,51.096 9.47200224,51.3259977 9.024,51.786 C8.57599776,52.2460023 8.352,52.8639961 8.352,53.64 L8.352,57 L7.956,57 L7.956,48.096 L8.352,48.096 L8.352,52.26 C8.56000104,51.7799976 8.8839978,51.4040014 9.324,51.132 C9.7640022,50.8599986 10.287997,50.724 10.896,50.724 C11.6720039,50.724 12.2839978,50.9499977 12.732,51.402 Z M7.584,99.576 L5.76,99.576 L5.76,102 L5.364,102 L5.364,99.576 L0.54,99.576 L0.54,99.288 L5.184,93.6 L5.652,93.6 L1.068,99.216 L5.364,99.216 L5.364,97.08 L5.76,97.08 L5.76,99.216 L7.584,99.216 L7.584,99.576 Z M13.884,96.402 C14.3320022,96.8540023 14.556,97.4999958 14.556,98.34 L14.556,102 L14.16,102 L14.16,98.364 C14.16,97.6279963 13.9740019,97.0660019 13.602,96.678 C13.2299981,96.2899981 12.7000034,96.096 12.012,96.096 C11.2359961,96.096 10.6240022,96.3259977 10.176,96.786 C9.72799776,97.2460023 9.504,97.8639961 9.504,98.64 L9.504,102 L9.108,102 L9.108,93.096 L9.504,93.096 L9.504,97.26 C9.71200104,96.7799976 10.0359978,96.4040014 10.476,96.132 C10.9160022,95.8599986 11.439997,95.724 12.048,95.724 C12.8240039,95.724 13.4359978,95.9499977 13.884,96.402 Z M5.202,142.944 C5.7020025,143.368002 5.952,143.943996 5.952,144.672 C5.952,145.384004 5.70600246,145.957998 5.214,146.394 C4.72199754,146.830002 4.02400452,147.048 3.12,147.048 C2.50399692,147.048 1.93200264,146.942001 1.404,146.73 C0.87599736,146.517999 0.47600136,146.236002 0.204,145.884 L0.42,145.596 C0.67600128,145.916002 1.04199762,146.175999 1.518,146.376 C1.99400238,146.576001 2.52399708,146.676 3.108,146.676 C3.90000396,146.676 4.5059979,146.496002 4.926,146.136 C5.3460021,145.775998 5.556,145.288003 5.556,144.672 C5.556,144.039997 5.34000216,143.548002 4.908,143.196 C4.47599784,142.843998 3.82800432,142.668 2.964,142.668 L2.496,142.668 L2.496,142.38 L5.112,138.972 L0.48,138.972 L0.48,138.6 L5.64,138.6 L5.64,138.888 L3.012,142.308 C3.9720048,142.308 4.7019975,142.519998 5.202,142.944 Z M12.732,141.402 C13.1800022,141.854002 13.404,142.499996 13.404,143.34 L13.404,147 L13.008,147 L13.008,143.364 C13.008,142.627996 12.8220019,142.066002 12.45,141.678 C12.0779981,141.289998 11.5480034,141.096 10.86,141.096 C10.0839961,141.096 9.47200224,141.325998 9.024,141.786 C8.57599776,142.246002 8.352,142.863996 8.352,143.64 L8.352,147 L7.956,147 L7.956,138.096 L8.352,138.096 L8.352,142.26 C8.56000104,141.779998 8.8839978,141.404001 9.324,141.132 C9.7640022,140.859999 10.287997,140.724 10.896,140.724 C11.6720039,140.724 12.2839978,140.949998 12.732,141.402 Z M6.192,191.628 L6.192,192 L0.504,192 L0.504,191.712 L4.104,188.088 C4.59200244,187.599998 4.92199914,187.182002 5.094,186.834 C5.26600086,186.485998 5.352,186.128002 5.352,185.76 C5.352,185.191997 5.15800194,184.744002 4.77,184.416 C4.38199806,184.087998 3.8280036,183.924 3.108,183.924 C2.5479972,183.924 2.06200206,184.005999 1.65,184.17 C1.23799794,184.334001 0.88400148,184.587998 0.588,184.932 L0.312,184.668 C0.96000324,183.923996 1.89599388,183.552 3.12,183.552 C3.92800404,183.552 4.56799764,183.747998 5.04,184.14 C5.51200236,184.532002 5.748,185.063997 5.748,185.736 C5.748,186.160002 5.65200096,186.567998 5.46,186.96 C5.26799904,187.352002 4.9120026,187.807997 4.392,188.328 L1.116,191.628 L6.192,191.628 Z M12.804,186.402 C13.2520022,186.854002 13.476,187.499996 13.476,188.34 L13.476,192 L13.08,192 L13.08,188.364 C13.08,187.627996 12.8940019,187.066002 12.522,186.678 C12.1499981,186.289998 11.6200034,186.096 10.932,186.096 C10.1559961,186.096 9.54400224,186.325998 9.096,186.786 C8.64799776,187.246002 8.424,187.863996 8.424,188.64 L8.424,192 L8.028,192 L8.028,183.096 L8.424,183.096 L8.424,187.26 C8.63200104,186.779998 8.9559978,186.404001 9.396,186.132 C9.8360022,185.859999 10.359997,185.724 10.968,185.724 C11.7440039,185.724 12.3559978,185.949998 12.804,186.402 Z M2.628,228.6 L2.628,237 L2.232,237 L2.232,228.972 L0.12,228.972 L0.12,228.6 L2.628,228.6 Z M10.272,231.402 C10.7200022,231.854002 10.944,232.499996 10.944,233.34 L10.944,237 L10.548,237 L10.548,233.364 C10.548,232.627996 10.3620019,232.066002 9.99,231.678 C9.61799814,231.289998 9.08800344,231.096 8.4,231.096 C7.62399612,231.096 7.01200224,231.325998 6.564,231.786 C6.11599776,232.246002 5.892,232.863996 5.892,233.64 L5.892,237 L5.496,237 L5.496,228.096 L5.892,228.096 L5.892,232.26 C6.10000104,231.779998 6.4239978,231.404001 6.864,231.132 C7.3040022,230.859999 7.82799696,230.724 8.436,230.724 C9.21200388,230.724 9.82399776,230.949998 10.272,231.402 Z M2.238,281.526 C1.74599754,281.177998 1.36400136,280.682003 1.092,280.038 C0.81999864,279.393997 0.684,278.648004 0.684,277.8 C0.684,276.951996 0.81999864,276.206003 1.092,275.562 C1.36400136,274.917997 1.74599754,274.422002 2.238,274.074 C2.73000246,273.725998 3.29199684,273.552 3.924,273.552 C4.5640032,273.552 5.12799756,273.725998 5.616,274.074 C6.10400244,274.422002 6.48399864,274.917997 6.756,275.562 C7.02800136,276.206003 7.164,276.951996 7.164,277.8 C7.164,278.648004 7.02800136,279.393997 6.756,280.038 C6.48399864,280.682003 6.10400244,281.177998 5.616,281.526 C5.12799756,281.874002 4.5640032,282.048 3.924,282.048 C3.29199684,282.048 2.73000246,281.874002 2.238,281.526 Z M5.412,281.208 C5.84400216,280.895998 6.17799882,280.448003 6.414,279.864 C6.65000118,279.279997 6.768,278.592004 6.768,277.8 C6.768,277.007996 6.65000118,276.320003 6.414,275.736 C6.17799882,275.151997 5.84400216,274.704002 5.412,274.392 C4.97999784,274.079998 4.4840028,273.924 3.924,273.924 C3.3639972,273.924 2.87000214,274.079998 2.442,274.392 C2.01399786,274.704002 1.68200118,275.151997 1.446,275.736 C1.20999882,276.320003 1.092,277.007996 1.092,277.8 C1.092,278.592004 1.20999882,279.279997 1.446,279.864 C1.68200118,280.448003 2.01399786,280.895998 2.442,281.208 C2.87000214,281.520002 3.3639972,281.676 3.924,281.676 C4.4840028,281.676 4.97999784,281.520002 5.412,281.208 Z M13.968,276.402 C14.4160022,276.854002 14.64,277.499996 14.64,278.34 L14.64,282 L14.244,282 L14.244,278.364 C14.244,277.627996 14.0580019,277.066002 13.686,276.678 C13.3139981,276.289998 12.7840034,276.096 12.096,276.096 C11.3199961,276.096 10.7080022,276.325998 10.26,276.786 C9.81199776,277.246002 9.588,277.863996 9.588,278.64 L9.588,282 L9.192,282 L9.192,273.096 L9.588,273.096 L9.588,277.26 C9.79600104,276.779998 10.1199978,276.404001 10.56,276.132 C11.0000022,275.859999 11.523997,275.724 12.132,275.724 C12.9080039,275.724 13.5199978,275.949998 13.968,276.402 Z M30.238,296.526 C29.7459975,296.177998 29.3640014,295.682003 29.092,295.038 C28.8199986,294.393997 28.684,293.648004 28.684,292.8 C28.684,291.951996 28.8199986,291.206003 29.092,290.562 C29.3640014,289.917997 29.7459975,289.422002 30.238,289.074 C30.7300025,288.725998 31.2919968,288.552 31.924,288.552 C32.5640032,288.552 33.1279976,288.725998 33.616,289.074 C34.1040024,289.422002 34.4839986,289.917997 34.756,290.562 C35.0280014,291.206003 35.164,291.951996 35.164,292.8 C35.164,293.648004 35.0280014,294.393997 34.756,295.038 C34.4839986,295.682003 34.1040024,296.177998 33.616,296.526 C33.1279976,296.874002 32.5640032,297.048 31.924,297.048 C31.2919968,297.048 30.7300025,296.874002 30.238,296.526 Z M33.412,296.208 C33.8440022,295.895998 34.1779988,295.448003 34.414,294.864 C34.6500012,294.279997 34.768,293.592004 34.768,292.8 C34.768,292.007996 34.6500012,291.320003 34.414,290.736 C34.1779988,290.151997 33.8440022,289.704002 33.412,289.392 C32.9799978,289.079998 32.4840028,288.924 31.924,288.924 C31.3639972,288.924 30.8700021,289.079998 30.442,289.392 C30.0139979,289.704002 29.6820012,290.151997 29.446,290.736 C29.2099988,291.320003 29.092,292.007996 29.092,292.8 C29.092,293.592004 29.2099988,294.279997 29.446,294.864 C29.6820012,295.448003 30.0139979,295.895998 30.442,296.208 C30.8700021,296.520002 31.3639972,296.676 31.924,296.676 C32.4840028,296.676 32.9799978,296.520002 33.412,296.208 Z M41.968,291.402 C42.4160022,291.854002 42.64,292.499996 42.64,293.34 L42.64,297 L42.244,297 L42.244,293.364 C42.244,292.627996 42.0580019,292.066002 41.686,291.678 C41.3139981,291.289998 40.7840034,291.096 40.096,291.096 C39.3199961,291.096 38.7080022,291.325998 38.26,291.786 C37.8119978,292.246002 37.588,292.863996 37.588,293.64 L37.588,297 L37.192,297 L37.192,288.096 L37.588,288.096 L37.588,292.26 C37.796001,291.779998 38.1199978,291.404001 38.56,291.132 C39.0000022,290.859999 39.523997,290.724 40.132,290.724 C40.9080039,290.724 41.5199978,290.949998 41.968,291.402 Z M72.736,294.576 L70.912,294.576 L70.912,297 L70.516,297 L70.516,294.576 L65.692,294.576 L65.692,294.288 L70.336,288.6 L70.804,288.6 L66.22,294.216 L70.516,294.216 L70.516,292.08 L70.912,292.08 L70.912,294.216 L72.736,294.216 L72.736,294.576 Z M79.036,291.402 C79.4840022,291.854002 79.708,292.499996 79.708,293.34 L79.708,297 L79.312,297 L79.312,293.364 C79.312,292.627996 79.1260019,292.066002 78.754,291.678 C78.3819981,291.289998 77.8520034,291.096 77.164,291.096 C76.3879961,291.096 75.7760022,291.325998 75.328,291.786 C74.8799978,292.246002 74.656,292.863996 74.656,293.64 L74.656,297 L74.26,297 L74.26,288.096 L74.656,288.096 L74.656,292.26 C74.864001,291.779998 75.1879978,291.404001 75.628,291.132 C76.0680022,290.859999 76.591997,290.724 77.2,290.724 C77.9760039,290.724 78.5879978,290.949998 79.036,291.402 Z M111.622,293.364 C111.970002,293.732002 112.144,294.183997 112.144,294.72 C112.144,295.440004 111.866003,296.007998 111.31,296.424 C110.753997,296.840002 109.988005,297.048 109.012,297.048 C108.035995,297.048 107.272003,296.840002 106.72,296.424 C106.167997,296.007998 105.892,295.440004 105.892,294.72 C105.892,294.175997 106.061998,293.722002 106.402,293.358 C106.742002,292.993998 107.231997,292.744001 107.872,292.608 C107.335997,292.479999 106.922001,292.248002 106.63,291.912 C106.337999,291.575998 106.192,291.168002 106.192,290.688 C106.192,290.031997 106.445997,289.512002 106.954,289.128 C107.462003,288.743998 108.147996,288.552 109.012,288.552 C109.876004,288.552 110.563997,288.743998 111.076,289.128 C111.588003,289.512002 111.844,290.031997 111.844,290.688 C111.844,291.168002 111.698001,291.575998 111.406,291.912 C111.113999,292.248002 110.696003,292.479999 110.152,292.608 C110.784003,292.744001 111.273998,292.995998 111.622,293.364 Z M107.236,291.966 C107.660002,292.282002 108.251996,292.44 109.012,292.44 C109.772004,292.44 110.367998,292.282002 110.8,291.966 C111.232002,291.649998 111.448,291.224003 111.448,290.688 C111.448,290.143997 111.228002,289.712002 110.788,289.392 C110.347998,289.071998 109.756004,288.912 109.012,288.912 C108.267996,288.912 107.680002,289.071998 107.248,289.392 C106.815998,289.712002 106.6,290.143997 106.6,290.688 C106.6,291.224003 106.811998,291.649998 107.236,291.966 Z M111.022,296.16 C111.506002,295.807998 111.748,295.332003 111.748,294.732 C111.748,294.131997 111.506002,293.658002 111.022,293.31 C110.537998,292.961998 109.868004,292.788 109.012,292.788 C108.155996,292.788 107.490002,292.961998 107.014,293.31 C106.537998,293.658002 106.3,294.131997 106.3,294.732 C106.3,295.340003 106.537998,295.817998 107.014,296.166 C107.490002,296.514002 108.155996,296.688 109.012,296.688 C109.868004,296.688 110.537998,296.512002 111.022,296.16 Z M118.888,291.402 C119.336002,291.854002 119.56,292.499996 119.56,293.34 L119.56,297 L119.164,297 L119.164,293.364 C119.164,292.627996 118.978002,292.066002 118.606,291.678 C118.233998,291.289998 117.704003,291.096 117.016,291.096 C116.239996,291.096 115.628002,291.325998 115.18,291.786 C114.731998,292.246002 114.508,292.863996 114.508,293.64 L114.508,297 L114.112,297 L114.112,288.096 L114.508,288.096 L114.508,292.26 C114.716001,291.779998 115.039998,291.404001 115.48,291.132 C115.920002,290.859999 116.443997,290.724 117.052,290.724 C117.828004,290.724 118.439998,290.949998 118.888,291.402 Z M144.7,288.6 L144.7,297 L144.304,297 L144.304,288.972 L142.192,288.972 L142.192,288.6 L144.7,288.6 Z M152.428,296.628 L152.428,297 L146.74,297 L146.74,296.712 L150.34,293.088 C150.828002,292.599998 151.157999,292.182002 151.33,291.834 C151.502001,291.485998 151.588,291.128002 151.588,290.76 C151.588,290.191997 151.394002,289.744002 151.006,289.416 C150.617998,289.087998 150.064004,288.924 149.344,288.924 C148.783997,288.924 148.298002,289.005999 147.886,289.17 C147.473998,289.334001 147.120001,289.587998 146.824,289.932 L146.548,289.668 C147.196003,288.923996 148.131994,288.552 149.356,288.552 C150.164004,288.552 150.803998,288.747998 151.276,289.14 C151.748002,289.532002 151.984,290.063997 151.984,290.736 C151.984,291.160002 151.888001,291.567998 151.696,291.96 C151.503999,292.352002 151.148003,292.807997 150.628,293.328 L147.352,296.628 L152.428,296.628 Z M159.04,291.402 C159.488002,291.854002 159.712,292.499996 159.712,293.34 L159.712,297 L159.316,297 L159.316,293.364 C159.316,292.627996 159.130002,292.066002 158.758,291.678 C158.385998,291.289998 157.856003,291.096 157.168,291.096 C156.391996,291.096 155.780002,291.325998 155.332,291.786 C154.883998,292.246002 154.66,292.863996 154.66,293.64 L154.66,297 L154.264,297 L154.264,288.096 L154.66,288.096 L154.66,292.26 C154.868001,291.779998 155.191998,291.404001 155.632,291.132 C156.072002,290.859999 156.595997,290.724 157.204,290.724 C157.980004,290.724 158.591998,290.949998 159.04,291.402 Z M181.816,288.6 L181.816,297 L181.42,297 L181.42,288.972 L179.308,288.972 L179.308,288.6 L181.816,288.6 Z M188.764,292.392 C189.188002,292.592001 189.513999,292.877998 189.742,293.25 C189.970001,293.622002 190.084,294.055998 190.084,294.552 C190.084,295.048002 189.968001,295.483998 189.736,295.86 C189.503999,296.236002 189.180002,296.527999 188.764,296.736 C188.347998,296.944001 187.880003,297.048 187.36,297.048 C186.279995,297.048 185.456003,296.676004 184.888,295.932 C184.319997,295.187996 184.036,294.152007 184.036,292.824 C184.036,291.895995 184.187998,291.114003 184.492,290.478 C184.796002,289.841997 185.219997,289.362002 185.764,289.038 C186.308003,288.713998 186.947996,288.552 187.684,288.552 C188.452004,288.552 189.063998,288.691999 189.52,288.972 L189.34,289.296 C188.947998,289.047999 188.396004,288.924 187.684,288.924 C186.683995,288.924 185.894003,289.251997 185.314,289.908 C184.733997,290.564003 184.444,291.515994 184.444,292.764 C184.444,293.212002 184.484,293.635998 184.564,294.036 C184.708001,293.427997 185.027998,292.952002 185.524,292.608 C186.020002,292.263998 186.611997,292.092 187.3,292.092 C187.852003,292.092 188.339998,292.191999 188.764,292.392 Z M189.04,296.106 C189.472002,295.717998 189.688,295.204003 189.688,294.564 C189.688,293.915997 189.470002,293.400002 189.034,293.016 C188.597998,292.631998 188.008004,292.44 187.264,292.44 C186.783998,292.44 186.358002,292.533999 185.986,292.722 C185.613998,292.910001 185.324001,293.167998 185.116,293.496 C184.907999,293.824002 184.804,294.187998 184.804,294.588 C184.804,294.940002 184.901999,295.277998 185.098,295.602 C185.294001,295.926002 185.583998,296.187999 185.968,296.388 C186.352002,296.588001 186.811997,296.688 187.348,296.688 C188.044003,296.688 188.607998,296.494002 189.04,296.106 Z M196.612,291.402 C197.060002,291.854002 197.284,292.499996 197.284,293.34 L197.284,297 L196.888,297 L196.888,293.364 C196.888,292.627996 196.702002,292.066002 196.33,291.678 C195.957998,291.289998 195.428003,291.096 194.74,291.096 C193.963996,291.096 193.352002,291.325998 192.904,291.786 C192.455998,292.246002 192.232,292.863996 192.232,293.64 L192.232,297 L191.836,297 L191.836,288.096 L192.232,288.096 L192.232,292.26 C192.440001,291.779998 192.763998,291.404001 193.204,291.132 C193.644002,290.859999 194.167997,290.724 194.776,290.724 C195.552004,290.724 196.163998,290.949998 196.612,291.402 Z M222.424,288.6 L222.424,297 L222.028,297 L222.028,288.972 L219.916,288.972 L219.916,288.6 L222.424,288.6 Z M230.326,293.364 C230.674002,293.732002 230.848,294.183997 230.848,294.72 C230.848,295.440004 230.570003,296.007998 230.014,296.424 C229.457997,296.840002 228.692005,297.048 227.716,297.048 C226.739995,297.048 225.976003,296.840002 225.424,296.424 C224.871997,296.007998 224.596,295.440004 224.596,294.72 C224.596,294.175997 224.765998,293.722002 225.106,293.358 C225.446002,292.993998 225.935997,292.744001 226.576,292.608 C226.039997,292.479999 225.626001,292.248002 225.334,291.912 C225.041999,291.575998 224.896,291.168002 224.896,290.688 C224.896,290.031997 225.149997,289.512002 225.658,289.128 C226.166003,288.743998 226.851996,288.552 227.716,288.552 C228.580004,288.552 229.267997,288.743998 229.78,289.128 C230.292003,289.512002 230.548,290.031997 230.548,290.688 C230.548,291.168002 230.402001,291.575998 230.11,291.912 C229.817999,292.248002 229.400003,292.479999 228.856,292.608 C229.488003,292.744001 229.977998,292.995998 230.326,293.364 Z M225.94,291.966 C226.364002,292.282002 226.955996,292.44 227.716,292.44 C228.476004,292.44 229.071998,292.282002 229.504,291.966 C229.936002,291.649998 230.152,291.224003 230.152,290.688 C230.152,290.143997 229.932002,289.712002 229.492,289.392 C229.051998,289.071998 228.460004,288.912 227.716,288.912 C226.971996,288.912 226.384002,289.071998 225.952,289.392 C225.519998,289.712002 225.304,290.143997 225.304,290.688 C225.304,291.224003 225.515998,291.649998 225.94,291.966 Z M229.726,296.16 C230.210002,295.807998 230.452,295.332003 230.452,294.732 C230.452,294.131997 230.210002,293.658002 229.726,293.31 C229.241998,292.961998 228.572004,292.788 227.716,292.788 C226.859996,292.788 226.194002,292.961998 225.718,293.31 C225.241998,293.658002 225.004,294.131997 225.004,294.732 C225.004,295.340003 225.241998,295.817998 225.718,296.166 C226.194002,296.514002 226.859996,296.688 227.716,296.688 C228.572004,296.688 229.241998,296.512002 229.726,296.16 Z M237.592,291.402 C238.040002,291.854002 238.264,292.499996 238.264,293.34 L238.264,297 L237.868,297 L237.868,293.364 C237.868,292.627996 237.682002,292.066002 237.31,291.678 C236.937998,291.289998 236.408003,291.096 235.72,291.096 C234.943996,291.096 234.332002,291.325998 233.884,291.786 C233.435998,292.246002 233.212,292.863996 233.212,293.64 L233.212,297 L232.816,297 L232.816,288.096 L233.212,288.096 L233.212,292.26 C233.420001,291.779998 233.743998,291.404001 234.184,291.132 C234.624002,290.859999 235.147997,290.724 235.756,290.724 C236.532004,290.724 237.143998,290.949998 237.592,291.402 Z M266.968,296.628 L266.968,297 L261.28,297 L261.28,296.712 L264.88,293.088 C265.368002,292.599998 265.697999,292.182002 265.87,291.834 C266.042001,291.485998 266.128,291.128002 266.128,290.76 C266.128,290.191997 265.934002,289.744002 265.546,289.416 C265.157998,289.087998 264.604004,288.924 263.884,288.924 C263.323997,288.924 262.838002,289.005999 262.426,289.17 C262.013998,289.334001 261.660001,289.587998 261.364,289.932 L261.088,289.668 C261.736003,288.923996 262.671994,288.552 263.896,288.552 C264.704004,288.552 265.343998,288.747998 265.816,289.14 C266.288002,289.532002 266.524,290.063997 266.524,290.736 C266.524,291.160002 266.428001,291.567998 266.236,291.96 C266.043999,292.352002 265.688003,292.807997 265.168,293.328 L261.892,296.628 L266.968,296.628 Z M275.056,294.576 L273.232,294.576 L273.232,297 L272.836,297 L272.836,294.576 L268.012,294.576 L268.012,294.288 L272.656,288.6 L273.124,288.6 L268.54,294.216 L272.836,294.216 L272.836,292.08 L273.232,292.08 L273.232,294.216 L275.056,294.216 L275.056,294.576 Z M281.356,291.402 C281.804002,291.854002 282.028,292.499996 282.028,293.34 L282.028,297 L281.632,297 L281.632,293.364 C281.632,292.627996 281.446002,292.066002 281.074,291.678 C280.701998,291.289998 280.172003,291.096 279.484,291.096 C278.707996,291.096 278.096002,291.325998 277.648,291.786 C277.199998,292.246002 276.976,292.863996 276.976,293.64 L276.976,297 L276.58,297 L276.58,288.096 L276.976,288.096 L276.976,292.26 C277.184001,291.779998 277.507998,291.404001 277.948,291.132 C278.388002,290.859999 278.911997,290.724 279.52,290.724 C280.296004,290.724 280.907998,290.949998 281.356,291.402 Z" id="6h-5h-4h-3h-2h-1h-0h" fill="#000000"></path>
            <path d="M24.5,232.5 L276.5,232.5" id="Line-3" stroke="#EAEAEA" stroke-linecap="square"></path>
            <path d="M24.5,187.5 L276.5,187.5" id="Line-3" stroke="#EAEAEA" stroke-linecap="square"></path>
            <path d="M24.5,97.5 L276.5,97.5" id="Line-3" stroke="#EAEAEA" stroke-linecap="square"></path>
            <path d="M24.5,52.5 L276.5,52.5" id="Line-3" stroke="#EAEAEA" stroke-linecap="square"></path>
            <path d="M24.5,142.5 L276.5,142.5" id="Line-3" stroke="#EAEAEA" stroke-linecap="square"></path>
            <path d="M24.5,7.5 L276.5,7.5" id="Line-3" stroke="#EAEAEA" stroke-linecap="square"></path>
            <path d="M24.5,277.5 L276.5,277.5" id="Line-3" stroke="#EAEAEA" stroke-linecap="square"></path>
            <polyline id="Line-2" stroke="#44A1D5" stroke-width="3" stroke-linecap="square" points="23 103.155187 54.8245752 134.549718 99.168659 122.866124 140.979672 142.135656 181.389821 130.002843 225.42707 189 276 181.807531"></polyline>
        </g>
    </g>
</svg>