<?xml version="1.0" encoding="UTF-8"?>
<svg width="72px" height="48px" viewBox="0 0 72 48" version="1.1" xmlns="http://www.w3.org/2000/svg" xmlns:xlink="http://www.w3.org/1999/xlink">
    <!-- Generator: Sketch 48.2 (47327) - http://www.bohemiancoding.com/sketch -->
    <title>Group 2</title>
    <desc>Created with Sketch.</desc>
    <defs></defs>
    <g id="uitleg-2" stroke="none" stroke-width="1" fill="none" fill-rule="evenodd" transform="translate(-151.000000, -212.000000)">
        <g id="Group" transform="translate(151.000000, 212.000000)" fill="#FFFFFF" fill-rule="nonzero">
            <g id="Group-2">
                <path d="M2.42365621,33.1292727 C1.39536139,34.5825829 0.848481198,36.3216619 0.859926162,38.1019343 L0.859926162,45.7876675 C0.859926162,46.6512917 1.56003195,47.3513975 2.42365621,47.3513975 L69.9767941,47.3513975 C70.8404184,47.3513975 71.5405241,46.6512917 71.5405241,45.7876675 L71.5405241,38.1019343 C71.5519691,36.3216619 71.0050889,34.5825829 69.9767941,33.1292727 C66.7961138,28.4905977 61.527615,25.7246358 55.9032237,25.7406483 C53.3572859,25.7244409 50.8411333,26.2886366 48.5458738,27.3903835 C45.0304876,24.6245551 40.6728339,23.1480859 36.2002252,23.2074056 C31.7232169,23.1422686 27.3595572,24.6161423 23.8389392,27.3825648 C21.5430419,26.2835169 19.0269189,25.7220017 16.4815893,25.7406483 C10.8627255,25.7298099 5.60121604,28.495175 2.42365621,33.1292727 Z M67.4357328,34.9431996 C68.0797067,35.8586889 68.4239006,36.9513679 68.4208827,38.0706597 L68.4209024,44.1926628 L54.6287837,44.1926628 L54.6287837,37.1558776 C54.6373829,35.4662388 54.1449116,33.8119705 53.213608,32.4021383 C52.5643697,31.4515577 51.8429228,30.552363 51.0556606,29.7125226 C57.0631228,27.5422241 63.778825,29.6898363 67.4122768,34.9431996 L67.4357328,34.9431996 Z M50.6178162,34.1613346 C51.206519,35.0572034 51.5166732,36.1073749 51.5091423,37.1793336 L51.5092762,44.2161188 L20.8989927,44.2161188 L20.8991267,37.1793336 C20.8915957,36.1073749 21.20175,35.0572034 21.7904528,34.1613346 C24.9648361,29.2872393 30.3874762,26.347595 36.2041345,26.347595 C42.0207928,26.347595 47.4434329,29.2872393 50.6178162,34.1613346 Z M16.4815893,28.8681084 C18.1400341,28.8573979 19.7870283,29.1433712 21.3447897,29.7125226 C20.5613403,30.5654457 19.8450969,31.4777411 19.2024796,32.4412315 C18.271176,33.8510637 17.7787047,35.5053321 17.7873039,37.1949709 L17.7873039,44.2317561 L3.98736657,44.2317561 L3.98738625,38.1019343 C3.98436837,36.9826425 4.32856225,35.8899635 4.97253618,34.9744742 C7.56418693,31.1623106 11.8719071,28.8767607 16.4815893,28.8681084 Z" id="Shape"></path>
                <path d="M46.6614031,10.5313036 C46.6614031,5.00842651 42.1842266,0.53125 36.6613495,0.53125 C31.1384724,0.53125 26.6612958,5.00842651 26.6612958,10.5313036 C26.6612958,16.0541807 31.1384724,20.5313573 36.6613495,20.5313573 C42.1824397,20.5270456 46.6570914,16.0523938 46.6614031,10.5313036 Z M29.7965746,10.5313036 C29.7965764,7.7508879 31.4718773,5.24439768 34.0409495,4.18111053 C36.6100217,3.11782338 39.5666592,3.70724777 41.5315907,5.67441725 C43.4965222,7.64158673 44.0825807,10.5988932 43.0163698,13.1667535 C41.950159,15.7346137 39.4417634,17.4070603 36.6613495,17.4038972 C32.867507,17.3995884 29.7930647,14.3251461 29.7887559,10.5313036 L29.7965746,10.5313036 Z" id="Shape"></path>
                <path d="M25,16.5 C25,11.8055796 21.1944204,8 16.5,8 C11.8055796,8 8,11.8055796 8,16.5 C8,21.1944204 11.8055796,25 16.5,25 C18.7543402,25 20.9163484,24.1044669 22.5104076,22.5104076 C24.1044669,20.9163484 25,18.7543402 25,16.5 Z M11.0909091,16.5 C11.0909091,13.5126416 13.5126416,11.0909091 16.5,11.0909091 C19.4873584,11.0909091 21.9090909,13.5126416 21.9090909,16.5 C21.9090909,19.4873584 19.4873584,21.9090909 16.5,21.9090909 C13.5186787,21.9005728 11.1063515,19.4813334 11.1063636,16.5 L11.0909091,16.5 Z" id="Shape"></path>
                <path d="M65,16.5 C65,11.8055796 61.1944204,8 56.5,8 C51.8055796,8 48,11.8055796 48,16.5 C48,21.1944204 51.8055796,25 56.5,25 C58.7543402,25 60.9163484,24.1044669 62.5104076,22.5104076 C64.1044669,20.9163484 65,18.7543402 65,16.5 Z M51.0909091,16.5 C51.0909091,13.5126416 53.5126416,11.0909091 56.5,11.0909091 C59.4873584,11.0909091 61.9090909,13.5126416 61.9090909,16.5 C61.9090909,19.4873584 59.4873584,21.9090909 56.5,21.9090909 C53.5186787,21.9005728 51.1063515,19.4813334 51.1063636,16.5 L51.0909091,16.5 Z" id="Shape"></path>
            </g>
        </g>
    </g>
</svg>