<?xml version="1.0" encoding="UTF-8"?>
<svg width="296px" height="295px" viewBox="0 0 296 295" version="1.1" xmlns="http://www.w3.org/2000/svg" xmlns:xlink="http://www.w3.org/1999/xlink">
    <!-- Generator: Sketch 48.2 (47327) - http://www.bohemiancoding.com/sketch -->
    <title>Group</title>
    <desc>Created with Sketch.</desc>
    <defs></defs>
    <g id="statistieken" stroke="none" stroke-width="1" fill="none" fill-rule="evenodd" transform="translate(-47.000000, -261.000000)">
        <g id="Group" transform="translate(47.000000, 261.000000)">
            <path d="M5.412,4.392 C5.83600212,4.592001 6.16199886,4.87799814 6.39,5.25 C6.61800114,5.62200186 6.732,6.05599752 6.732,6.552 C6.732,7.04800248 6.61600116,7.48399812 6.384,7.86 C6.15199884,8.23600188 5.82800208,8.52799896 5.412,8.736 C4.99599792,8.94400104 4.5280026,9.048 4.008,9.048 C2.9279946,9.048 2.10400284,8.67600372 1.536,7.932 C0.96799716,7.18799628 0.684,6.15200664 0.684,4.824 C0.684,3.89599536 0.83599848,3.11400318 1.14,2.478 C1.44400152,1.84199682 1.86799728,1.36200162 2.412,1.038 C2.95600272,0.71399838 3.59599632,0.552 4.332,0.552 C5.10000384,0.552 5.71199772,0.6919986 6.168,0.972 L5.988,1.296 C5.59599804,1.04799876 5.04400356,0.924 4.332,0.924 C3.331995,0.924 2.5420029,1.25199672 1.962,1.908 C1.3819971,2.56400328 1.092,3.51599376 1.092,4.764 C1.092,5.21200224 1.1319996,5.635998 1.212,6.036 C1.35600072,5.42799696 1.67599752,4.95200172 2.172,4.608 C2.66800248,4.26399828 3.25999656,4.092 3.948,4.092 C4.50000276,4.092 4.98799788,4.191999 5.412,4.392 Z M5.688,8.106 C6.12000216,7.71799806 6.336,7.2040032 6.336,6.564 C6.336,5.91599676 6.11800218,5.40000192 5.682,5.016 C5.24599782,4.63199808 4.65600372,4.44 3.912,4.44 C3.4319976,4.44 3.00600186,4.53399906 2.634,4.722 C2.26199814,4.91000094 1.97200104,5.16799836 1.764,5.496 C1.55599896,5.82400164 1.452,6.187998 1.452,6.588 C1.452,6.94000176 1.54999902,7.27799838 1.746,7.602 C1.94200098,7.92600162 2.23199808,8.187999 2.616,8.388 C3.00000192,8.588001 3.45999732,8.688 3.996,8.688 C4.69200348,8.688 5.25599784,8.49400194 5.688,8.106 Z M13.26,3.402 C13.7080022,3.85400226 13.932,4.4999958 13.932,5.34 L13.932,9 L13.536,9 L13.536,5.364 C13.536,4.62799632 13.3500019,4.06600194 12.978,3.678 C12.6059981,3.28999806 12.0760034,3.096 11.388,3.096 C10.6119961,3.096 10.0000022,3.3259977 9.552,3.786 C9.10399776,4.2460023 8.88,4.86399612 8.88,5.64 L8.88,9 L8.484,9 L8.484,0.096 L8.88,0.096 L8.88,4.26 C9.08800104,3.7799976 9.4119978,3.40400136 9.852,3.132 C10.2920022,2.85999864 10.815997,2.724 11.424,2.724 C12.2000039,2.724 12.8119978,2.94999774 13.26,3.402 Z M5.286,49.818 C5.83400274,50.2380021 6.108,50.8399961 6.108,51.624 C6.108,52.0880023 6.00000108,52.5039982 5.784,52.872 C5.56799892,53.2400018 5.24600214,53.527999 4.818,53.736 C4.38999786,53.944001 3.86800308,54.048 3.252,54.048 C2.64399696,54.048 2.07600264,53.9400011 1.548,53.724 C1.01999736,53.5079989 0.62000136,53.2280017 0.348,52.884 L0.576,52.596 C0.82400124,52.9160016 1.1879976,53.175999 1.668,53.376 C2.1480024,53.576001 2.67599712,53.676 3.252,53.676 C4.04400396,53.676 4.6499979,53.4880019 5.07,53.112 C5.4900021,52.7359981 5.7,52.2400031 5.7,51.624 C5.7,50.9439966 5.4600024,50.4300017 4.98,50.082 C4.4999976,49.7339983 3.68400576,49.56 2.532,49.56 L0.9,49.56 L1.344,45.6 L5.676,45.6 L5.676,45.972 L1.68,45.972 L1.32,49.188 L2.616,49.188 C3.84800616,49.188 4.73799726,49.3979979 5.286,49.818 Z M12.732,48.402 C13.1800022,48.8540023 13.404,49.4999958 13.404,50.34 L13.404,54 L13.008,54 L13.008,50.364 C13.008,49.6279963 12.8220019,49.0660019 12.45,48.678 C12.0779981,48.2899981 11.5480034,48.096 10.86,48.096 C10.0839961,48.096 9.47200224,48.3259977 9.024,48.786 C8.57599776,49.2460023 8.352,49.8639961 8.352,50.64 L8.352,54 L7.956,54 L7.956,45.096 L8.352,45.096 L8.352,49.26 C8.56000104,48.7799976 8.8839978,48.4040014 9.324,48.132 C9.7640022,47.8599986 10.287997,47.724 10.896,47.724 C11.6720039,47.724 12.2839978,47.9499977 12.732,48.402 Z M7.584,96.576 L5.76,96.576 L5.76,99 L5.364,99 L5.364,96.576 L0.54,96.576 L0.54,96.288 L5.184,90.6 L5.652,90.6 L1.068,96.216 L5.364,96.216 L5.364,94.08 L5.76,94.08 L5.76,96.216 L7.584,96.216 L7.584,96.576 Z M13.884,93.402 C14.3320022,93.8540023 14.556,94.4999958 14.556,95.34 L14.556,99 L14.16,99 L14.16,95.364 C14.16,94.6279963 13.9740019,94.0660019 13.602,93.678 C13.2299981,93.2899981 12.7000034,93.096 12.012,93.096 C11.2359961,93.096 10.6240022,93.3259977 10.176,93.786 C9.72799776,94.2460023 9.504,94.8639961 9.504,95.64 L9.504,99 L9.108,99 L9.108,90.096 L9.504,90.096 L9.504,94.26 C9.71200104,93.7799976 10.0359978,93.4040014 10.476,93.132 C10.9160022,92.8599986 11.439997,92.724 12.048,92.724 C12.8240039,92.724 13.4359978,92.9499977 13.884,93.402 Z M5.202,139.944 C5.7020025,140.368002 5.952,140.943996 5.952,141.672 C5.952,142.384004 5.70600246,142.957998 5.214,143.394 C4.72199754,143.830002 4.02400452,144.048 3.12,144.048 C2.50399692,144.048 1.93200264,143.942001 1.404,143.73 C0.87599736,143.517999 0.47600136,143.236002 0.204,142.884 L0.42,142.596 C0.67600128,142.916002 1.04199762,143.175999 1.518,143.376 C1.99400238,143.576001 2.52399708,143.676 3.108,143.676 C3.90000396,143.676 4.5059979,143.496002 4.926,143.136 C5.3460021,142.775998 5.556,142.288003 5.556,141.672 C5.556,141.039997 5.34000216,140.548002 4.908,140.196 C4.47599784,139.843998 3.82800432,139.668 2.964,139.668 L2.496,139.668 L2.496,139.38 L5.112,135.972 L0.48,135.972 L0.48,135.6 L5.64,135.6 L5.64,135.888 L3.012,139.308 C3.9720048,139.308 4.7019975,139.519998 5.202,139.944 Z M12.732,138.402 C13.1800022,138.854002 13.404,139.499996 13.404,140.34 L13.404,144 L13.008,144 L13.008,140.364 C13.008,139.627996 12.8220019,139.066002 12.45,138.678 C12.0779981,138.289998 11.5480034,138.096 10.86,138.096 C10.0839961,138.096 9.47200224,138.325998 9.024,138.786 C8.57599776,139.246002 8.352,139.863996 8.352,140.64 L8.352,144 L7.956,144 L7.956,135.096 L8.352,135.096 L8.352,139.26 C8.56000104,138.779998 8.8839978,138.404001 9.324,138.132 C9.7640022,137.859999 10.287997,137.724 10.896,137.724 C11.6720039,137.724 12.2839978,137.949998 12.732,138.402 Z M6.192,188.628 L6.192,189 L0.504,189 L0.504,188.712 L4.104,185.088 C4.59200244,184.599998 4.92199914,184.182002 5.094,183.834 C5.26600086,183.485998 5.352,183.128002 5.352,182.76 C5.352,182.191997 5.15800194,181.744002 4.77,181.416 C4.38199806,181.087998 3.8280036,180.924 3.108,180.924 C2.5479972,180.924 2.06200206,181.005999 1.65,181.17 C1.23799794,181.334001 0.88400148,181.587998 0.588,181.932 L0.312,181.668 C0.96000324,180.923996 1.89599388,180.552 3.12,180.552 C3.92800404,180.552 4.56799764,180.747998 5.04,181.14 C5.51200236,181.532002 5.748,182.063997 5.748,182.736 C5.748,183.160002 5.65200096,183.567998 5.46,183.96 C5.26799904,184.352002 4.9120026,184.807997 4.392,185.328 L1.116,188.628 L6.192,188.628 Z M12.804,183.402 C13.2520022,183.854002 13.476,184.499996 13.476,185.34 L13.476,189 L13.08,189 L13.08,185.364 C13.08,184.627996 12.8940019,184.066002 12.522,183.678 C12.1499981,183.289998 11.6200034,183.096 10.932,183.096 C10.1559961,183.096 9.54400224,183.325998 9.096,183.786 C8.64799776,184.246002 8.424,184.863996 8.424,185.64 L8.424,189 L8.028,189 L8.028,180.096 L8.424,180.096 L8.424,184.26 C8.63200104,183.779998 8.9559978,183.404001 9.396,183.132 C9.8360022,182.859999 10.359997,182.724 10.968,182.724 C11.7440039,182.724 12.3559978,182.949998 12.804,183.402 Z M2.628,225.6 L2.628,234 L2.232,234 L2.232,225.972 L0.12,225.972 L0.12,225.6 L2.628,225.6 Z M10.272,228.402 C10.7200022,228.854002 10.944,229.499996 10.944,230.34 L10.944,234 L10.548,234 L10.548,230.364 C10.548,229.627996 10.3620019,229.066002 9.99,228.678 C9.61799814,228.289998 9.08800344,228.096 8.4,228.096 C7.62399612,228.096 7.01200224,228.325998 6.564,228.786 C6.11599776,229.246002 5.892,229.863996 5.892,230.64 L5.892,234 L5.496,234 L5.496,225.096 L5.892,225.096 L5.892,229.26 C6.10000104,228.779998 6.4239978,228.404001 6.864,228.132 C7.3040022,227.859999 7.82799696,227.724 8.436,227.724 C9.21200388,227.724 9.82399776,227.949998 10.272,228.402 Z M2.238,278.526 C1.74599754,278.177998 1.36400136,277.682003 1.092,277.038 C0.81999864,276.393997 0.684,275.648004 0.684,274.8 C0.684,273.951996 0.81999864,273.206003 1.092,272.562 C1.36400136,271.917997 1.74599754,271.422002 2.238,271.074 C2.73000246,270.725998 3.29199684,270.552 3.924,270.552 C4.5640032,270.552 5.12799756,270.725998 5.616,271.074 C6.10400244,271.422002 6.48399864,271.917997 6.756,272.562 C7.02800136,273.206003 7.164,273.951996 7.164,274.8 C7.164,275.648004 7.02800136,276.393997 6.756,277.038 C6.48399864,277.682003 6.10400244,278.177998 5.616,278.526 C5.12799756,278.874002 4.5640032,279.048 3.924,279.048 C3.29199684,279.048 2.73000246,278.874002 2.238,278.526 Z M5.412,278.208 C5.84400216,277.895998 6.17799882,277.448003 6.414,276.864 C6.65000118,276.279997 6.768,275.592004 6.768,274.8 C6.768,274.007996 6.65000118,273.320003 6.414,272.736 C6.17799882,272.151997 5.84400216,271.704002 5.412,271.392 C4.97999784,271.079998 4.4840028,270.924 3.924,270.924 C3.3639972,270.924 2.87000214,271.079998 2.442,271.392 C2.01399786,271.704002 1.68200118,272.151997 1.446,272.736 C1.20999882,273.320003 1.092,274.007996 1.092,274.8 C1.092,275.592004 1.20999882,276.279997 1.446,276.864 C1.68200118,277.448003 2.01399786,277.895998 2.442,278.208 C2.87000214,278.520002 3.3639972,278.676 3.924,278.676 C4.4840028,278.676 4.97999784,278.520002 5.412,278.208 Z M13.968,273.402 C14.4160022,273.854002 14.64,274.499996 14.64,275.34 L14.64,279 L14.244,279 L14.244,275.364 C14.244,274.627996 14.0580019,274.066002 13.686,273.678 C13.3139981,273.289998 12.7840034,273.096 12.096,273.096 C11.3199961,273.096 10.7080022,273.325998 10.26,273.786 C9.81199776,274.246002 9.588,274.863996 9.588,275.64 L9.588,279 L9.192,279 L9.192,270.096 L9.588,270.096 L9.588,274.26 C9.79600104,273.779998 10.1199978,273.404001 10.56,273.132 C11.0000022,272.859999 11.523997,272.724 12.132,272.724 C12.9080039,272.724 13.5199978,272.949998 13.968,273.402 Z M30.628,285.6 L30.628,294 L30.232,294 L30.232,285.972 L28.12,285.972 L28.12,285.6 L30.628,285.6 Z M37.784,286.58 L37.784,294 L37.464,294 L37.464,292.58 C37.2706657,293.033336 36.9756687,293.388332 36.579,293.645 C36.1823313,293.901668 35.7306692,294.03 35.224,294.03 C34.7506643,294.03 34.3206686,293.918334 33.934,293.695 C33.5473314,293.471666 33.2423345,293.160002 33.019,292.76 C32.7956656,292.359998 32.684,291.906669 32.684,291.4 C32.684,290.893331 32.7956656,290.440002 33.019,290.04 C33.2423345,289.639998 33.5473314,289.328334 33.934,289.105 C34.3206686,288.881666 34.7506643,288.77 35.224,288.77 C35.7240025,288.77 36.1723314,288.896665 36.569,289.15 C36.9656686,289.403335 37.2606657,289.753331 37.454,290.2 L37.454,286.58 L37.784,286.58 Z M36.369,293.435 C36.7056683,293.238332 36.9706657,292.963335 37.164,292.61 C37.3573343,292.256665 37.454,291.853336 37.454,291.4 C37.454,290.946664 37.3573343,290.545002 37.164,290.195 C36.9706657,289.844998 36.7056683,289.571668 36.369,289.375 C36.0323317,289.178332 35.6540021,289.08 35.234,289.08 C34.8139979,289.08 34.4356684,289.178332 34.099,289.375 C33.7623317,289.571668 33.4973343,289.844998 33.304,290.195 C33.1106657,290.545002 33.014,290.946664 33.014,291.4 C33.014,291.853336 33.1106657,292.256665 33.304,292.61 C33.4973343,292.963335 33.7623317,293.238332 34.099,293.435 C34.4356684,293.631668 34.8139979,293.73 35.234,293.73 C35.6540021,293.73 36.0323317,293.631668 36.369,293.435 Z M44.284,291.45 L39.734,291.45 C39.7406667,291.890002 39.843999,292.283332 40.044,292.63 C40.244001,292.976668 40.5189983,293.246666 40.869,293.44 C41.2190018,293.633334 41.6106645,293.73 42.044,293.73 C42.3973351,293.73 42.7239985,293.665001 43.024,293.535 C43.3240015,293.404999 43.5706657,293.213335 43.764,292.96 L43.974,293.18 C43.7406655,293.453335 43.457335,293.663333 43.124,293.81 C42.790665,293.956667 42.4306686,294.03 42.044,294.03 C41.5373308,294.03 41.0856687,293.918334 40.689,293.695 C40.2923314,293.471666 39.9806678,293.160002 39.754,292.76 C39.5273322,292.359998 39.414,291.906669 39.414,291.4 C39.414,290.893331 39.518999,290.440002 39.729,290.04 C39.9390011,289.639998 40.2306648,289.328334 40.604,289.105 C40.9773352,288.881666 41.3939977,288.77 41.854,288.77 C42.3073356,288.77 42.7189982,288.879999 43.089,289.1 C43.4590019,289.320001 43.7506656,289.626665 43.964,290.02 C44.1773344,290.413335 44.284,290.859998 44.284,291.36 L44.284,291.45 Z M40.804,289.34 C40.4906651,289.520001 40.2406676,289.771665 40.054,290.095 C39.8673324,290.418335 39.7640001,290.779998 39.744,291.18 L43.974,291.18 C43.9473332,290.779998 43.839001,290.418335 43.649,290.095 C43.4589991,289.771665 43.2090016,289.520001 42.899,289.34 C42.5889985,289.159999 42.2406686,289.07 41.854,289.07 C41.4673314,289.07 41.1173349,289.159999 40.804,289.34 Z M46.579,293.695 C46.188998,293.471666 45.8823345,293.160002 45.659,292.76 C45.4356656,292.359998 45.324,291.906669 45.324,291.4 C45.324,290.893331 45.4356656,290.440002 45.659,290.04 C45.8823345,289.639998 46.188998,289.328334 46.579,289.105 C46.9690019,288.881666 47.4106642,288.77 47.904,288.77 C48.2973353,288.77 48.6623316,288.844999 48.999,288.995 C49.3356684,289.145001 49.6106656,289.366665 49.824,289.66 L49.574,289.87 C49.3873324,289.609999 49.1490015,289.413334 48.859,289.28 C48.5689986,289.146666 48.2506684,289.08 47.904,289.08 C47.4773312,289.08 47.0923351,289.178332 46.749,289.375 C46.405665,289.571668 46.1373343,289.844998 45.944,290.195 C45.7506657,290.545002 45.654,290.946664 45.654,291.4 C45.654,291.853336 45.7506657,292.256665 45.944,292.61 C46.1373343,292.963335 46.405665,293.238332 46.749,293.435 C47.0923351,293.631668 47.4773312,293.73 47.904,293.73 C48.2506684,293.73 48.5689986,293.663334 48.859,293.53 C49.1490015,293.396666 49.3873324,293.200001 49.574,292.94 L49.824,293.14 C49.6106656,293.433335 49.3356684,293.654999 48.999,293.805 C48.6623316,293.955001 48.2973353,294.03 47.904,294.03 C47.4106642,294.03 46.9690019,293.918334 46.579,293.695 Z M70.38,289.392 C70.8040021,289.592001 71.1299989,289.877998 71.358,290.25 C71.5860011,290.622002 71.7,291.055998 71.7,291.552 C71.7,292.048002 71.5840012,292.483998 71.352,292.86 C71.1199988,293.236002 70.7960021,293.527999 70.38,293.736 C69.9639979,293.944001 69.4960026,294.048 68.976,294.048 C67.8959946,294.048 67.0720028,293.676004 66.504,292.932 C65.9359972,292.187996 65.652,291.152007 65.652,289.824 C65.652,288.895995 65.8039985,288.114003 66.108,287.478 C66.4120015,286.841997 66.8359973,286.362002 67.38,286.038 C67.9240027,285.713998 68.5639963,285.552 69.3,285.552 C70.0680038,285.552 70.6799977,285.691999 71.136,285.972 L70.956,286.296 C70.563998,286.047999 70.0120036,285.924 69.3,285.924 C68.299995,285.924 67.5100029,286.251997 66.93,286.908 C66.3499971,287.564003 66.06,288.515994 66.06,289.764 C66.06,290.212002 66.0999996,290.635998 66.18,291.036 C66.3240007,290.427997 66.6439975,289.952002 67.14,289.608 C67.6360025,289.263998 68.2279966,289.092 68.916,289.092 C69.4680028,289.092 69.9559979,289.191999 70.38,289.392 Z M70.656,293.106 C71.0880022,292.717998 71.304,292.204003 71.304,291.564 C71.304,290.915997 71.0860022,290.400002 70.65,290.016 C70.2139978,289.631998 69.6240037,289.44 68.88,289.44 C68.3999976,289.44 67.9740019,289.533999 67.602,289.722 C67.2299981,289.910001 66.940001,290.167998 66.732,290.496 C66.523999,290.824002 66.42,291.187998 66.42,291.588 C66.42,291.940002 66.517999,292.277998 66.714,292.602 C66.910001,292.926002 67.1999981,293.187999 67.584,293.388 C67.9680019,293.588001 68.4279973,293.688 68.964,293.688 C69.6600035,293.688 70.2239978,293.494002 70.656,293.106 Z M77.74,286.58 L77.74,294 L77.42,294 L77.42,292.58 C77.2266657,293.033336 76.9316686,293.388332 76.535,293.645 C76.1383313,293.901668 75.6866692,294.03 75.18,294.03 C74.7066643,294.03 74.2766686,293.918334 73.89,293.695 C73.5033314,293.471666 73.1983344,293.160002 72.975,292.76 C72.7516655,292.359998 72.64,291.906669 72.64,291.4 C72.64,290.893331 72.7516655,290.440002 72.975,290.04 C73.1983344,289.639998 73.5033314,289.328334 73.89,289.105 C74.2766686,288.881666 74.7066643,288.77 75.18,288.77 C75.6800025,288.77 76.1283313,288.896665 76.525,289.15 C76.9216687,289.403335 77.2166657,289.753331 77.41,290.2 L77.41,286.58 L77.74,286.58 Z M76.325,293.435 C76.6616684,293.238332 76.9266657,292.963335 77.12,292.61 C77.3133343,292.256665 77.41,291.853336 77.41,291.4 C77.41,290.946664 77.3133343,290.545002 77.12,290.195 C76.9266657,289.844998 76.6616684,289.571668 76.325,289.375 C75.9883317,289.178332 75.6100021,289.08 75.19,289.08 C74.7699979,289.08 74.3916684,289.178332 74.055,289.375 C73.7183317,289.571668 73.4533343,289.844998 73.26,290.195 C73.0666657,290.545002 72.97,290.946664 72.97,291.4 C72.97,291.853336 73.0666657,292.256665 73.26,292.61 C73.4533343,292.963335 73.7183317,293.238332 74.055,293.435 C74.3916684,293.631668 74.7699979,293.73 75.19,293.73 C75.6100021,293.73 75.9883317,293.631668 76.325,293.435 Z M84.24,291.45 L79.69,291.45 C79.6966667,291.890002 79.799999,292.283332 80,292.63 C80.200001,292.976668 80.4749982,293.246666 80.825,293.44 C81.1750018,293.633334 81.5666645,293.73 82,293.73 C82.3533351,293.73 82.6799985,293.665001 82.98,293.535 C83.2800015,293.404999 83.5266657,293.213335 83.72,292.96 L83.93,293.18 C83.6966655,293.453335 83.413335,293.663333 83.08,293.81 C82.746665,293.956667 82.3866686,294.03 82,294.03 C81.4933308,294.03 81.0416687,293.918334 80.645,293.695 C80.2483314,293.471666 79.9366678,293.160002 79.71,292.76 C79.4833322,292.359998 79.37,291.906669 79.37,291.4 C79.37,290.893331 79.4749989,290.440002 79.685,290.04 C79.8950011,289.639998 80.1866648,289.328334 80.56,289.105 C80.9333352,288.881666 81.3499977,288.77 81.81,288.77 C82.2633356,288.77 82.6749982,288.879999 83.045,289.1 C83.4150019,289.320001 83.7066656,289.626665 83.92,290.02 C84.1333344,290.413335 84.24,290.859998 84.24,291.36 L84.24,291.45 Z M80.76,289.34 C80.4466651,289.520001 80.1966676,289.771665 80.01,290.095 C79.8233324,290.418335 79.7200001,290.779998 79.7,291.18 L83.93,291.18 C83.9033332,290.779998 83.795001,290.418335 83.605,290.095 C83.414999,289.771665 83.1650015,289.520001 82.855,289.34 C82.5449984,289.159999 82.1966686,289.07 81.81,289.07 C81.4233314,289.07 81.0733349,289.159999 80.76,289.34 Z M86.535,293.695 C86.1449981,293.471666 85.8383345,293.160002 85.615,292.76 C85.3916656,292.359998 85.28,291.906669 85.28,291.4 C85.28,290.893331 85.3916656,290.440002 85.615,290.04 C85.8383345,289.639998 86.1449981,289.328334 86.535,289.105 C86.925002,288.881666 87.3666642,288.77 87.86,288.77 C88.2533353,288.77 88.6183317,288.844999 88.955,288.995 C89.2916684,289.145001 89.5666656,289.366665 89.78,289.66 L89.53,289.87 C89.3433324,289.609999 89.1050015,289.413334 88.815,289.28 C88.5249986,289.146666 88.2066684,289.08 87.86,289.08 C87.4333312,289.08 87.0483351,289.178332 86.705,289.375 C86.361665,289.571668 86.0933343,289.844998 85.9,290.195 C85.7066657,290.545002 85.61,290.946664 85.61,291.4 C85.61,291.853336 85.7066657,292.256665 85.9,292.61 C86.0933343,292.963335 86.361665,293.238332 86.705,293.435 C87.0483351,293.631668 87.4333312,293.73 87.86,293.73 C88.2066684,293.73 88.5249986,293.663334 88.815,293.53 C89.1050015,293.396666 89.3433324,293.200001 89.53,292.94 L89.78,293.14 C89.5666656,293.433335 89.2916684,293.654999 88.955,293.805 C88.6183317,293.955001 88.2533353,294.03 87.86,294.03 C87.3666642,294.03 86.925002,293.918334 86.535,293.695 Z M105.022,285.6 L105.022,294 L104.626,294 L104.626,285.972 L102.514,285.972 L102.514,285.6 L105.022,285.6 Z M109.186,285.6 L109.186,294 L108.79,294 L108.79,285.972 L106.678,285.972 L106.678,285.6 L109.186,285.6 Z M116.342,286.58 L116.342,294 L116.022,294 L116.022,292.58 C115.828666,293.033336 115.533669,293.388332 115.137,293.645 C114.740331,293.901668 114.288669,294.03 113.782,294.03 C113.308664,294.03 112.878669,293.918334 112.492,293.695 C112.105331,293.471666 111.800334,293.160002 111.577,292.76 C111.353666,292.359998 111.242,291.906669 111.242,291.4 C111.242,290.893331 111.353666,290.440002 111.577,290.04 C111.800334,289.639998 112.105331,289.328334 112.492,289.105 C112.878669,288.881666 113.308664,288.77 113.782,288.77 C114.282002,288.77 114.730331,288.896665 115.127,289.15 C115.523669,289.403335 115.818666,289.753331 116.012,290.2 L116.012,286.58 L116.342,286.58 Z M114.927,293.435 C115.263668,293.238332 115.528666,292.963335 115.722,292.61 C115.915334,292.256665 116.012,291.853336 116.012,291.4 C116.012,290.946664 115.915334,290.545002 115.722,290.195 C115.528666,289.844998 115.263668,289.571668 114.927,289.375 C114.590332,289.178332 114.212002,289.08 113.792,289.08 C113.371998,289.08 112.993668,289.178332 112.657,289.375 C112.320332,289.571668 112.055334,289.844998 111.862,290.195 C111.668666,290.545002 111.572,290.946664 111.572,291.4 C111.572,291.853336 111.668666,292.256665 111.862,292.61 C112.055334,292.963335 112.320332,293.238332 112.657,293.435 C112.993668,293.631668 113.371998,293.73 113.792,293.73 C114.212002,293.73 114.590332,293.631668 114.927,293.435 Z M122.842,291.45 L118.292,291.45 C118.298667,291.890002 118.401999,292.283332 118.602,292.63 C118.802001,292.976668 119.076998,293.246666 119.427,293.44 C119.777002,293.633334 120.168665,293.73 120.602,293.73 C120.955335,293.73 121.281999,293.665001 121.582,293.535 C121.882002,293.404999 122.128666,293.213335 122.322,292.96 L122.532,293.18 C122.298666,293.453335 122.015335,293.663333 121.682,293.81 C121.348665,293.956667 120.988669,294.03 120.602,294.03 C120.095331,294.03 119.643669,293.918334 119.247,293.695 C118.850331,293.471666 118.538668,293.160002 118.312,292.76 C118.085332,292.359998 117.972,291.906669 117.972,291.4 C117.972,290.893331 118.076999,290.440002 118.287,290.04 C118.497001,289.639998 118.788665,289.328334 119.162,289.105 C119.535335,288.881666 119.951998,288.77 120.412,288.77 C120.865336,288.77 121.276998,288.879999 121.647,289.1 C122.017002,289.320001 122.308666,289.626665 122.522,290.02 C122.735334,290.413335 122.842,290.859998 122.842,291.36 L122.842,291.45 Z M119.362,289.34 C119.048665,289.520001 118.798668,289.771665 118.612,290.095 C118.425332,290.418335 118.322,290.779998 118.302,291.18 L122.532,291.18 C122.505333,290.779998 122.397001,290.418335 122.207,290.095 C122.016999,289.771665 121.767002,289.520001 121.457,289.34 C121.146998,289.159999 120.798669,289.07 120.412,289.07 C120.025331,289.07 119.675335,289.159999 119.362,289.34 Z M125.137,293.695 C124.746998,293.471666 124.440334,293.160002 124.217,292.76 C123.993666,292.359998 123.882,291.906669 123.882,291.4 C123.882,290.893331 123.993666,290.440002 124.217,290.04 C124.440334,289.639998 124.746998,289.328334 125.137,289.105 C125.527002,288.881666 125.968664,288.77 126.462,288.77 C126.855335,288.77 127.220332,288.844999 127.557,288.995 C127.893668,289.145001 128.168666,289.366665 128.382,289.66 L128.132,289.87 C127.945332,289.609999 127.707001,289.413334 127.417,289.28 C127.126999,289.146666 126.808668,289.08 126.462,289.08 C126.035331,289.08 125.650335,289.178332 125.307,289.375 C124.963665,289.571668 124.695334,289.844998 124.502,290.195 C124.308666,290.545002 124.212,290.946664 124.212,291.4 C124.212,291.853336 124.308666,292.256665 124.502,292.61 C124.695334,292.963335 124.963665,293.238332 125.307,293.435 C125.650335,293.631668 126.035331,293.73 126.462,293.73 C126.808668,293.73 127.126999,293.663334 127.417,293.53 C127.707001,293.396666 127.945332,293.200001 128.132,292.94 L128.382,293.14 C128.168666,293.433335 127.893668,293.654999 127.557,293.805 C127.220332,293.955001 126.855335,294.03 126.462,294.03 C125.968664,294.03 125.527002,293.918334 125.137,293.695 Z M143.624,285.6 L143.624,294 L143.228,294 L143.228,285.972 L141.116,285.972 L141.116,285.6 L143.624,285.6 Z M150.572,289.392 C150.996002,289.592001 151.321999,289.877998 151.55,290.25 C151.778001,290.622002 151.892,291.055998 151.892,291.552 C151.892,292.048002 151.776001,292.483998 151.544,292.86 C151.311999,293.236002 150.988002,293.527999 150.572,293.736 C150.155998,293.944001 149.688003,294.048 149.168,294.048 C148.087995,294.048 147.264003,293.676004 146.696,292.932 C146.127997,292.187996 145.844,291.152007 145.844,289.824 C145.844,288.895995 145.995998,288.114003 146.3,287.478 C146.604002,286.841997 147.027997,286.362002 147.572,286.038 C148.116003,285.713998 148.755996,285.552 149.492,285.552 C150.260004,285.552 150.871998,285.691999 151.328,285.972 L151.148,286.296 C150.755998,286.047999 150.204004,285.924 149.492,285.924 C148.491995,285.924 147.702003,286.251997 147.122,286.908 C146.541997,287.564003 146.252,288.515994 146.252,289.764 C146.252,290.212002 146.292,290.635998 146.372,291.036 C146.516001,290.427997 146.835998,289.952002 147.332,289.608 C147.828002,289.263998 148.419997,289.092 149.108,289.092 C149.660003,289.092 150.147998,289.191999 150.572,289.392 Z M150.848,293.106 C151.280002,292.717998 151.496,292.204003 151.496,291.564 C151.496,290.915997 151.278002,290.400002 150.842,290.016 C150.405998,289.631998 149.816004,289.44 149.072,289.44 C148.591998,289.44 148.166002,289.533999 147.794,289.722 C147.421998,289.910001 147.132001,290.167998 146.924,290.496 C146.715999,290.824002 146.612,291.187998 146.612,291.588 C146.612,291.940002 146.709999,292.277998 146.906,292.602 C147.102001,292.926002 147.391998,293.187999 147.776,293.388 C148.160002,293.588001 148.619997,293.688 149.156,293.688 C149.852003,293.688 150.415998,293.494002 150.848,293.106 Z M157.932,286.58 L157.932,294 L157.612,294 L157.612,292.58 C157.418666,293.033336 157.123669,293.388332 156.727,293.645 C156.330331,293.901668 155.878669,294.03 155.372,294.03 C154.898664,294.03 154.468669,293.918334 154.082,293.695 C153.695331,293.471666 153.390334,293.160002 153.167,292.76 C152.943666,292.359998 152.832,291.906669 152.832,291.4 C152.832,290.893331 152.943666,290.440002 153.167,290.04 C153.390334,289.639998 153.695331,289.328334 154.082,289.105 C154.468669,288.881666 154.898664,288.77 155.372,288.77 C155.872002,288.77 156.320331,288.896665 156.717,289.15 C157.113669,289.403335 157.408666,289.753331 157.602,290.2 L157.602,286.58 L157.932,286.58 Z M156.517,293.435 C156.853668,293.238332 157.118666,292.963335 157.312,292.61 C157.505334,292.256665 157.602,291.853336 157.602,291.4 C157.602,290.946664 157.505334,290.545002 157.312,290.195 C157.118666,289.844998 156.853668,289.571668 156.517,289.375 C156.180332,289.178332 155.802002,289.08 155.382,289.08 C154.961998,289.08 154.583668,289.178332 154.247,289.375 C153.910332,289.571668 153.645334,289.844998 153.452,290.195 C153.258666,290.545002 153.162,290.946664 153.162,291.4 C153.162,291.853336 153.258666,292.256665 153.452,292.61 C153.645334,292.963335 153.910332,293.238332 154.247,293.435 C154.583668,293.631668 154.961998,293.73 155.382,293.73 C155.802002,293.73 156.180332,293.631668 156.517,293.435 Z M164.432,291.45 L159.882,291.45 C159.888667,291.890002 159.991999,292.283332 160.192,292.63 C160.392001,292.976668 160.666998,293.246666 161.017,293.44 C161.367002,293.633334 161.758664,293.73 162.192,293.73 C162.545335,293.73 162.871998,293.665001 163.172,293.535 C163.472001,293.404999 163.718666,293.213335 163.912,292.96 L164.122,293.18 C163.888665,293.453335 163.605335,293.663333 163.272,293.81 C162.938665,293.956667 162.578669,294.03 162.192,294.03 C161.685331,294.03 161.233669,293.918334 160.837,293.695 C160.440331,293.471666 160.128668,293.160002 159.902,292.76 C159.675332,292.359998 159.562,291.906669 159.562,291.4 C159.562,290.893331 159.666999,290.440002 159.877,290.04 C160.087001,289.639998 160.378665,289.328334 160.752,289.105 C161.125335,288.881666 161.541998,288.77 162.002,288.77 C162.455336,288.77 162.866998,288.879999 163.237,289.1 C163.607002,289.320001 163.898666,289.626665 164.112,290.02 C164.325334,290.413335 164.432,290.859998 164.432,291.36 L164.432,291.45 Z M160.952,289.34 C160.638665,289.520001 160.388668,289.771665 160.202,290.095 C160.015332,290.418335 159.912,290.779998 159.892,291.18 L164.122,291.18 C164.095333,290.779998 163.987001,290.418335 163.797,290.095 C163.606999,289.771665 163.357002,289.520001 163.047,289.34 C162.736998,289.159999 162.388669,289.07 162.002,289.07 C161.615331,289.07 161.265335,289.159999 160.952,289.34 Z M166.727,293.695 C166.336998,293.471666 166.030334,293.160002 165.807,292.76 C165.583666,292.359998 165.472,291.906669 165.472,291.4 C165.472,290.893331 165.583666,290.440002 165.807,290.04 C166.030334,289.639998 166.336998,289.328334 166.727,289.105 C167.117002,288.881666 167.558664,288.77 168.052,288.77 C168.445335,288.77 168.810332,288.844999 169.147,288.995 C169.483668,289.145001 169.758666,289.366665 169.972,289.66 L169.722,289.87 C169.535332,289.609999 169.297001,289.413334 169.007,289.28 C168.716999,289.146666 168.398668,289.08 168.052,289.08 C167.625331,289.08 167.240335,289.178332 166.897,289.375 C166.553665,289.571668 166.285334,289.844998 166.092,290.195 C165.898666,290.545002 165.802,290.946664 165.802,291.4 C165.802,291.853336 165.898666,292.256665 166.092,292.61 C166.285334,292.963335 166.553665,293.238332 166.897,293.435 C167.240335,293.631668 167.625331,293.73 168.052,293.73 C168.398668,293.73 168.716999,293.663334 169.007,293.53 C169.297001,293.396666 169.535332,293.200001 169.722,292.94 L169.972,293.14 C169.758666,293.433335 169.483668,293.654999 169.147,293.805 C168.810332,293.955001 168.445335,294.03 168.052,294.03 C167.558664,294.03 167.117002,293.918334 166.727,293.695 Z M187.766,293.628 L187.766,294 L182.078,294 L182.078,293.712 L185.678,290.088 C186.166002,289.599998 186.495999,289.182002 186.668,288.834 C186.840001,288.485998 186.926,288.128002 186.926,287.76 C186.926,287.191997 186.732002,286.744002 186.344,286.416 C185.955998,286.087998 185.402004,285.924 184.682,285.924 C184.121997,285.924 183.636002,286.005999 183.224,286.17 C182.811998,286.334001 182.458001,286.587998 182.162,286.932 L181.886,286.668 C182.534003,285.923996 183.469994,285.552 184.694,285.552 C185.502004,285.552 186.141998,285.747998 186.614,286.14 C187.086002,286.532002 187.322,287.063997 187.322,287.736 C187.322,288.160002 187.226001,288.567998 187.034,288.96 C186.841999,289.352002 186.486003,289.807997 185.966,290.328 L182.69,293.628 L187.766,293.628 Z M190.898,285.6 L190.898,294 L190.502,294 L190.502,285.972 L188.39,285.972 L188.39,285.6 L190.898,285.6 Z M198.054,286.58 L198.054,294 L197.734,294 L197.734,292.58 C197.540666,293.033336 197.245669,293.388332 196.849,293.645 C196.452331,293.901668 196.000669,294.03 195.494,294.03 C195.020664,294.03 194.590669,293.918334 194.204,293.695 C193.817331,293.471666 193.512334,293.160002 193.289,292.76 C193.065666,292.359998 192.954,291.906669 192.954,291.4 C192.954,290.893331 193.065666,290.440002 193.289,290.04 C193.512334,289.639998 193.817331,289.328334 194.204,289.105 C194.590669,288.881666 195.020664,288.77 195.494,288.77 C195.994002,288.77 196.442331,288.896665 196.839,289.15 C197.235669,289.403335 197.530666,289.753331 197.724,290.2 L197.724,286.58 L198.054,286.58 Z M196.639,293.435 C196.975668,293.238332 197.240666,292.963335 197.434,292.61 C197.627334,292.256665 197.724,291.853336 197.724,291.4 C197.724,290.946664 197.627334,290.545002 197.434,290.195 C197.240666,289.844998 196.975668,289.571668 196.639,289.375 C196.302332,289.178332 195.924002,289.08 195.504,289.08 C195.083998,289.08 194.705668,289.178332 194.369,289.375 C194.032332,289.571668 193.767334,289.844998 193.574,290.195 C193.380666,290.545002 193.284,290.946664 193.284,291.4 C193.284,291.853336 193.380666,292.256665 193.574,292.61 C193.767334,292.963335 194.032332,293.238332 194.369,293.435 C194.705668,293.631668 195.083998,293.73 195.504,293.73 C195.924002,293.73 196.302332,293.631668 196.639,293.435 Z M204.554,291.45 L200.004,291.45 C200.010667,291.890002 200.113999,292.283332 200.314,292.63 C200.514001,292.976668 200.788998,293.246666 201.139,293.44 C201.489002,293.633334 201.880665,293.73 202.314,293.73 C202.667335,293.73 202.993999,293.665001 203.294,293.535 C203.594001,293.404999 203.840666,293.213335 204.034,292.96 L204.244,293.18 C204.010666,293.453335 203.727335,293.663333 203.394,293.81 C203.060665,293.956667 202.700669,294.03 202.314,294.03 C201.807331,294.03 201.355669,293.918334 200.959,293.695 C200.562331,293.471666 200.250668,293.160002 200.024,292.76 C199.797332,292.359998 199.684,291.906669 199.684,291.4 C199.684,290.893331 199.788999,290.440002 199.999,290.04 C200.209001,289.639998 200.500665,289.328334 200.874,289.105 C201.247335,288.881666 201.663998,288.77 202.124,288.77 C202.577336,288.77 202.988998,288.879999 203.359,289.1 C203.729002,289.320001 204.020666,289.626665 204.234,290.02 C204.447334,290.413335 204.554,290.859998 204.554,291.36 L204.554,291.45 Z M201.074,289.34 C200.760665,289.520001 200.510668,289.771665 200.324,290.095 C200.137332,290.418335 200.034,290.779998 200.014,291.18 L204.244,291.18 C204.217333,290.779998 204.109001,290.418335 203.919,290.095 C203.728999,289.771665 203.479002,289.520001 203.169,289.34 C202.858998,289.159999 202.510669,289.07 202.124,289.07 C201.737331,289.07 201.387335,289.159999 201.074,289.34 Z M206.849,293.695 C206.458998,293.471666 206.152334,293.160002 205.929,292.76 C205.705666,292.359998 205.594,291.906669 205.594,291.4 C205.594,290.893331 205.705666,290.440002 205.929,290.04 C206.152334,289.639998 206.458998,289.328334 206.849,289.105 C207.239002,288.881666 207.680664,288.77 208.174,288.77 C208.567335,288.77 208.932332,288.844999 209.269,288.995 C209.605668,289.145001 209.880666,289.366665 210.094,289.66 L209.844,289.87 C209.657332,289.609999 209.419001,289.413334 209.129,289.28 C208.838999,289.146666 208.520668,289.08 208.174,289.08 C207.747331,289.08 207.362335,289.178332 207.019,289.375 C206.675665,289.571668 206.407334,289.844998 206.214,290.195 C206.020666,290.545002 205.924,290.946664 205.924,291.4 C205.924,291.853336 206.020666,292.256665 206.214,292.61 C206.407334,292.963335 206.675665,293.238332 207.019,293.435 C207.362335,293.631668 207.747331,293.73 208.174,293.73 C208.520668,293.73 208.838999,293.663334 209.129,293.53 C209.419001,293.396666 209.657332,293.200001 209.844,292.94 L210.094,293.14 C209.880666,293.433335 209.605668,293.654999 209.269,293.805 C208.932332,293.955001 208.567335,294.03 208.174,294.03 C207.680664,294.03 207.239002,293.918334 206.849,293.695 Z M228.9,293.628 L228.9,294 L223.212,294 L223.212,293.712 L226.812,290.088 C227.300002,289.599998 227.629999,289.182002 227.802,288.834 C227.974001,288.485998 228.06,288.128002 228.06,287.76 C228.06,287.191997 227.866002,286.744002 227.478,286.416 C227.089998,286.087998 226.536004,285.924 225.816,285.924 C225.255997,285.924 224.770002,286.005999 224.358,286.17 C223.945998,286.334001 223.592001,286.587998 223.296,286.932 L223.02,286.668 C223.668003,285.923996 224.603994,285.552 225.828,285.552 C226.636004,285.552 227.275998,285.747998 227.748,286.14 C228.220002,286.532002 228.456,287.063997 228.456,287.736 C228.456,288.160002 228.360001,288.567998 228.168,288.96 C227.975999,289.352002 227.620003,289.807997 227.1,290.328 L223.824,293.628 L228.9,293.628 Z M234.816,289.392 C235.240002,289.592001 235.565999,289.877998 235.794,290.25 C236.022001,290.622002 236.136,291.055998 236.136,291.552 C236.136,292.048002 236.020001,292.483998 235.788,292.86 C235.555999,293.236002 235.232002,293.527999 234.816,293.736 C234.399998,293.944001 233.932003,294.048 233.412,294.048 C232.331995,294.048 231.508003,293.676004 230.94,292.932 C230.371997,292.187996 230.088,291.152007 230.088,289.824 C230.088,288.895995 230.239998,288.114003 230.544,287.478 C230.848002,286.841997 231.271997,286.362002 231.816,286.038 C232.360003,285.713998 232.999996,285.552 233.736,285.552 C234.504004,285.552 235.115998,285.691999 235.572,285.972 L235.392,286.296 C234.999998,286.047999 234.448004,285.924 233.736,285.924 C232.735995,285.924 231.946003,286.251997 231.366,286.908 C230.785997,287.564003 230.496,288.515994 230.496,289.764 C230.496,290.212002 230.536,290.635998 230.616,291.036 C230.760001,290.427997 231.079998,289.952002 231.576,289.608 C232.072002,289.263998 232.663997,289.092 233.352,289.092 C233.904003,289.092 234.391998,289.191999 234.816,289.392 Z M235.092,293.106 C235.524002,292.717998 235.74,292.204003 235.74,291.564 C235.74,290.915997 235.522002,290.400002 235.086,290.016 C234.649998,289.631998 234.060004,289.44 233.316,289.44 C232.835998,289.44 232.410002,289.533999 232.038,289.722 C231.665998,289.910001 231.376001,290.167998 231.168,290.496 C230.959999,290.824002 230.856,291.187998 230.856,291.588 C230.856,291.940002 230.953999,292.277998 231.15,292.602 C231.346001,292.926002 231.635998,293.187999 232.02,293.388 C232.404002,293.588001 232.863997,293.688 233.4,293.688 C234.096003,293.688 234.659998,293.494002 235.092,293.106 Z M242.176,286.58 L242.176,294 L241.856,294 L241.856,292.58 C241.662666,293.033336 241.367669,293.388332 240.971,293.645 C240.574331,293.901668 240.122669,294.03 239.616,294.03 C239.142664,294.03 238.712669,293.918334 238.326,293.695 C237.939331,293.471666 237.634334,293.160002 237.411,292.76 C237.187666,292.359998 237.076,291.906669 237.076,291.4 C237.076,290.893331 237.187666,290.440002 237.411,290.04 C237.634334,289.639998 237.939331,289.328334 238.326,289.105 C238.712669,288.881666 239.142664,288.77 239.616,288.77 C240.116002,288.77 240.564331,288.896665 240.961,289.15 C241.357669,289.403335 241.652666,289.753331 241.846,290.2 L241.846,286.58 L242.176,286.58 Z M240.761,293.435 C241.097668,293.238332 241.362666,292.963335 241.556,292.61 C241.749334,292.256665 241.846,291.853336 241.846,291.4 C241.846,290.946664 241.749334,290.545002 241.556,290.195 C241.362666,289.844998 241.097668,289.571668 240.761,289.375 C240.424332,289.178332 240.046002,289.08 239.626,289.08 C239.205998,289.08 238.827668,289.178332 238.491,289.375 C238.154332,289.571668 237.889334,289.844998 237.696,290.195 C237.502666,290.545002 237.406,290.946664 237.406,291.4 C237.406,291.853336 237.502666,292.256665 237.696,292.61 C237.889334,292.963335 238.154332,293.238332 238.491,293.435 C238.827668,293.631668 239.205998,293.73 239.626,293.73 C240.046002,293.73 240.424332,293.631668 240.761,293.435 Z M248.676,291.45 L244.126,291.45 C244.132667,291.890002 244.235999,292.283332 244.436,292.63 C244.636001,292.976668 244.910998,293.246666 245.261,293.44 C245.611002,293.633334 246.002664,293.73 246.436,293.73 C246.789335,293.73 247.115998,293.665001 247.416,293.535 C247.716001,293.404999 247.962666,293.213335 248.156,292.96 L248.366,293.18 C248.132665,293.453335 247.849335,293.663333 247.516,293.81 C247.182665,293.956667 246.822669,294.03 246.436,294.03 C245.929331,294.03 245.477669,293.918334 245.081,293.695 C244.684331,293.471666 244.372668,293.160002 244.146,292.76 C243.919332,292.359998 243.806,291.906669 243.806,291.4 C243.806,290.893331 243.910999,290.440002 244.121,290.04 C244.331001,289.639998 244.622665,289.328334 244.996,289.105 C245.369335,288.881666 245.785998,288.77 246.246,288.77 C246.699336,288.77 247.110998,288.879999 247.481,289.1 C247.851002,289.320001 248.142666,289.626665 248.356,290.02 C248.569334,290.413335 248.676,290.859998 248.676,291.36 L248.676,291.45 Z M245.196,289.34 C244.882665,289.520001 244.632668,289.771665 244.446,290.095 C244.259332,290.418335 244.156,290.779998 244.136,291.18 L248.366,291.18 C248.339333,290.779998 248.231001,290.418335 248.041,290.095 C247.850999,289.771665 247.601002,289.520001 247.291,289.34 C246.980998,289.159999 246.632669,289.07 246.246,289.07 C245.859331,289.07 245.509335,289.159999 245.196,289.34 Z M250.971,293.695 C250.580998,293.471666 250.274334,293.160002 250.051,292.76 C249.827666,292.359998 249.716,291.906669 249.716,291.4 C249.716,290.893331 249.827666,290.440002 250.051,290.04 C250.274334,289.639998 250.580998,289.328334 250.971,289.105 C251.361002,288.881666 251.802664,288.77 252.296,288.77 C252.689335,288.77 253.054332,288.844999 253.391,288.995 C253.727668,289.145001 254.002666,289.366665 254.216,289.66 L253.966,289.87 C253.779332,289.609999 253.541001,289.413334 253.251,289.28 C252.960999,289.146666 252.642668,289.08 252.296,289.08 C251.869331,289.08 251.484335,289.178332 251.141,289.375 C250.797665,289.571668 250.529334,289.844998 250.336,290.195 C250.142666,290.545002 250.046,290.946664 250.046,291.4 C250.046,291.853336 250.142666,292.256665 250.336,292.61 C250.529334,292.963335 250.797665,293.238332 251.141,293.435 C251.484335,293.631668 251.869331,293.73 252.296,293.73 C252.642668,293.73 252.960999,293.663334 253.251,293.53 C253.541001,293.396666 253.779332,293.200001 253.966,292.94 L254.216,293.14 C254.002666,293.433335 253.727668,293.654999 253.391,293.805 C253.054332,293.955001 252.689335,294.03 252.296,294.03 C251.802664,294.03 251.361002,293.918334 250.971,293.695 Z M272.032,289.944 C272.532002,290.368002 272.782,290.943996 272.782,291.672 C272.782,292.384004 272.536002,292.957998 272.044,293.394 C271.551998,293.830002 270.854005,294.048 269.95,294.048 C269.333997,294.048 268.762003,293.942001 268.234,293.73 C267.705997,293.517999 267.306001,293.236002 267.034,292.884 L267.25,292.596 C267.506001,292.916002 267.871998,293.175999 268.348,293.376 C268.824002,293.576001 269.353997,293.676 269.938,293.676 C270.730004,293.676 271.335998,293.496002 271.756,293.136 C272.176002,292.775998 272.386,292.288003 272.386,291.672 C272.386,291.039997 272.170002,290.548002 271.738,290.196 C271.305998,289.843998 270.658004,289.668 269.794,289.668 L269.326,289.668 L269.326,289.38 L271.942,285.972 L267.31,285.972 L267.31,285.6 L272.47,285.6 L272.47,285.888 L269.842,289.308 C270.802005,289.308 271.531997,289.519998 272.032,289.944 Z M276.082,285.6 L276.082,294 L275.686,294 L275.686,285.972 L273.574,285.972 L273.574,285.6 L276.082,285.6 Z M283.238,286.58 L283.238,294 L282.918,294 L282.918,292.58 C282.724666,293.033336 282.429669,293.388332 282.033,293.645 C281.636331,293.901668 281.184669,294.03 280.678,294.03 C280.204664,294.03 279.774669,293.918334 279.388,293.695 C279.001331,293.471666 278.696334,293.160002 278.473,292.76 C278.249666,292.359998 278.138,291.906669 278.138,291.4 C278.138,290.893331 278.249666,290.440002 278.473,290.04 C278.696334,289.639998 279.001331,289.328334 279.388,289.105 C279.774669,288.881666 280.204664,288.77 280.678,288.77 C281.178002,288.77 281.626331,288.896665 282.023,289.15 C282.419669,289.403335 282.714666,289.753331 282.908,290.2 L282.908,286.58 L283.238,286.58 Z M281.823,293.435 C282.159668,293.238332 282.424666,292.963335 282.618,292.61 C282.811334,292.256665 282.908,291.853336 282.908,291.4 C282.908,290.946664 282.811334,290.545002 282.618,290.195 C282.424666,289.844998 282.159668,289.571668 281.823,289.375 C281.486332,289.178332 281.108002,289.08 280.688,289.08 C280.267998,289.08 279.889668,289.178332 279.553,289.375 C279.216332,289.571668 278.951334,289.844998 278.758,290.195 C278.564666,290.545002 278.468,290.946664 278.468,291.4 C278.468,291.853336 278.564666,292.256665 278.758,292.61 C278.951334,292.963335 279.216332,293.238332 279.553,293.435 C279.889668,293.631668 280.267998,293.73 280.688,293.73 C281.108002,293.73 281.486332,293.631668 281.823,293.435 Z M289.738,291.45 L285.188,291.45 C285.194667,291.890002 285.297999,292.283332 285.498,292.63 C285.698001,292.976668 285.972998,293.246666 286.323,293.44 C286.673002,293.633334 287.064664,293.73 287.498,293.73 C287.851335,293.73 288.177998,293.665001 288.478,293.535 C288.778001,293.404999 289.024666,293.213335 289.218,292.96 L289.428,293.18 C289.194665,293.453335 288.911335,293.663333 288.578,293.81 C288.244665,293.956667 287.884669,294.03 287.498,294.03 C286.991331,294.03 286.539669,293.918334 286.143,293.695 C285.746331,293.471666 285.434668,293.160002 285.208,292.76 C284.981332,292.359998 284.868,291.906669 284.868,291.4 C284.868,290.893331 284.972999,290.440002 285.183,290.04 C285.393001,289.639998 285.684665,289.328334 286.058,289.105 C286.431335,288.881666 286.847998,288.77 287.308,288.77 C287.761336,288.77 288.172998,288.879999 288.543,289.1 C288.913002,289.320001 289.204666,289.626665 289.418,290.02 C289.631334,290.413335 289.738,290.859998 289.738,291.36 L289.738,291.45 Z M286.258,289.34 C285.944665,289.520001 285.694668,289.771665 285.508,290.095 C285.321332,290.418335 285.218,290.779998 285.198,291.18 L289.428,291.18 C289.401333,290.779998 289.293001,290.418335 289.103,290.095 C288.912999,289.771665 288.663002,289.520001 288.353,289.34 C288.042998,289.159999 287.694669,289.07 287.308,289.07 C286.921331,289.07 286.571335,289.159999 286.258,289.34 Z M292.033,293.695 C291.642998,293.471666 291.336334,293.160002 291.113,292.76 C290.889666,292.359998 290.778,291.906669 290.778,291.4 C290.778,290.893331 290.889666,290.440002 291.113,290.04 C291.336334,289.639998 291.642998,289.328334 292.033,289.105 C292.423002,288.881666 292.864664,288.77 293.358,288.77 C293.751335,288.77 294.116332,288.844999 294.453,288.995 C294.789668,289.145001 295.064666,289.366665 295.278,289.66 L295.028,289.87 C294.841332,289.609999 294.603001,289.413334 294.313,289.28 C294.022999,289.146666 293.704668,289.08 293.358,289.08 C292.931331,289.08 292.546335,289.178332 292.203,289.375 C291.859665,289.571668 291.591334,289.844998 291.398,290.195 C291.204666,290.545002 291.108,290.946664 291.108,291.4 C291.108,291.853336 291.204666,292.256665 291.398,292.61 C291.591334,292.963335 291.859665,293.238332 292.203,293.435 C292.546335,293.631668 292.931331,293.73 293.358,293.73 C293.704668,293.73 294.022999,293.663334 294.313,293.53 C294.603001,293.396666 294.841332,293.200001 295.028,292.94 L295.278,293.14 C295.064666,293.433335 294.789668,293.654999 294.453,293.805 C294.116332,293.955001 293.751335,294.03 293.358,294.03 C292.864664,294.03 292.423002,293.918334 292.033,293.695 Z" id="6h-5h-4h-3h-2h-1h-0h" fill="#000000"></path>
            <path d="M24.5,229.5 L276.5,229.5" id="Line-3" stroke="#EAEAEA" stroke-linecap="square"></path>
            <path d="M24.5,184.5 L276.5,184.5" id="Line-3" stroke="#EAEAEA" stroke-linecap="square"></path>
            <path d="M24.5,94.5 L276.5,94.5" id="Line-3" stroke="#EAEAEA" stroke-linecap="square"></path>
            <path d="M24.5,49.5 L276.5,49.5" id="Line-3" stroke="#EAEAEA" stroke-linecap="square"></path>
            <path d="M24.5,139.5 L276.5,139.5" id="Line-3" stroke="#EAEAEA" stroke-linecap="square"></path>
            <path d="M24.5,4.5 L276.5,4.5" id="Line-3" stroke="#EAEAEA" stroke-linecap="square"></path>
            <path d="M24.5,274.5 L276.5,274.5" id="Line-3" stroke="#EAEAEA" stroke-linecap="square"></path>
            <polyline id="Line-2" stroke="#44A1D5" stroke-width="3" stroke-linecap="square" points="22.4882812 186 54.8245752 131.549718 103.484375 114.738281 140.5 139.640625 193.09375 131.549718 222.941406 103.160156 273.902344 93.28125"></polyline>
        </g>
    </g>
</svg>