<?xml version="1.0" encoding="UTF-8"?>
<svg width="20px" height="19px" viewBox="0 0 20 19" version="1.1" xmlns="http://www.w3.org/2000/svg" xmlns:xlink="http://www.w3.org/1999/xlink">
    <!-- Generator: Sketch 48.2 (47327) - http://www.bohemiancoding.com/sketch -->
    <title>menurakning</title>
    <desc>Created with Sketch.</desc>
    <defs></defs>
    <g id="Leaderboard" stroke="none" stroke-width="1" fill="none" fill-rule="evenodd" transform="translate(-175.000000, -617.000000)">
        <g id="menu" transform="translate(44.000000, 606.000000)" fill="#2E2D4D" fill-rule="nonzero">
            <g id="menumid" transform="translate(120.000000, 0.000000)">
                <path d="M17.1180746,15.5415559 C17.1180746,15.859908 16.8033749,16.1145896 16.4100001,16.1145896 L12.5745964,16.1145896 C12.1812216,16.1145896 11.8665219,15.859908 11.8665219,15.5415559 L11.8665219,12.4376233 C11.8665219,12.1192713 12.1812216,11.8645896 12.5745964,11.8645896 L16.3903314,11.8645896 C16.7837061,11.8645896 17.0984059,12.1192713 17.0984059,12.4376233 L17.0984059,15.5415559 L17.1180746,15.5415559 Z M16.4100001,25.6130368 L12.5745964,25.6130368 C12.1812216,25.6130368 11.8665219,25.8674729 11.8665219,26.185518 L11.8665219,29.2705557 C11.8665219,29.5886008 12.1812216,29.8430369 12.5745964,29.8430369 L16.3903314,29.8430369 C16.7837061,29.8430369 17.0984059,29.5886008 17.0984059,29.2705557 L17.0984059,26.185518 C17.1180746,25.8674729 16.8033749,25.6130368 16.4100001,25.6130368 Z M17.1180746,19.3211288 C17.1180746,19.0030837 16.8033749,18.7486476 16.4100001,18.7486476 L12.5745964,18.7486476 C12.1812216,18.7486476 11.8665219,19.0030837 11.8665219,19.3211288 L11.8665219,22.4061664 C11.8665219,22.7242115 12.1812216,22.9786476 12.5745964,22.9786476 L16.3903314,22.9786476 C16.7837061,22.9786476 17.0984059,22.7242115 17.0984059,22.4061664 L17.0984059,19.3211288 L17.1180746,19.3211288 Z M30.256791,13.1627263 L20.0487165,13.1627263 C19.7143479,13.1627263 19.4389856,13.334638 19.4389856,13.543388 L19.4389856,14.4520645 C19.4389856,14.6608145 19.7143479,14.8327262 20.0487165,14.8327262 L30.256791,14.8327262 C30.5911595,14.8327262 30.8665219,14.6608145 30.8665219,14.4520645 L30.8665219,13.543388 C30.8665219,13.3223586 30.5911595,13.1627263 30.256791,13.1627263 Z M30.256791,19.987778 L20.0487165,19.987778 C19.7143479,19.987778 19.4389856,20.1596898 19.4389856,20.3684398 L19.4389856,21.2771162 C19.4389856,21.4858662 19.7143479,21.657778 20.0487165,21.657778 L30.256791,21.657778 C30.5911595,21.657778 30.8665219,21.4858662 30.8665219,21.2771162 L30.8665219,20.3684398 C30.8665219,20.1596898 30.5911595,19.987778 30.256791,19.987778 Z M30.256791,26.9111735 L20.0487165,26.9111735 C19.7143479,26.9111735 19.4389856,27.0830852 19.4389856,27.2918352 L19.4389856,28.2005117 C19.4389856,28.4092617 19.7143479,28.5811734 20.0487165,28.5811734 L30.256791,28.5811734 C30.5911595,28.5811734 30.8665219,28.4092617 30.8665219,28.2005117 L30.8665219,27.2918352 C30.8665219,27.0708058 30.5911595,26.9111735 30.256791,26.9111735 Z" id="menurakning"></path>
            </g>
        </g>
    </g>
</svg>