<?xml version="1.0" encoding="UTF-8"?>
<svg width="64px" height="42px" viewBox="0 0 64 42" version="1.1" xmlns="http://www.w3.org/2000/svg" xmlns:xlink="http://www.w3.org/1999/xlink">
    <!-- Generator: Sketch 48.2 (47327) - http://www.bohemiancoding.com/sketch -->
    <title>Shape</title>
    <desc>Created with Sketch.</desc>
    <defs></defs>
    <g id="uitleg-1" stroke="none" stroke-width="1" fill="none" fill-rule="evenodd" transform="translate(-155.000000, -216.000000)">
        <g id="noun_982580_cc" transform="translate(155.000000, 216.000000)" fill="#FFFFFF" fill-rule="nonzero">
            <path d="M57,0 L7,0 C3.1,0 0,3.1 0,7 L0,35 C0,38.9 3.1,42 7,42 L57,42 C60.9,42 64,38.9 64,35 L64,7 C64,3.1 60.9,0 57,0 Z M62,35 C62,37.8 59.8,40 57,40 L7,40 C4.2,40 2,37.8 2,35 L2,7 C2,4.2 4.2,2 7,2 L57,2 C59.8,2 62,4.2 62,7 L62,35 Z M22,20.3 C22.9,19 23.2,17.3 22.9,15.6 C22.4,13.4 20.7,11.7 18.5,11.2 C17.9,11.1 17.5,11 17,11 C15.4,11 13.9,11.6 12.8,12.8 C11.6,13.9 11,15.4 11,17 C11,18.2 11.4,19.4 12,20.3 C9.7,21.1 8,23.3 8,26 L8,28 C8,29.7 9.3,31 11,31 L23,31 C24.7,31 26,29.7 26,28 L26,26 C26,23.4 24.3,21.2 22,20.3 Z M24,28 C24,28.6 23.6,29 23,29 L11,29 C10.4,29 10,28.6 10,28 L10,26 C10,23.8 11.8,22 14,22 L16,22 L16,20.9 C14.3,20.5 13,18.9 13,17 C13,14.8 14.8,13 17,13 C17.3,13 17.6,13 18,13.1 C19.4,13.4 20.6,14.6 20.9,16 C21.4,18.3 20,20.3 18,20.8 L18,22 L20,22 C22.2,22 24,23.8 24,26 L24,28 Z M57,10 L33,10 C32.4,10 32,10.4 32,11 L32,15 C32,15.6 32.4,16 33,16 L57,16 C57.6,16 58,15.6 58,15 L58,11 C58,10.4 57.6,10 57,10 Z M56,14 L34,14 L34,12 L56,12 L56,14 Z M57,18 L33,18 C32.4,18 32,18.4 32,19 L32,23 C32,23.6 32.4,24 33,24 L57,24 C57.6,24 58,23.6 58,23 L58,19 C58,18.4 57.6,18 57,18 Z M56,22 L34,22 L34,20 L56,20 L56,22 Z M51,26 L33,26 C32.4,26 32,26.4 32,27 L32,31 C32,31.6 32.4,32 33,32 L51,32 C51.6,32 52,31.6 52,31 L52,27 C52,26.4 51.6,26 51,26 Z M50,30 L34,30 L34,28 L50,28 L50,30 Z" id="Shape"></path>
        </g>
    </g>
</svg>