<?xml version="1.0" encoding="UTF-8"?>
<svg width="15px" height="21px" viewBox="0 0 15 21" version="1.1" xmlns="http://www.w3.org/2000/svg" xmlns:xlink="http://www.w3.org/1999/xlink">
    <!-- Generator: Sketch 48.2 (47327) - http://www.bohemiancoding.com/sketch -->
    <title>Group 2</title>
    <desc>Created with Sketch.</desc>
    <defs></defs>
    <g id="iPhone-7" stroke="none" stroke-width="1" fill="none" fill-rule="evenodd" transform="translate(-44.000000, -610.000000)">
        <g id="Group-2" transform="translate(44.000000, 610.000000)" fill="#FFFFFF" fill-rule="nonzero">
            <path d="M11.3571429,15 L3.64285714,15 C3.28735714,15 3,15.2235 3,15.5 C3,15.7765 3.28735714,16 3.64285714,16 L11.3571429,16 C11.7126429,16 12,15.7765 12,15.5 C12,15.2235 11.7126429,15 11.3571429,15 Z" id="streep3"></path>
            <path d="M11.3571429,12 L3.64285714,12 C3.28735714,12 3,12.2235 3,12.5 C3,12.7765 3.28735714,13 3.64285714,13 L11.3571429,13 C11.7126429,13 12,12.7765 12,12.5 C12,12.2235 11.7126429,12 11.3571429,12 Z" id="streep2"></path>
            <path d="M11.3571429,9 L3.64285714,9 C3.28735714,9 3,9.2235 3,9.5 C3,9.7765 3.28735714,10 3.64285714,10 L11.3571429,10 C11.7126429,10 12,9.7765 12,9.5 C12,9.2235 11.7126429,9 11.3571429,9 Z" id="streep1"></path>
            <path d="M11.875,3.28125 L11.076875,3.28125 C10.9675,3.084375 10.8125,2.921625 10.625,2.80678125 L10.625,1.3125 C10.625,0.588 10.065,0 9.375,0 L5.625,0 C4.935,0 4.375,0.588 4.375,1.3125 L4.375,2.80678125 C4.1875,2.921625 4.0325,3.084375 3.923125,3.28125 L3.125,3.28125 C1.39875,3.28125 0,4.7499375 0,6.5625 L0,17.71875 C0,19.5313125 1.39875,21 3.125,21 L11.875,21 C13.60125,21 15,19.5313125 15,17.71875 L15,6.5625 C15,4.7499375 13.60125,3.28125 11.875,3.28125 Z M6.25,1.3125 L8.75,1.3125 C9.095625,1.3125 9.375,1.60584375 9.375,1.96875 C9.375,2.33165625 9.095625,2.625 8.75,2.625 L6.25,2.625 C5.904375,2.625 5.625,2.33165625 5.625,1.96875 C5.625,1.60584375 5.904375,1.3125 6.25,1.3125 Z M13.75,17.71875 C13.75,18.8041875 12.90875,19.6875 11.875,19.6875 L3.125,19.6875 C2.09125,19.6875 1.25,18.8041875 1.25,17.71875 L1.25,6.5625 C1.25,5.4770625 2.09125,4.59375 3.125,4.59375 L3.75,4.59375 C3.75,5.68115625 4.589375,6.5625 5.625,6.5625 L9.375,6.5625 C10.410625,6.5625 11.25,5.68115625 11.25,4.59375 L11.875,4.59375 C12.90875,4.59375 13.75,5.4770625 13.75,6.5625 L13.75,17.71875 Z" id="takenbord"></path>
        </g>
    </g>
</svg>