<?xml version="1.0" encoding="UTF-8"?>
<svg width="60px" height="64px" viewBox="0 0 60 64" version="1.1" xmlns="http://www.w3.org/2000/svg" xmlns:xlink="http://www.w3.org/1999/xlink">
    <!-- Generator: Sketch 48.2 (47327) - http://www.bohemiancoding.com/sketch -->
    <title>Shape</title>
    <desc>Created with Sketch.</desc>
    <defs></defs>
    <g id="uitleg-6" stroke="none" stroke-width="1" fill="none" fill-rule="evenodd" transform="translate(-158.000000, -207.000000)">
        <g id="Afbeelding" transform="translate(92.000000, 142.000000)" fill="#FFFFFF" fill-rule="nonzero">
            <g id="noun_1431778_cc" transform="translate(66.000000, 65.000000)">
                <path d="M59.1715306,9.45116279 C58.469236,8.56283748 57.400495,8.04242892 56.2677544,8.0372093 L47.4819698,8.0372093 L47.4819698,1.48837209 C47.4819698,0.666366884 46.8152698,0 45.9928538,0 L13.8279475,0 C13.0055314,0 12.3388315,0.666366884 12.3388315,1.48837209 L12.3388315,8.0372093 L3.70195849,8.0372093 C2.54745486,8.04367646 1.46128722,8.58515213 0.761597138,9.50303658 C0.0619070534,10.420921 -0.172113771,11.6113271 0.12808002,12.7255814 L1.69165185,18.3813953 C3.27942763,24.2424174 8.43387716,28.4358036 14.4980497,28.8 C16.6377593,32.7038125 20.1751618,35.6546058 24.4006713,37.0604651 L24.4006713,48.8186047 L20.5289696,48.8186047 C16.8280973,48.8186047 13.8279475,51.8172556 13.8279475,55.5162791 L13.8279475,62.5116279 C13.8279475,63.3336331 14.4946475,64 15.3170635,64 L44.5037377,64 C45.3261538,64 45.9928538,63.3336331 45.9928538,62.5116279 L45.9928538,55.5162791 C45.9928538,51.8172556 42.992704,48.8186047 39.2918316,48.8186047 L35.4201299,48.8186047 L35.4201299,37.0604651 C39.6456394,35.6546058 43.1830419,32.7038125 45.3227515,28.8 C51.7924825,28.6456058 57.322753,24.1007661 58.7247958,17.7860465 L59.9160886,12.5767442 C60.1539177,11.4759497 59.8801556,10.3267236 59.1715306,9.45116279 Z M4.56143308,17.7771004 L3.03376148,11.9906155 C2.96217948,11.7533236 3.00590477,11.4943952 3.15086538,11.2971602 C3.295826,11.0999253 3.52372714,10.9892759 3.76122415,11.000822 L12.1997911,11.000822 L12.1997911,20.5942049 C12.2002112,22.4284132 12.470101,24.2516483 13,26 C8.9202526,25.1651091 5.64813927,21.9766223 4.56143308,17.7771004 Z M43,55.7016129 L43,61 L17,61 L17,55.6290323 C17,53.6247731 18.6534938,52 20.6931818,52 L39.3068182,52 C41.3465062,52 43,53.6247731 43,55.6290323 L43,55.7016129 Z M32,49 L27,49 L27,38 L29.5,38.147651 L32,38 L32,49 Z M29.5,35 C21.4918711,35 15,28.4696045 15,20.4139535 L15,3 L44,3 L44,20.4139535 C44,28.4696045 37.5081289,35 29.5,35 Z M56.985449,11.9092371 L55.8360448,17.2122124 C54.9043388,21.7907089 51.3887309,25.2871166 47,26 C47.5306111,24.2361942 47.7972177,22.3959331 47.7902154,20.5455111 L47.7902154,11.0001556 L56.2670714,11.0001556 C56.4853211,10.9954949 56.69374,11.0957381 56.8334886,11.2725851 C56.9732373,11.4494321 57.0291527,11.6836946 56.985449,11.9092371 Z" id="Shape"></path>
            </g>
        </g>
    </g>
</svg>